SplineFontDB: 3.0
FontName: Crimson-Roman
FullName: Crimson Roman
FamilyName: Crimson
Weight: Roman
Copyright: Copyright 2010, Sebastian Kosch (sebastian@aldusleaf.org), with Reserved Font Name "Crimson".
Version: 0.8
ItalicAngle: 0
UnderlinePosition: -110
UnderlineWidth: 50
Ascent: 730
Descent: 270
InvalidEm: 0
UFOAscent: 730
UFODescent: -270
LayerCount: 2
Layer: 0 0 "Back" 1
Layer: 1 0 "Fore" 0
StyleMap: 0x0040
FSType: 0
OS2Version: 0
OS2_WeightWidthSlopeOnly: 0
OS2_UseTypoMetrics: 0
CreationTime: 1489874529
ModificationTime: 1489882582
PfmFamily: 16
TTFWeight: 400
TTFWidth: 5
LineGap: 256
VLineGap: 0
Panose: 2 3 5 3 6 4 6 2 3 4
OS2TypoAscent: 742
OS2TypoAOffset: 0
OS2TypoDescent: -282
OS2TypoDOffset: 0
OS2TypoLinegap: 256
OS2WinAscent: 1130
OS2WinAOffset: 0
OS2WinDescent: 427
OS2WinDOffset: 0
HheadAscent: 1130
HheadAOffset: 0
HheadDescent: -427
HheadDOffset: 0
OS2SubXSize: 665
OS2SubYSize: 614
OS2SubXOff: 0
OS2SubYOff: 76
OS2SupXSize: 665
OS2SupYSize: 614
OS2SupXOff: 0
OS2SupYOff: 358
OS2StrikeYSize: 51
OS2StrikeYPos: 255
OS2CapHeight: 658
OS2XHeight: 429
OS2FamilyClass: 258
OS2Vendor: 'PfEd'
Lookup: 4 0 1 "ligaLigaturesstandardlookups7" { "ligaLigaturesstandardlookups7 subtable"  } ['liga' ('latn' <'dflt' 'TRK ' > 'grek' <'dflt' > 'cyrl' <'dflt' > 'DFLT' <'dflt' > ) ]
Lookup: 4 0 0 "dligDiscretionaryLigatureslookup8" { "dligDiscretionaryLigatureslookup8 subtable"  } ['dlig' ('latn' <'dflt' 'TRK ' > 'grek' <'dflt' > 'cyrl' <'dflt' > 'DFLT' <'dflt' > ) ]
Lookup: 1 0 0 "c2scCapitalstoSmallCapitalsinLatinlookup0" { "c2scCapitalstoSmallCapitalsinLatinlookup0 subtable"  } ['c2sc' ('latn' <'dflt' 'TRK ' > 'DFLT' <'dflt' > ) ]
Lookup: 1 0 0 "smcpLowercasetoSmallCapitalslookup2" { "smcpLowercasetoSmallCapitalslookup2 subtable"  } ['smcp' ('latn' <'dflt' 'TRK ' > 'grek' <'dflt' > 'DFLT' <'dflt' > ) ]
Lookup: 1 0 0 "pnumProportionalNumberslookup12" { "pnumProportionalNumberslookup12 subtable"  } ['pnum' ('latn' <'dflt' 'TRK ' > 'grek' <'dflt' > 'DFLT' <'dflt' > ) ]

StartChar: exclam
Encoding: 33 33 1
GlifName: exclam
Width: 241
VWidth: 0
GlyphClass: 2
Flags: HW
HStem: -11 110 622 20<109 140.5>
VStem: 65 110 75 94<570 597 570 598>
LayerCount: 2
Fore
SplineSet
75 584 m 256
 75 612 93 642 125 642 c 256
 156 642 169 610 169 584 c 256
 169 556 155 422 134 172 c 257
 130 164 127 160 118 159 c 257
 113 161 108 164 105 170 c 257
 91 331 75 533 75 584 c 256
EndSplineSet
Refer: 1397 46 N 1 0 0 1 17 0 2
PickledDataWithLists: "(dp1
S'com.fontlab.hintData'
p2
(dp3
S'vhints'
p4
(lp5
(dp6
S'position'
p7
I65
sS'width'
p8
I110
sa(dp9
g7
I75
sg8
I94
sasS'hhints'
p10
(lp11
(dp12
g7
I-11
sg8
I110
sa(dp13
g7
I622
sg8
I20
sass."
Substitution2: "smcpLowercasetoSmallCapitalslookup12 subtable" exclam.sc
Substitution2: "c2scCapitalstoSmallCapitalslookup11 subtable" exclam.sc
Substitution2: "smcpLowercasetoSmallCapitalslookup2 subtable" exclam.sc
Substitution2: "c2scCapitalstoSmallCapitalsinLatinlookup0 subtable" exclam.sc
EndChar

StartChar: quotedbl
Encoding: 34 34 2
GlifName: quotedbl
Width: 280
VWidth: 0
GlyphClass: 2
Flags: HW
HStem: 473 226<81.5 83 201.5 203>
VStem: 39 78<615 686> 159 78<615 686>
LayerCount: 2
Fore
SplineSet
39 629 m 256
 39 657 59 699 91 699 c 256
 103 699 109 696 117 686 c 257
 117 657 109 544 103 492 c 257
 100 486 91 477 83 473 c 257
 80 473 76 475 74 479 c 256
 53 551 39 601 39 629 c 256
159 629 m 256
 159 657 179 699 211 699 c 256
 223 699 229 696 237 686 c 257
 237 657 229 544 223 492 c 257
 220 486 211 477 203 473 c 257
 200 473 196 475 194 479 c 256
 173 551 159 601 159 629 c 256
EndSplineSet
PickledDataWithLists: "(dp1
S'com.fontlab.hintData'
p2
(dp3
S'vhints'
p4
(lp5
(dp6
S'position'
p7
I39
sS'width'
p8
I78
sa(dp9
g7
I159
sg8
I78
sasS'hhints'
p10
(lp11
(dp12
g7
I473
sg8
I226
sass."
EndChar

StartChar: numbersign
Encoding: 35 35 3
GlifName: numbersign
Width: 480
VWidth: 0
GlyphClass: 2
Flags: HW
HStem: 178 49<51 131.44 67 123.6 164.279 284.6 67 156.348 325.947 386> 369 49<79 162 94 154.16 195.195 315.16 94 187.264 356.439 414>
LayerCount: 2
Fore
SplineSet
278 64 m 256
 271 64 267 68 267 68 c 257
 285 178 l 257
 156 178 l 257
 140 77 l 258
 139 73 127 64 117 64 c 256
 110 64 106 68 106 68 c 257
 124 178 l 257
 57 178 l 274
 45 178 53 226 67 227 c 257
 131 227 l 257
 154 369 l 257
 85 369 l 274
 73 369 81 414 94 418 c 257
 162 418 l 257
 178 518 l 258
 179 523 181 531 200 531 c 256
 204 531 210 530 213 528 c 265
 195 418 l 257
 323 418 l 257
 339 518 l 258
 340 523 342 531 361 531 c 256
 370 531 371 530 374 528 c 265
 356 418 l 257
 420 418 l 274
 434 418 424 376 414 369 c 257
 349 369 l 257
 326 227 l 257
 393 227 l 274
 407 227 399 184 386 178 c 257
 318 178 l 257
 302 77 l 258
 301 73 288 64 278 64 c 256
187 369 m 257
 164 227 l 257
 292 227 l 257
 315 369 l 257
 187 369 l 257
EndSplineSet
PickledDataWithLists: "(dp1
S'com.fontlab.hintData'
p2
(dp3
S'hhints'
p4
(lp5
(dp6
S'position'
p7
I178
sS'width'
p8
I49
sa(dp9
g7
I369
sg8
I49
sass."
EndChar

StartChar: dollar
Encoding: 36 36 4
GlifName: dollar
Width: 498
VWidth: 0
GlyphClass: 2
Flags: HW
HStem: -10 34<244 279 244 298.5> 606 33<209 256>
VStem: 51 36 69 77<469.5 521> 364 84<113 174> 382 32<477 477>
LayerCount: 2
Fore
SplineSet
51 165 m 257
 55 169 69 173 76 173 c 256
 81 173 85 172 87 168 c 257
 92 145 111 66 185 36 c 257
 226 284 l 257
 154 326 69 377 69 470 c 256
 69 572 161 639 257 639 c 256
 267 639 277 639 285 638 c 257
 292 683 l 257
 300 683 327 683 327 676 c 257
 320 633 l 257
 344 628 366 620 402 612 c 257
 414 561 413 502 414 476 c 257
 409 473 403 472 396 472 c 256
 392 472 385 474 382 477 c 257
 378 510 352 560 312 587 c 257
 274 355 l 257
 368 300 448 253 448 166 c 256
 448 60 350 -10 247 -10 c 256
 236 -10 225 -10 214 -9 c 257
 207 -52 l 257
 198 -52 172 -50 172 -43 c 257
 178 -4 l 257
 139 2 104 12 74 18 c 257
 62 75 51 154 51 165 c 257
146 500 m 256
 146 439 191 406 241 375 c 257
 279 602 l 257
 270 604 261 606 251 606 c 256
 167 606 146 546 146 500 c 256
220 26 m 257
 229 25 239 24 249 24 c 256
 309 24 364 65 364 140 c 256
 364 208 320 232 259 265 c 257
 220 26 l 257
EndSplineSet
PickledDataWithLists: "(dp1
S'com.fontlab.hintData'
p2
(dp3
S'vhints'
p4
(lp5
(dp6
S'position'
p7
I51
sS'width'
p8
I36
sa(dp9
g7
I69
sg8
I77
sa(dp10
g7
I364
sg8
I84
sa(dp11
g7
I382
sg8
I32
sasS'hhints'
p12
(lp13
(dp14
g7
I-10
sg8
I34
sa(dp15
g7
I606
sg8
I33
sass."
EndChar

StartChar: percent
Encoding: 37 37 5
GlifName: percent
Width: 667
VWidth: 0
GlyphClass: 2
Flags: HW
HStem: -7 25<460 514 460 524> 289 24<445.5 501.5> 325 25<171 225 171 235.5> 621 24<156.5 212.5>
VStem: 40 64<461.5 525.5 461.5 528.5> 271 66<447 509.5> 328 64<129.5 193.5 129.5 196.5> 559 66<115 177.5>
LayerCount: 2
Fore
SplineSet
40 484 m 256
 40 573 101 645 190 645 c 256
 277 645 337 571 337 484 c 256
 337 404 281 325 190 325 c 256
 107 325 40 396 40 484 c 256
64 -1 m 257
 549 628 l 258
 553 634 557 636 572 636 c 256
 589 636 596 633 596 622 c 257
 115 0 l 258
 110 -7 94 -12 82 -12 c 256
 70 -12 65 -7 64 -1 c 257
104 496 m 256
 104 427 146 350 196 350 c 256
 254 350 271 418 271 476 c 256
 271 543 239 621 186 621 c 256
 127 621 104 555 104 496 c 256
328 152 m 256
 328 241 390 313 479 313 c 256
 566 313 625 239 625 152 c 256
 625 72 570 -7 478 -7 c 256
 395 -7 328 64 328 152 c 256
392 164 m 256
 392 95 435 18 485 18 c 256
 543 18 559 86 559 144 c 256
 559 211 528 289 475 289 c 256
 416 289 392 223 392 164 c 256
EndSplineSet
PickledDataWithLists: "(dp1
S'com.fontlab.hintData'
p2
(dp3
S'vhints'
p4
(lp5
(dp6
S'position'
p7
I40
sS'width'
p8
I64
sa(dp9
g7
I271
sg8
I66
sa(dp10
g7
I328
sg8
I64
sa(dp11
g7
I559
sg8
I66
sasS'hhints'
p12
(lp13
(dp14
g7
I-7
sg8
I25
sa(dp15
g7
I289
sg8
I24
sa(dp16
g7
I325
sg8
I25
sa(dp17
g7
I621
sg8
I24
sass."
EndChar

StartChar: ampersand
Encoding: 38 38 6
GlifName: ampersand
Width: 683
VWidth: 0
GlyphClass: 2
Flags: HW
HStem: 0 45<566 582.5> 289 23<464 464> 620 36<289 333>
VStem: 53 86<125 205 125 206> 161 73<518.5 557> 385 68<499 552.5>
LayerCount: 2
Fore
SplineSet
53 158 m 256
 53 254 135 307 219 350 c 257
 182 413 161 458 161 519 c 256
 161 595 224 656 308 656 c 256
 396 656 453 616 453 544 c 256
 453 454 380 400 304 353 c 257
 346 282 402 210 452 154 c 257
 489 210 509 261 509 271 c 256
 509 291 471 287 464 289 c 257
 461 295 461 308 465 312 c 257
 544 312 l 258
 579 312 608 315 654 317 c 257
 657 315 656 289 653 289 c 256
 636 289 595 279 584 272 c 256
 579 269 541 194 480 123 c 257
 525 76 554 45 578 45 c 256
 599 45 625 78 630 91 c 257
 641 91 653 80 653 73 c 257
 649 64 621 0 544 0 c 256
 485 0 429 72 429 72 c 257
 381 30 313 -3 247 -3 c 256
 130 -3 53 57 53 158 c 256
139 172 m 256
 139 78 208 40 281 40 c 256
 321 40 374 61 406 95 c 257
 347 156 287 239 242 314 c 257
 178 271 139 238 139 172 c 256
234 543 m 256
 234 494 254 443 286 385 c 257
 348 421 385 453 385 530 c 256
 385 575 358 620 308 620 c 256
 270 620 234 589 234 543 c 256
EndSplineSet
PickledDataWithLists: "(dp1
S'com.fontlab.hintData'
p2
(dp3
S'vhints'
p4
(lp5
(dp6
S'position'
p7
I53
sS'width'
p8
I86
sa(dp9
g7
I161
sg8
I73
sa(dp10
g7
I385
sg8
I68
sasS'hhints'
p11
(lp12
(dp13
g7
I0
sg8
I45
sa(dp14
g7
I289
sg8
I23
sa(dp15
g7
I620
sg8
I36
sass."
Substitution2: "smcpLowercasetoSmallCapitalslookup12 subtable" ampersand.sc
Substitution2: "c2scCapitalstoSmallCapitalslookup11 subtable" ampersand.sc
Substitution2: "smcpLowercasetoSmallCapitalslookup2 subtable" ampersand.sc
Substitution2: "c2scCapitalstoSmallCapitalsinLatinlookup0 subtable" ampersand.sc
EndChar

StartChar: quotesingle
Encoding: 39 39 7
GlifName: quotesingle
Width: 160
VWidth: 0
GlyphClass: 2
Flags: HW
HStem: 473 226<81.5 83>
VStem: 39 78<615 686>
LayerCount: 2
Fore
SplineSet
39 629 m 256
 39 657 59 699 91 699 c 256
 103 699 109 696 117 686 c 257
 117 657 109 544 103 492 c 257
 100 486 91 477 83 473 c 257
 80 473 76 475 74 479 c 256
 53 551 39 601 39 629 c 256
EndSplineSet
PickledDataWithLists: "(dp1
S'com.fontlab.hintData'
p2
(dp3
S'vhints'
p4
(lp5
(dp6
S'position'
p7
I39
sS'width'
p8
I78
sasS'hhints'
p9
(lp10
(dp11
g7
I473
sg8
I226
sass."
Substitution2: "smcpLowercasetoSmallCapitalslookup12 subtable" quotesingle.sc
Substitution2: "c2scCapitalstoSmallCapitalslookup11 subtable" quotesingle.sc
Substitution2: "smcpLowercasetoSmallCapitalslookup2 subtable" quotesingle.sc
Substitution2: "c2scCapitalstoSmallCapitalsinLatinlookup0 subtable" quotesingle.sc
EndChar

StartChar: parenleft
Encoding: 40 40 8
GlifName: parenleft
Width: 262
VWidth: 0
GlyphClass: 2
Flags: HW
VStem: 37 73<206.5 364 206.5 382.5>
LayerCount: 2
Fore
SplineSet
37 285 m 256
 37 480 120 627 237 719 c 257
 244 715 257 699 256 699 c 256
 162 616 110 443 110 285 c 256
 110 128 162 -47 256 -130 c 256
 257 -130 244 -146 237 -150 c 257
 120 -58 37 91 37 285 c 256
EndSplineSet
PickledDataWithLists: "(dp1
S'com.fontlab.hintData'
p2
(dp3
S'vhints'
p4
(lp5
(dp6
S'position'
p7
I37
sS'width'
p8
I73
sass."
Substitution2: "smcpLowercasetoSmallCapitalslookup12 subtable" parenleft.sc
Substitution2: "c2scCapitalstoSmallCapitalslookup11 subtable" parenleft.sc
Substitution2: "smcpLowercasetoSmallCapitalslookup2 subtable" parenleft.sc
Substitution2: "c2scCapitalstoSmallCapitalsinLatinlookup0 subtable" parenleft.sc
EndChar

StartChar: parenright
Encoding: 41 41 9
GlifName: parenright
Width: 262
VWidth: 0
GlyphClass: 2
Flags: HW
VStem: 152 73<206.5 364>
LayerCount: 2
Fore
SplineSet
6 -130 m 256
 100 -47 152 128 152 285 c 256
 152 443 100 616 6 699 c 256
 5 699 18 715 25 719 c 257
 142 627 225 480 225 285 c 256
 225 91 142 -58 25 -150 c 257
 18 -146 5 -130 6 -130 c 256
EndSplineSet
PickledDataWithLists: "(dp1
S'com.fontlab.hintData'
p2
(dp3
S'vhints'
p4
(lp5
(dp6
S'position'
p7
I152
sS'width'
p8
I73
sass."
Substitution2: "smcpLowercasetoSmallCapitalslookup12 subtable" parenright.sc
Substitution2: "c2scCapitalstoSmallCapitalslookup11 subtable" parenright.sc
Substitution2: "smcpLowercasetoSmallCapitalslookup2 subtable" parenright.sc
Substitution2: "c2scCapitalstoSmallCapitalsinLatinlookup0 subtable" parenright.sc
EndChar

StartChar: asterisk
Encoding: 42 42 10
GlifName: asterisk
Width: 443
VWidth: 0
GlyphClass: 2
Flags: HW
HStem: 383 86 432 68<74 85.4835> 466 48<227.419 240.5> 474 19<170.652 201> 644 20<143.5 159>
VStem: 122 65 167 68<343.616 347.5> 202 47<490 508.5> 209 20<442.409 453.5>
LayerCount: 2
Fore
SplineSet
35 463 m 256
 35 486 55 500 93 500 c 256
 111 500 126 499 142 496 c 256
 153 494 165 493 176 493 c 256
 186 493 202 495 202 507 c 256
 202 510 201 513 199 516 c 256
 191 529 182 541 171 552 c 256
 158 565 143 581 130 604 c 256
 124 614 122 623 122 633 c 256
 122 652 135 664 152 664 c 256
 166 664 179 654 187 637 c 256
 198 613 202 592 205 572 c 256
 207 556 210 541 218 525 c 256
 221 519 226 514 229 514 c 256
 234 514 237 516 241 520 c 256
 253 533 260 546 268 561 c 256
 284 593 309 633 339 633 c 256
 353 633 368 620 368 602 c 256
 368 571 329 550 298 534 c 256
 283 526 269 519 256 506 c 256
 253 503 249 498 249 493 c 256
 249 487 254 484 260 481 c 256
 273 475 286 472 304 469 c 256
 343 462 399 447 399 414 c 256
 399 401 388 383 365 383 c 256
 342 383 315 406 285 435 c 256
 274 445 263 455 250 462 c 256
 245 465 242 466 239 466 c 256
 231 466 229 458 229 449 c 256
 229 436 230 424 231 412 c 256
 233 397 235 378 235 360 c 256
 235 327 225 299 200 299 c 256
 179 299 167 315 167 335 c 256
 167 360 182 393 195 418 c 256
 201 430 209 451 209 460 c 256
 209 468 205 474 197 474 c 256
 188 474 166 465 152 458 c 256
 132 448 98 432 73 432 c 256
 52 432 35 442 35 463 c 256
EndSplineSet
PickledDataWithLists: "(dp1
S'com.fontlab.hintData'
p2
(dp3
S'vhints'
p4
(lp5
(dp6
S'position'
p7
I122
sS'width'
p8
I65
sa(dp9
g7
I167
sg8
I68
sa(dp10
g7
I202
sg8
I47
sa(dp11
g7
I209
sg8
I20
sasS'hhints'
p12
(lp13
(dp14
g7
I383
sg8
I86
sa(dp15
g7
I432
sg8
I68
sa(dp16
g7
I466
sg8
I48
sa(dp17
g7
I474
sg8
I19
sa(dp18
g7
I644
sg8
I20
sass."
EndChar

StartChar: plus
Encoding: 43 43 11
GlifName: plus
Width: 542
VWidth: 0
GlyphClass: 2
Flags: HW
HStem: 218 56<46 242 46 242 37 242 298 495>
VStem: 242 56<16 218 16 218 16 218 274 474 474 474>
LayerCount: 2
Fore
SplineSet
31 228 m 256
 31 232 36 266 46 274 c 257
 242 274 l 257
 242 474 l 257
 258 480 278 485 285 485 c 256
 295 485 298 479 298 479 c 257
 298 274 l 257
 502 274 l 258
 506 274 511 270 511 262 c 256
 511 246 503 226 495 218 c 257
 298 218 l 257
 298 16 l 257
 286 7 265 5 255 5 c 256
 248 5 242 10 242 14 c 258
 242 218 l 257
 37 218 l 257
 37 218 31 218 31 228 c 256
EndSplineSet
PickledDataWithLists: "(dp1
S'com.fontlab.hintData'
p2
(dp3
S'vhints'
p4
(lp5
(dp6
S'position'
p7
I242
sS'width'
p8
I56
sasS'hhints'
p9
(lp10
(dp11
g7
I218
sg8
I56
sass."
EndChar

StartChar: comma
Encoding: 44 44 12
GlifName: comma
Width: 201
VWidth: 0
GlyphClass: 2
Flags: HW
HStem: -139 262<28.5 110>
VStem: 80 70<-39 65>
LayerCount: 2
Fore
SplineSet
17 -118 m 257
 37 -103 80 -71 80 -7 c 256
 80 26 47 35 47 74 c 256
 47 95 70 123 106 123 c 256
 114 123 125 120 132 116 c 257
 139 104 150 84 150 46 c 256
 150 -11 83 -111 32 -139 c 257
 25 -139 17 -124 17 -118 c 257
EndSplineSet
PickledDataWithLists: "(dp1
S'com.fontlab.hintData'
p2
(dp3
S'vhints'
p4
(lp5
(dp6
S'position'
p7
I80
sS'width'
p8
I70
sasS'hhints'
p9
(lp10
(dp11
g7
I-139
sg8
I262
sass."
Substitution2: "smcpLowercasetoSmallCapitalslookup12 subtable" comma.sc
Substitution2: "c2scCapitalstoSmallCapitalslookup11 subtable" comma.sc
Substitution2: "smcpLowercasetoSmallCapitalslookup2 subtable" comma.sc
Substitution2: "c2scCapitalstoSmallCapitalsinLatinlookup0 subtable" comma.sc
EndChar

StartChar: hyphen
Encoding: 45 45 13
GlifName: hyphen
Width: 377
VWidth: 0
GlyphClass: 2
Flags: HW
HStem: 210 63<306 314>
VStem: 58 261<205.5 268>
LayerCount: 2
Fore
SplineSet
58 210 m 256
 58 229 64 246 71 261 c 257
 71 261 279 272 312 273 c 256
 316 273 319 272 319 264 c 256
 319 247 314 227 306 210 c 257
 65 199 l 258
 60 199 58 201 58 210 c 256
EndSplineSet
PickledDataWithLists: "(dp1
S'com.fontlab.hintData'
p2
(dp3
S'vhints'
p4
(lp5
(dp6
S'position'
p7
I58
sS'width'
p8
I261
sasS'hhints'
p9
(lp10
(dp11
g7
I210
sg8
I63
sass."
EndChar

StartChar: slash
Encoding: 47 47 14
GlifName: slash
Width: 413
VWidth: 0
GlyphClass: 2
Flags: HW
LayerCount: 2
Fore
SplineSet
30 -28 m 257
 329 746 l 258
 330 749 345 761 369 761 c 256
 377 761 381 755 382 752 c 257
 87 -12 l 258
 84 -19 71 -35 48 -35 c 256
 33 -35 30 -28 30 -28 c 257
EndSplineSet
Substitution2: "smcpLowercasetoSmallCapitalslookup12 subtable" slash.sc
Substitution2: "c2scCapitalstoSmallCapitalslookup11 subtable" slash.sc
Substitution2: "smcpLowercasetoSmallCapitalslookup2 subtable" slash.sc
Substitution2: "c2scCapitalstoSmallCapitalsinLatinlookup0 subtable" slash.sc
EndChar

StartChar: zero
Encoding: 48 48 15
GlifName: zero
Width: 497
VWidth: 0
GlyphClass: 2
Flags: HW
HStem: -3 37<207 288.5 207 317> 604 37<212 291>
VStem: 30 88<241.5 398.5 241.5 406> 378 88<246.5 403.5>
LayerCount: 2
Fore
SplineSet
30 319 m 256
 30 493 110 641 248 641 c 256
 388 641 466 493 466 319 c 256
 466 145 386 -3 248 -3 c 256
 112 -3 30 145 30 319 c 256
118 320 m 256
 118 163 170 34 244 34 c 256
 333 34 378 168 378 325 c 256
 378 482 328 604 254 604 c 256
 170 604 118 477 118 320 c 256
EndSplineSet
PickledDataWithLists: "(dp1
S'com.fontlab.hintData'
p2
(dp3
S'vhints'
p4
(lp5
(dp6
S'position'
p7
I30
sS'width'
p8
I88
sa(dp9
g7
I378
sg8
I88
sasS'hhints'
p10
(lp11
(dp12
g7
I-3
sg8
I37
sa(dp13
g7
I604
sg8
I37
sass."
Substitution2: "ordnOrdinalslookup16 subtable" zero.ordn
Substitution2: "onumOldstyleFigureslookup15 subtable" zero.onum
Substitution2: "zeroSlashedZerolookup14 subtable" zero.slash
Substitution2: "pnumProportionalNumberslookup13 subtable" zero.prop
Substitution2: "ordnOrdinalslookup0 subtable" zero.ordn
Substitution2: "onumOldstyleFigureslookup3 subtable" zero.onum
Substitution2: "zeroSlashedZerolookup11 subtable" zero.slash
Substitution2: "pnumProportionalNumberslookup12 subtable" zero.prop
EndChar

StartChar: one
Encoding: 49 49 16
GlifName: one
Width: 497
VWidth: 0
GlyphClass: 2
Flags: HW
HStem: -3 29<153 153 371 371> 622 20<298 300 300 303>
VStem: 223 79<116 520 520 529>
LayerCount: 2
Fore
SplineSet
223 116 m 258
 223 520 l 258
 223 549 216 558 202 558 c 256
 187 558 148 544 132 538 c 257
 127 542 122 548 122 555 c 256
 122 557 121 560 124 561 c 256
 206 598 295 642 298 642 c 258
 300 642 l 258
 306 642 309 631 310 626 c 257
 310 626 302 590 302 529 c 258
 302 116 l 258
 302 86 302 58 307 42 c 256
 310 31 359 26 371 26 c 257
 375 21 376 2 371 -3 c 257
 330 -1 299 2 260 2 c 256
 221 2 194 -1 153 -3 c 257
 148 2 149 21 153 26 c 257
 165 26 214 31 217 42 c 256
 222 58 223 86 223 116 c 258
EndSplineSet
PickledDataWithLists: "(dp1
S'com.fontlab.hintData'
p2
(dp3
S'vhints'
p4
(lp5
(dp6
S'position'
p7
I223
sS'width'
p8
I79
sasS'hhints'
p9
(lp10
(dp11
g7
I-3
sg8
I29
sa(dp12
g7
I622
sg8
I20
sass."
Substitution2: "ordnOrdinalslookup16 subtable" one.ordn
Substitution2: "onumOldstyleFigureslookup15 subtable" one.onum
Substitution2: "pnumProportionalNumberslookup13 subtable" one.prop
Substitution2: "ordnOrdinalslookup0 subtable" one.ordn
Substitution2: "onumOldstyleFigureslookup3 subtable" one.onum
Substitution2: "pnumProportionalNumberslookup12 subtable" one.prop
EndChar

StartChar: two
Encoding: 50 50 17
GlifName: two
Width: 497
VWidth: 0
GlyphClass: 2
Flags: HW
HStem: 0 73<140 338 338 358 140 400> 577 65<189.5 252>
VStem: 58 19 330 85<446.5 490.5>
LayerCount: 2
Fore
SplineSet
44 14 m 257
 128 107 224 221 282 306 c 256
 323 366 330 407 330 456 c 256
 330 525 284 577 220 577 c 256
 140 577 89 511 77 491 c 257
 69 491 58 503 58 507 c 257
 65 532 137 642 242 642 c 256
 338 642 415 560 415 475 c 256
 415 418 393 367 358 324 c 256
 287 237 185 123 140 73 c 257
 338 73 l 258
 378 73 401 98 422 150 c 256
 424 155 428 156 434 156 c 256
 438 156 450 153 454 150 c 257
 434 101 406 18 400 0 c 257
 400 0 61 0 54 0 c 257
 50 2 44 10 44 14 c 257
EndSplineSet
PickledDataWithLists: "(dp1
S'com.fontlab.hintData'
p2
(dp3
S'vhints'
p4
(lp5
(dp6
S'position'
p7
I58
sS'width'
p8
I19
sa(dp9
g7
I330
sg8
I85
sasS'hhints'
p10
(lp11
(dp12
g7
I0
sg8
I73
sa(dp13
g7
I577
sg8
I65
sass."
Substitution2: "ordnOrdinalslookup16 subtable" two.ordn
Substitution2: "onumOldstyleFigureslookup15 subtable" two.onum
Substitution2: "pnumProportionalNumberslookup13 subtable" two.prop
Substitution2: "ordnOrdinalslookup0 subtable" two.ordn
Substitution2: "onumOldstyleFigureslookup3 subtable" two.onum
Substitution2: "pnumProportionalNumberslookup12 subtable" two.prop
EndChar

StartChar: three
Encoding: 51 51 18
GlifName: three
Width: 497
VWidth: 0
GlyphClass: 2
Flags: HW
HStem: -5 40<218.5 244.5> 318 30 589 53<219 244.5>
VStem: 314 75<481.5 522.5> 350 86<149.5 230.5>
LayerCount: 2
Fore
SplineSet
60 56 m 256
 60 85 80 104 102 104 c 256
 130 104 142 76 158 60 c 256
 177 41 205 35 232 35 c 256
 285 35 350 75 350 190 c 256
 350 271 288 331 222 331 c 256
 201 331 174 321 162 318 c 257
 158 323 156 330 156 338 c 256
 156 342 156 345 158 348 c 257
 238 366 314 410 314 496 c 256
 314 549 273 589 216 589 c 256
 153 589 113 530 104 523 c 257
 98 523 92 536 92 545 c 257
 123 591 180 642 258 642 c 256
 309 642 389 596 389 514 c 256
 389 449 331 400 296 379 c 257
 353 371 436 316 436 218 c 256
 436 81 307 -5 182 -5 c 256
 155 -5 112 2 80 18 c 256
 74 22 60 40 60 56 c 256
EndSplineSet
PickledDataWithLists: "(dp1
S'com.fontlab.hintData'
p2
(dp3
S'vhints'
p4
(lp5
(dp6
S'position'
p7
I314
sS'width'
p8
I75
sa(dp9
g7
I350
sg8
I86
sasS'hhints'
p10
(lp11
(dp12
g7
I-5
sg8
I40
sa(dp13
g7
I318
sg8
I30
sa(dp14
g7
I589
sg8
I53
sass."
Substitution2: "ordnOrdinalslookup16 subtable" three.ordn
Substitution2: "onumOldstyleFigureslookup15 subtable" three.onum
Substitution2: "pnumProportionalNumberslookup13 subtable" three.prop
Substitution2: "ordnOrdinalslookup0 subtable" three.ordn
Substitution2: "onumOldstyleFigureslookup3 subtable" three.onum
Substitution2: "pnumProportionalNumberslookup12 subtable" three.prop
EndChar

StartChar: four
Encoding: 52 52 19
GlifName: four
Width: 497
VWidth: 0
GlyphClass: 2
Flags: HW
HStem: -6 21<342 373.5> 174 57<94 318 94 318 397 456 456 459> 624 20<378 387>
VStem: 318 79<2 174 -1 174 231 524 524 524>
LayerCount: 2
Fore
SplineSet
26 193 m 257
 352 619 l 258
 358 627 374 644 382 644 c 256
 392 644 397 634 397 626 c 258
 397 231 l 257
 456 231 l 258
 462 231 470 211 470 190 c 256
 470 181 468 177 466 174 c 257
 397 174 l 257
 397 -1 l 257
 397 -1 393 -6 354 -6 c 256
 330 -6 318 -5 318 2 c 258
 318 174 l 257
 36 174 l 257
 29 178 26 187 26 193 c 257
94 231 m 257
 318 231 l 257
 318 524 l 257
 94 231 l 257
EndSplineSet
PickledDataWithLists: "(dp1
S'com.fontlab.hintData'
p2
(dp3
S'vhints'
p4
(lp5
(dp6
S'position'
p7
I318
sS'width'
p8
I79
sasS'hhints'
p9
(lp10
(dp11
g7
I-6
sg8
I21
sa(dp12
g7
I174
sg8
I57
sa(dp13
g7
I624
sg8
I20
sass."
Substitution2: "ordnOrdinalslookup16 subtable" four.ordn
Substitution2: "onumOldstyleFigureslookup15 subtable" four.onum
Substitution2: "pnumProportionalNumberslookup13 subtable" four.prop
Substitution2: "ordnOrdinalslookup0 subtable" four.ordn
Substitution2: "onumOldstyleFigureslookup3 subtable" four.onum
Substitution2: "pnumProportionalNumberslookup12 subtable" four.prop
EndChar

StartChar: five
Encoding: 53 53 20
GlifName: five
Width: 497
VWidth: 0
GlyphClass: 2
Flags: HW
HStem: -5 40<218.5 244.5> 339 56<234.5 248> 556 79<178 262 178 178> 624 20<396 396>
VStem: 350 86<149.5 221>
LayerCount: 2
Fore
SplineSet
60 56 m 256
 60 85 80 104 102 104 c 256
 130 104 142 76 158 60 c 256
 177 41 205 35 232 35 c 256
 285 35 350 74 350 190 c 256
 350 252 306 339 190 339 c 256
 169 339 122 332 106 324 c 257
 102 324 98 331 98 338 c 257
 120 450 145 574 156 635 c 257
 304 635 l 258
 345 635 396 644 396 644 c 257
 402 640 408 638 408 633 c 256
 408 627 396 583 378 562 c 257
 350 559 314 556 262 556 c 258
 178 556 l 257
 166 496 154 432 142 376 c 257
 170 387 221 395 248 395 c 256
 366 395 436 303 436 218 c 256
 436 81 307 -5 182 -5 c 256
 155 -5 112 2 80 18 c 256
 74 22 60 40 60 56 c 256
EndSplineSet
PickledDataWithLists: "(dp1
S'com.fontlab.hintData'
p2
(dp3
S'vhints'
p4
(lp5
(dp6
S'position'
p7
I350
sS'width'
p8
I86
sasS'hhints'
p9
(lp10
(dp11
g7
I-5
sg8
I40
sa(dp12
g7
I339
sg8
I56
sa(dp13
g7
I556
sg8
I79
sa(dp14
g7
I624
sg8
I20
sass."
Substitution2: "ordnOrdinalslookup16 subtable" five.ordn
Substitution2: "onumOldstyleFigureslookup15 subtable" five.onum
Substitution2: "pnumProportionalNumberslookup13 subtable" five.prop
Substitution2: "ordnOrdinalslookup0 subtable" five.ordn
Substitution2: "onumOldstyleFigureslookup3 subtable" five.onum
Substitution2: "pnumProportionalNumberslookup12 subtable" five.prop
EndChar

StartChar: six
Encoding: 54 54 21
GlifName: six
Width: 497
VWidth: 0
GlyphClass: 2
Flags: HW
HStem: -6 33<213 284.5 213 302> 346 49<248 282> 618 29
VStem: 49 86<193 250 193 271> 363 85<147 226.5>
LayerCount: 2
Fore
SplineSet
49 220 m 256
 49 322 82 416 145 485 c 256
 216 563 329 625 413 647 c 257
 422 647 425 624 425 618 c 257
 341 591 192 527 147 350 c 257
 182 379 231 395 265 395 c 256
 405 395 448 275 448 203 c 256
 448 91 359 -6 245 -6 c 256
 124 -6 49 112 49 220 c 256
135 238 m 256
 135 148 173 27 253 27 c 256
 316 27 363 94 363 184 c 256
 363 269 327 346 237 346 c 256
 208 346 172 342 139 306 c 257
 136 285 135 262 135 238 c 256
EndSplineSet
PickledDataWithLists: "(dp1
S'com.fontlab.hintData'
p2
(dp3
S'vhints'
p4
(lp5
(dp6
S'position'
p7
I49
sS'width'
p8
I86
sa(dp9
g7
I363
sg8
I85
sasS'hhints'
p10
(lp11
(dp12
g7
I-6
sg8
I33
sa(dp13
g7
I346
sg8
I49
sa(dp14
g7
I618
sg8
I29
sass."
Substitution2: "ordnOrdinalslookup16 subtable" six.ordn
Substitution2: "onumOldstyleFigureslookup15 subtable" six.onum
Substitution2: "pnumProportionalNumberslookup13 subtable" six.prop
Substitution2: "ordnOrdinalslookup0 subtable" six.ordn
Substitution2: "onumOldstyleFigureslookup3 subtable" six.onum
Substitution2: "pnumProportionalNumberslookup12 subtable" six.prop
EndChar

StartChar: seven
Encoding: 55 55 22
GlifName: seven
Width: 497
VWidth: 0
GlyphClass: 2
Flags: HW
HStem: -5 21<148.5 158.5> 560 73<122 142 142 384 384 396 80 430>
LayerCount: 2
Fore
SplineSet
38 483 m 257
 55 537 73 601 80 633 c 257
 384 633 l 258
 410 633 446 636 452 636 c 256
 458 636 458 632 458 627 c 256
 458 614 443 588 430 560 c 258
 166 -2 l 258
 164 -4 161 -5 156 -5 c 256
 141 -5 112 4 112 13 c 257
 215 169 396 560 396 560 c 257
 142 560 l 258
 102 560 85 536 70 483 c 256
 69 478 64 477 58 477 c 256
 54 477 42 480 38 483 c 257
EndSplineSet
PickledDataWithLists: "(dp1
S'com.fontlab.hintData'
p2
(dp3
S'hhints'
p4
(lp5
(dp6
S'position'
p7
I-5
sS'width'
p8
I21
sa(dp9
g7
I560
sg8
I73
sass."
Substitution2: "ordnOrdinalslookup16 subtable" seven.ordn
Substitution2: "onumOldstyleFigureslookup15 subtable" seven.onum
Substitution2: "pnumProportionalNumberslookup13 subtable" seven.prop
Substitution2: "ordnOrdinalslookup0 subtable" seven.ordn
Substitution2: "onumOldstyleFigureslookup3 subtable" seven.onum
Substitution2: "pnumProportionalNumberslookup12 subtable" seven.prop
EndChar

StartChar: eight
Encoding: 56 56 23
GlifName: eight
Width: 497
VWidth: 0
GlyphClass: 2
Flags: HW
HStem: -9 36<221.5 281 221.5 296> 608 35<224 278>
VStem: 60 79<116 189 116 198> 88 74<459.5 522.5> 346 72<458.5 515> 356 81<117 179.5>
LayerCount: 2
Fore
SplineSet
60 154 m 256
 60 242 151 293 190 318 c 256
 193 320 192 323 190 324 c 256
 148 349 88 406 88 480 c 256
 88 565 166 643 254 643 c 256
 343 643 418 589 418 496 c 256
 418 418 352 373 306 344 c 257
 302 343 303 340 306 338 c 256
 366 304 437 239 437 167 c 256
 437 67 346 -9 246 -9 c 256
 136 -9 60 57 60 154 c 256
139 157 m 256
 139 75 195 27 248 27 c 256
 314 27 356 70 356 138 c 256
 356 221 242 287 228 295 c 256
 226 296 225 297 222 297 c 256
 221 297 219 297 218 296 c 256
 163 261 139 221 139 157 c 256
162 498 m 256
 162 421 228 386 266 364 c 256
 268 363 270 362 272 362 c 256
 274 362 275 362 278 364 c 256
 319 391 346 431 346 486 c 256
 346 544 308 608 248 608 c 256
 200 608 162 558 162 498 c 256
EndSplineSet
PickledDataWithLists: "(dp1
S'com.fontlab.hintData'
p2
(dp3
S'vhints'
p4
(lp5
(dp6
S'position'
p7
I60
sS'width'
p8
I79
sa(dp9
g7
I88
sg8
I74
sa(dp10
g7
I346
sg8
I72
sa(dp11
g7
I356
sg8
I81
sasS'hhints'
p12
(lp13
(dp14
g7
I-9
sg8
I36
sa(dp15
g7
I608
sg8
I35
sass."
Substitution2: "ordnOrdinalslookup16 subtable" eight.ordn
Substitution2: "onumOldstyleFigureslookup15 subtable" eight.onum
Substitution2: "pnumProportionalNumberslookup13 subtable" eight.prop
Substitution2: "ordnOrdinalslookup0 subtable" eight.ordn
Substitution2: "onumOldstyleFigureslookup3 subtable" eight.onum
Substitution2: "pnumProportionalNumberslookup12 subtable" eight.prop
EndChar

StartChar: nine
Encoding: 57 57 24
GlifName: nine
Width: 497
VWidth: 0
GlyphClass: 2
Flags: HW
HStem: -6 29 246 49<215 249> 614 33<212.5 284>
VStem: 50 85<414.5 494> 362 86<391 448>
LayerCount: 2
Fore
SplineSet
50 438 m 256
 50 550 138 647 252 647 c 256
 373 647 448 529 448 421 c 256
 448 319 415 225 352 156 c 256
 281 78 168 16 84 -6 c 257
 75 -6 72 17 72 23 c 257
 156 50 305 114 350 291 c 257
 315 262 266 246 232 246 c 256
 92 246 50 366 50 438 c 256
135 457 m 256
 135 372 170 295 260 295 c 256
 289 295 325 299 358 335 c 257
 361 356 362 379 362 403 c 256
 362 493 324 614 244 614 c 256
 181 614 135 547 135 457 c 256
EndSplineSet
PickledDataWithLists: "(dp1
S'com.fontlab.hintData'
p2
(dp3
S'vhints'
p4
(lp5
(dp6
S'position'
p7
I50
sS'width'
p8
I85
sa(dp9
g7
I362
sg8
I86
sasS'hhints'
p10
(lp11
(dp12
g7
I-6
sg8
I29
sa(dp13
g7
I246
sg8
I49
sa(dp14
g7
I614
sg8
I33
sass."
Substitution2: "ordnOrdinalslookup16 subtable" nine.ordn
Substitution2: "onumOldstyleFigureslookup15 subtable" nine.onum
Substitution2: "pnumProportionalNumberslookup13 subtable" nine.prop
Substitution2: "onumOldstyleFigureslookup3 subtable" nine.onum
Substitution2: "pnumProportionalNumberslookup12 subtable" nine.prop
EndChar

StartChar: less
Encoding: 60 60 27
GlifName: less
Width: 492
VWidth: 0
GlyphClass: 2
Flags: HW
HStem: 410 20<421.5 423.5>
LayerCount: 2
Fore
SplineSet
30 217 m 256
 30 228 38 236 48 241 c 258
 417 428 l 258
 419 429 421 430 422 430 c 256
 425 430 432 420 439 383 c 256
 440 377 436 374 436 374 c 257
 110 209 l 257
 441 41 l 257
 441 41 444 40 444 35 c 256
 444 28 434 -15 428 -15 c 256
 427 -15 425 -14 423 -13 c 258
 48 177 l 258
 33 185 30 200 30 217 c 256
EndSplineSet
PickledDataWithLists: "(dp1
S'com.fontlab.hintData'
p2
(dp3
S'hhints'
p4
(lp5
(dp6
S'position'
p7
I410
sS'width'
p8
I20
sass."
Substitution2: "smcpLowercasetoSmallCapitalslookup12 subtable" less.sc
Substitution2: "c2scCapitalstoSmallCapitalslookup11 subtable" less.sc
Substitution2: "smcpLowercasetoSmallCapitalslookup2 subtable" less.sc
Substitution2: "c2scCapitalstoSmallCapitalsinLatinlookup0 subtable" less.sc
EndChar

StartChar: equal
Encoding: 61 61 28
GlifName: equal
Width: 565
VWidth: 0
GlyphClass: 2
Flags: HW
HStem: 120 55<67 492 89 479> 264 55<67 492 89 479>
LayerCount: 2
Fore
SplineSet
73 120 m 258
 61 120 75 170 89 175 c 257
 492 175 l 258
 506 175 493 127 479 120 c 257
 73 120 l 258
73 264 m 258
 61 264 75 314 89 319 c 257
 492 319 l 258
 506 319 493 271 479 264 c 257
 73 264 l 258
EndSplineSet
PickledDataWithLists: "(dp1
S'com.fontlab.hintData'
p2
(dp3
S'hhints'
p4
(lp5
(dp6
S'position'
p7
I120
sS'width'
p8
I55
sa(dp9
g7
I264
sg8
I55
sass."
Substitution2: "smcpLowercasetoSmallCapitalslookup12 subtable" equal.sc
Substitution2: "c2scCapitalstoSmallCapitalslookup11 subtable" equal.sc
Substitution2: "smcpLowercasetoSmallCapitalslookup2 subtable" equal.sc
Substitution2: "c2scCapitalstoSmallCapitalsinLatinlookup0 subtable" equal.sc
EndChar

StartChar: greater
Encoding: 62 62 29
GlifName: greater
Width: 493
VWidth: 0
GlyphClass: 2
Flags: HW
HStem: 410 20<68 70.5>
LayerCount: 2
Fore
SplineSet
48 35 m 256
 48 39 51 41 51 41 c 257
 382 209 l 257
 57 374 l 257
 57 374 54 375 54 382 c 256
 54 400 66 430 70 430 c 256
 71 430 73 429 75 428 c 258
 445 241 l 258
 455 236 462 228 462 217 c 256
 462 200 460 185 445 177 c 258
 70 -13 l 258
 68 -14 66 -15 65 -15 c 256
 59 -15 48 27 48 35 c 256
EndSplineSet
PickledDataWithLists: "(dp1
S'com.fontlab.hintData'
p2
(dp3
S'hhints'
p4
(lp5
(dp6
S'position'
p7
I410
sS'width'
p8
I20
sass."
Substitution2: "smcpLowercasetoSmallCapitalslookup12 subtable" greater.sc
Substitution2: "c2scCapitalstoSmallCapitalslookup11 subtable" greater.sc
Substitution2: "smcpLowercasetoSmallCapitalslookup2 subtable" greater.sc
Substitution2: "c2scCapitalstoSmallCapitalsinLatinlookup0 subtable" greater.sc
EndChar

StartChar: question
Encoding: 63 63 30
GlifName: question
Width: 356
VWidth: 0
GlyphClass: 2
Flags: HW
HStem: -11 110 569 73<102.5 205>
VStem: 63 110 96 29 260 50<463 513>
LayerCount: 2
Fore
SplineSet
56 598 m 256
 56 613 60 628 65 635 c 257
 75 640 92 642 113 642 c 256
 179 642 310 574 310 457 c 256
 310 393 285 348 222 312 c 256
 191 294 140 258 131 242 c 256
 121 225 125 195 125 172 c 257
 121 164 118 160 109 159 c 257
 104 161 99 164 96 170 c 257
 91 191 88 234 88 261 c 256
 88 335 136 361 173 385 c 256
 222 416 260 439 260 487 c 256
 260 539 224 569 186 569 c 256
 133 569 126 548 100 548 c 256
 86 548 56 565 56 598 c 256
EndSplineSet
Refer: 1397 46 N 1 0 0 1 15 0 2
PickledDataWithLists: "(dp1
S'com.fontlab.hintData'
p2
(dp3
S'vhints'
p4
(lp5
(dp6
S'position'
p7
I63
sS'width'
p8
I110
sa(dp9
g7
I96
sg8
I29
sa(dp10
g7
I260
sg8
I50
sasS'hhints'
p11
(lp12
(dp13
g7
I-11
sg8
I110
sa(dp14
g7
I569
sg8
I73
sass."
Substitution2: "smcpLowercasetoSmallCapitalslookup12 subtable" question.sc
Substitution2: "c2scCapitalstoSmallCapitalslookup11 subtable" question.sc
Substitution2: "smcpLowercasetoSmallCapitalslookup2 subtable" question.sc
Substitution2: "c2scCapitalstoSmallCapitalsinLatinlookup0 subtable" question.sc
EndChar

StartChar: at
Encoding: 64 64 31
GlifName: at
Width: 748
VWidth: 0
GlyphClass: 2
Flags: HW
HStem: -124 18 -7 43<523.5 564.5> -5 58<301.5 318> 389 46<411.5 444.5> 538 40<316 505>
VStem: 49 40<111.5 257 111.5 268> 194 74<120 203> 423 66<65 83.5 65 85> 672 40<204.5 334.5>
LayerCount: 2
Fore
SplineSet
49 170 m 256
 49 366 186 578 418 578 c 256
 614 578 712 426 712 270 c 256
 712 117 623 -7 506 -7 c 256
 457 -7 423 18 423 79 c 256
 423 91 427 117 430 125 c 257
 411 88 347 -5 289 -5 c 256
 227 -5 194 60 194 130 c 256
 194 276 343 435 480 435 c 256
 515 435 534 429 553 422 c 257
 492 106 l 258
 491 102 489 86 489 81 c 256
 489 49 510 36 537 36 c 256
 600 36 672 142 672 267 c 256
 672 402 592 538 418 538 c 256
 214 538 89 344 89 170 c 256
 89 53 150 -36 222 -78 c 256
 258 -99 278 -103 297 -106 c 257
 297 -114 273 -124 261 -124 c 256
 249 -124 235 -123 222 -118 c 256
 130 -84 49 29 49 170 c 256
268 151 m 256
 268 89 284 53 319 53 c 256
 369 53 440 178 459 274 c 258
 479 376 l 257
 470 386 451 389 438 389 c 256
 361 389 268 266 268 151 c 256
EndSplineSet
PickledDataWithLists: "(dp1
S'com.fontlab.hintData'
p2
(dp3
S'vhints'
p4
(lp5
(dp6
S'position'
p7
I49
sS'width'
p8
I40
sa(dp9
g7
I194
sg8
I74
sa(dp10
g7
I423
sg8
I66
sa(dp11
g7
I672
sg8
I40
sasS'hhints'
p12
(lp13
(dp14
g7
I-124
sg8
I18
sa(dp15
g7
I-7
sg8
I43
sa(dp16
g7
I-5
sg8
I58
sa(dp17
g7
I389
sg8
I46
sa(dp18
g7
I538
sg8
I40
sass."
Substitution2: "smcpLowercasetoSmallCapitalslookup12 subtable" at.sc
Substitution2: "c2scCapitalstoSmallCapitalslookup11 subtable" at.sc
Substitution2: "smcpLowercasetoSmallCapitalslookup2 subtable" at.sc
Substitution2: "c2scCapitalstoSmallCapitalsinLatinlookup0 subtable" at.sc
EndChar

StartChar: A
Encoding: 65 65 32
GlifName: A_
Width: 627
VWidth: 0
GlyphClass: 2
Flags: HW
HStem: -3 29<405 405 4.29497e+09 4.29497e+09> 253 39<280.5 305.5> 643 20<321.5 327.5>
LayerCount: 2
Fore
SplineSet
-12 -3 m 257
 -15 0 -15 19 -12 26 c 257
 0 26 38 32 48 45 c 256
 68 71 81 103 95 139 c 258
 95 139 227 478 288 634 c 257
 293 644 317 663 326 663 c 256
 329 663 329 661 332 660 c 257
 536 126 l 258
 550 89 559 64 561 60 c 256
 571 36 621 26 629 26 c 257
 634 19 632 0 631 -3 c 257
 591 -1 565 2 521 2 c 256
 475 2 451 -1 405 -3 c 257
 400 2 401 21 406 26 c 257
 418 26 453 31 462 39 c 256
 465 42 466 47 466 53 c 256
 466 83 398 248 398 248 c 257
 398 248 395 252 392 252 c 256
 366 254 318 253 293 253 c 256
 252 253 230 253 185 250 c 256
 183 250 180 247 180 247 c 257
 180 247 152 173 135 125 c 256
 123 90 121 67 121 54 c 256
 121 30 182 26 190 26 c 257
 193 23 194 3 192 -3 c 257
 152 -1 139 2 95 2 c 256
 49 2 34 -1 -12 -3 c 257
199 298 m 257
 199 298 199 294 201 294 c 256
 227 293 269 292 292 292 c 256
 323 292 345 293 376 295 c 256
 378 295 379 300 379 300 c 257
 291 542 l 257
 199 298 l 257
EndSplineSet
PickledDataWithLists: "(dp1
S'com.fontlab.hintData'
p2
(dp3
S'hhints'
p4
(lp5
(dp6
S'position'
p7
I-3
sS'width'
p8
I29
sa(dp9
g7
I253
sg8
I39
sa(dp10
g7
I643
sg8
I20
sass."
Substitution2: "c2scCapitalstoSmallCapitalslookup11 subtable" a.sc
Substitution2: "c2scCapitalstoSmallCapitalsinLatinlookup0 subtable" a.sc
EndChar

StartChar: B
Encoding: 66 66 33
GlifName: B_
Width: 596
VWidth: 0
GlyphClass: 2
Flags: HW
HStem: -3 29<45 51 45 51 45 275> 332 38<206 267 206 290> 627 32<275.5 307.5>
VStem: 119 87<116 332 370 542> 415 91<471.5 531.5> 453 99<170.5 213.5>
LayerCount: 2
Fore
SplineSet
45 -3 m 257
 40 2 41 21 45 26 c 257
 57 26 111 31 114 42 c 256
 119 58 119 86 119 116 c 258
 119 543 l 258
 119 573 119 601 114 617 c 256
 111 628 57 633 45 633 c 257
 41 638 40 657 45 662 c 257
 86 660 124 657 163 657 c 256
 202 657 246 659 305 659 c 256
 396 659 506 624 506 510 c 256
 506 433 440 378 405 365 c 256
 403 364 402 362 405 360 c 257
 454 358 552 298 552 199 c 256
 552 142 534 92 485 51 c 256
 437 11 352 -2 275 -3 c 257
 45 -3 l 257
206 115 m 258
 206 101 208 54 215 47 c 256
 230 31 257 29 294 29 c 256
 369 29 453 54 453 176 c 256
 453 251 421 332 267 332 c 258
 206 332 l 257
 206 115 l 258
206 370 m 257
 290 370 l 258
 380 370 415 430 415 487 c 256
 415 576 354 627 261 627 c 256
 249 627 215 626 211 617 c 256
 206 605 206 572 206 542 c 258
 206 370 l 257
EndSplineSet
PickledDataWithLists: "(dp1
S'com.fontlab.hintData'
p2
(dp3
S'vhints'
p4
(lp5
(dp6
S'position'
p7
I119
sS'width'
p8
I87
sa(dp9
g7
I415
sg8
I91
sa(dp10
g7
I453
sg8
I99
sasS'hhints'
p11
(lp12
(dp13
g7
I-3
sg8
I29
sa(dp14
g7
I332
sg8
I38
sa(dp15
g7
I627
sg8
I32
sass."
Substitution2: "c2scCapitalstoSmallCapitalslookup11 subtable" b.sc
Substitution2: "c2scCapitalstoSmallCapitalsinLatinlookup0 subtable" b.sc
EndChar

StartChar: C
Encoding: 67 67 34
GlifName: C_
Width: 674
VWidth: 0
GlyphClass: 2
Flags: HW
HStem: -6 33<320 428> 634 33<317 419 287.5 474.5>
VStem: 48 99<265 413 265 415.5> 587 34 600 32
LayerCount: 2
Fore
SplineSet
48 322 m 256
 48 509 189 667 386 667 c 256
 452 667 524 662 598 646 c 257
 598 646 621 508 621 498 c 257
 622 492 609 485 599 485 c 256
 593 485 590 486 587 488 c 257
 581 519 558 634 391 634 c 256
 243 634 147 483 147 343 c 256
 147 187 233 27 407 27 c 256
 468 27 510 49 539 75 c 256
 578 110 593 158 600 191 c 257
 610 192 623 189 632 183 c 257
 632 163 611 51 597 39 c 257
 542 8 474 -6 382 -6 c 256
 184 -6 48 145 48 322 c 256
EndSplineSet
PickledDataWithLists: "(dp1
S'com.fontlab.hintData'
p2
(dp3
S'vhints'
p4
(lp5
(dp6
S'position'
p7
I48
sS'width'
p8
I99
sa(dp9
g7
I587
sg8
I34
sa(dp10
g7
I600
sg8
I32
sasS'hhints'
p11
(lp12
(dp13
g7
I-6
sg8
I33
sa(dp14
g7
I634
sg8
I33
sass."
Substitution2: "c2scCapitalstoSmallCapitalslookup11 subtable" c.sc
Substitution2: "c2scCapitalstoSmallCapitalsinLatinlookup0 subtable" c.sc
EndChar

StartChar: D
Encoding: 68 68 35
GlifName: D_
Width: 710
VWidth: 0
GlyphClass: 2
Flags: HW
HStem: -3 29<45 51 45 51 45 295> 626 32<286 353> 633 29<45 45>
VStem: 119 88<116 541> 560 99<249 426>
LayerCount: 2
Fore
SplineSet
45 -3 m 257
 40 2 41 21 45 26 c 257
 57 26 111 31 114 42 c 256
 119 58 119 86 119 116 c 258
 119 543 l 258
 119 573 119 601 114 617 c 256
 111 628 57 633 45 633 c 257
 41 638 40 657 45 662 c 257
 86 660 124 657 163 657 c 256
 202 657 264 658 308 658 c 256
 527 658 659 519 659 334 c 256
 659 164 577 -3 295 -3 c 258
 45 -3 l 257
207 115 m 258
 207 101 208 49 213 43 c 256
 221 32 258 29 295 29 c 256
 437 29 560 118 560 313 c 256
 560 539 425 626 281 626 c 256
 269 626 215 625 212 615 c 256
 207 599 207 570 207 541 c 258
 207 115 l 258
EndSplineSet
PickledDataWithLists: "(dp1
S'com.fontlab.hintData'
p2
(dp3
S'vhints'
p4
(lp5
(dp6
S'position'
p7
I119
sS'width'
p8
I88
sa(dp9
g7
I560
sg8
I99
sasS'hhints'
p10
(lp11
(dp12
g7
I-3
sg8
I29
sa(dp13
g7
I626
sg8
I32
sa(dp14
g7
I633
sg8
I29
sass."
Substitution2: "c2scCapitalstoSmallCapitalslookup11 subtable" d.sc
Substitution2: "c2scCapitalstoSmallCapitalsinLatinlookup0 subtable" d.sc
EndChar

StartChar: E
Encoding: 69 69 36
GlifName: E_
Width: 587
VWidth: 0
GlyphClass: 2
Flags: HW
HStem: -3 29<45 51 45 64.5> 0 34 312 37<264 297> 408 20<423.5 430.5> 624 40 624 33 633 29<45 45>
VStem: 119 87<116 303 352.5 355 355 542> 412 32 482 32
LayerCount: 2
Fore
SplineSet
45 -3 m 257
 40 2 41 21 45 26 c 257
 57 26 111 31 114 42 c 256
 119 58 119 86 119 116 c 258
 119 543 l 258
 119 573 119 601 114 617 c 256
 111 628 57 633 45 633 c 257
 41 638 40 657 45 662 c 257
 86 660 124 657 163 657 c 256
 257 657 376 664 485 664 c 257
 492 614 505 573 514 528 c 257
 511 525 503 523 496 523 c 256
 489 523 483 525 482 530 c 256
 460 610 419 624 366 624 c 258
 280 624 l 258
 268 624 214 623 211 613 c 256
 206 597 206 569 206 542 c 258
 206 355 l 258
 206 350 227 349 249 349 c 258
 302 349 l 258
 398 349 395 355 412 421 c 256
 413 426 420 428 427 428 c 256
 434 428 441 426 444 423 c 257
 444 234 l 257
 442 232 435 230 428 230 c 256
 421 230 414 233 412 238 c 256
 397 295 393 298 384 304 c 256
 373 311 316 312 278 312 c 256
 250 312 206 312 206 303 c 258
 206 113 l 258
 206 98 206 49 212 44 c 256
 225 34 241 34 283 34 c 258
 331 34 l 258
 378 34 429 44 457 61 c 256
 489 80 504 119 520 162 c 256
 521 166 527 168 534 168 c 256
 544 168 556 165 559 162 c 257
 540 108 512 40 505 -4 c 257
 396 -4 297 0 164 0 c 256
 117 0 84 -3 45 -3 c 257
EndSplineSet
PickledDataWithLists: "(dp1
S'com.fontlab.hintData'
p2
(dp3
S'vhints'
p4
(lp5
(dp6
S'position'
p7
I119
sS'width'
p8
I87
sa(dp9
g7
I412
sg8
I32
sa(dp10
g7
I482
sg8
I32
sasS'hhints'
p11
(lp12
(dp13
g7
I-3
sg8
I29
sa(dp14
g7
I0
sg8
I34
sa(dp15
g7
I312
sg8
I37
sa(dp16
g7
I408
sg8
I20
sa(dp17
g7
I624
sg8
I40
sa(dp18
g7
I624
sg8
I33
sa(dp19
g7
I633
sg8
I29
sass."
Substitution2: "c2scCapitalstoSmallCapitalslookup11 subtable" e.sc
Substitution2: "c2scCapitalstoSmallCapitalsinLatinlookup0 subtable" e.sc
EndChar

StartChar: F
Encoding: 70 70 37
GlifName: F_
Width: 535
VWidth: 0
GlyphClass: 2
Flags: HW
HStem: -3 29<45 51 45 64.5> 312 37<264 297> 408 20<423.5 430.5> 624 40 624 33 633 29<45 45>
VStem: 119 87<116 303 352.5 355 355 542> 412 32 482 32
LayerCount: 2
Fore
SplineSet
45 -3 m 257
 40 2 41 21 45 26 c 257
 57 26 111 31 114 42 c 256
 119 58 119 86 119 116 c 258
 119 543 l 258
 119 573 119 601 114 617 c 256
 111 628 57 633 45 633 c 257
 41 638 40 657 45 662 c 257
 86 660 124 657 163 657 c 256
 257 657 376 664 485 664 c 257
 492 614 505 573 514 528 c 257
 511 525 503 523 496 523 c 256
 489 523 483 525 482 530 c 256
 460 610 419 624 366 624 c 258
 280 624 l 258
 268 624 214 623 211 613 c 256
 206 597 206 569 206 542 c 258
 206 355 l 258
 206 350 227 349 249 349 c 258
 302 349 l 258
 398 349 395 355 412 421 c 256
 413 426 420 428 427 428 c 256
 434 428 441 426 444 423 c 257
 444 234 l 257
 442 232 435 230 428 230 c 256
 421 230 414 233 412 238 c 256
 397 295 393 298 384 304 c 256
 373 311 316 312 278 312 c 256
 250 312 206 312 206 303 c 258
 206 116 l 258
 206 86 206 58 211 42 c 256
 214 31 278 26 290 26 c 257
 294 21 295 2 290 -3 c 257
 249 -1 202 2 163 2 c 256
 116 2 84 -3 45 -3 c 257
EndSplineSet
PickledDataWithLists: "(dp1
S'com.fontlab.hintData'
p2
(dp3
S'vhints'
p4
(lp5
(dp6
S'position'
p7
I119
sS'width'
p8
I87
sa(dp9
g7
I412
sg8
I32
sa(dp10
g7
I482
sg8
I32
sasS'hhints'
p11
(lp12
(dp13
g7
I-3
sg8
I29
sa(dp14
g7
I312
sg8
I37
sa(dp15
g7
I408
sg8
I20
sa(dp16
g7
I624
sg8
I40
sa(dp17
g7
I624
sg8
I33
sa(dp18
g7
I633
sg8
I29
sass."
Substitution2: "c2scCapitalstoSmallCapitalslookup11 subtable" f.sc
Substitution2: "c2scCapitalstoSmallCapitalsinLatinlookup0 subtable" f.sc
EndChar

StartChar: G
Encoding: 71 71 38
GlifName: G_
Width: 720
VWidth: 0
GlyphClass: 2
Flags: HW
HStem: -6 33<319.5 433 319.5 448> 265 29<462 462 691 691> 634 33<317 419 287.5 474.5>
VStem: 48 99<265 413 265 415.5> 535 86<93.5 104 104 175 93.5 190> 587 34
LayerCount: 2
Fore
SplineSet
48 322 m 256
 48 509 189 667 386 667 c 256
 452 667 524 662 598 646 c 257
 598 646 621 508 621 498 c 257
 622 492 609 485 599 485 c 256
 593 485 590 486 587 488 c 257
 581 519 558 634 391 634 c 256
 243 634 147 483 147 343 c 256
 147 187 232 27 407 27 c 256
 459 27 498 44 528 59 c 256
 534 62 535 67 535 74 c 258
 535 175 l 258
 535 205 535 233 530 249 c 256
 527 260 474 265 462 265 c 257
 458 270 457 289 462 294 c 257
 503 292 540 289 579 289 c 256
 618 289 650 292 691 294 c 257
 696 289 695 270 691 265 c 257
 679 265 629 260 626 249 c 256
 621 233 621 205 621 175 c 258
 621 104 l 258
 621 83 631 74 631 64 c 256
 631 58 628 55 611 46 c 256
 568 23 514 -6 382 -6 c 256
 184 -6 48 145 48 322 c 256
EndSplineSet
PickledDataWithLists: "(dp1
S'com.fontlab.hintData'
p2
(dp3
S'vhints'
p4
(lp5
(dp6
S'position'
p7
I48
sS'width'
p8
I99
sa(dp9
g7
I535
sg8
I86
sa(dp10
g7
I587
sg8
I34
sasS'hhints'
p11
(lp12
(dp13
g7
I-6
sg8
I33
sa(dp14
g7
I265
sg8
I29
sa(dp15
g7
I634
sg8
I33
sass."
Substitution2: "c2scCapitalstoSmallCapitalslookup11 subtable" g.sc
Substitution2: "c2scCapitalstoSmallCapitalsinLatinlookup0 subtable" g.sc
EndChar

StartChar: H
Encoding: 72 72 39
GlifName: H_
Width: 726
VWidth: 0
GlyphClass: 2
Flags: HW
HStem: -3 32<45 45 280 280 446 446 681 681> 325 37 630 32<45 45 280 280 446 446 681 681>
VStem: 119 87<119 313 367 370 370 540> 520 87<119 315 315 317 370 540>
LayerCount: 2
Fore
SplineSet
45 -3 m 257
 40 2 41 24 45 29 c 257
 57 29 111 34 114 45 c 256
 119 61 119 89 119 119 c 258
 119 540 l 258
 119 570 119 598 114 614 c 256
 111 625 57 630 45 630 c 257
 41 635 40 657 45 662 c 257
 86 660 124 657 163 657 c 256
 202 657 239 660 280 662 c 257
 285 657 284 635 280 630 c 257
 268 630 214 625 211 614 c 256
 206 598 206 570 206 540 c 258
 206 370 l 258
 206 364 211 362 217 362 c 256
 266 361 309 359 365 359 c 256
 412 359 462 361 502 362 c 256
 513 362 520 363 520 370 c 258
 520 540 l 258
 520 570 520 598 515 614 c 256
 512 625 458 630 446 630 c 257
 442 635 441 657 446 662 c 257
 487 660 525 657 564 657 c 256
 603 657 640 660 681 662 c 257
 686 657 685 635 681 630 c 257
 669 630 615 625 612 614 c 256
 607 598 607 570 607 540 c 258
 607 119 l 258
 607 89 607 61 612 45 c 256
 615 34 669 29 681 29 c 257
 685 24 686 2 681 -3 c 257
 640 -1 603 2 564 2 c 256
 525 2 487 -1 446 -3 c 257
 441 2 442 24 446 29 c 257
 458 29 512 34 515 45 c 256
 520 61 520 89 520 119 c 258
 520 315 l 258
 520 319 515 321 509 321 c 256
 464 322 416 325 365 325 c 256
 242 325 221 322 215 321 c 256
 210 320 206 318 206 313 c 258
 206 119 l 258
 206 89 206 61 211 45 c 256
 214 34 268 29 280 29 c 257
 284 24 285 2 280 -3 c 257
 239 -1 202 2 163 2 c 256
 124 2 86 -1 45 -3 c 257
EndSplineSet
PickledDataWithLists: "(dp1
S'com.fontlab.hintData'
p2
(dp3
S'vhints'
p4
(lp5
(dp6
S'position'
p7
I119
sS'width'
p8
I87
sa(dp9
g7
I520
sg8
I87
sasS'hhints'
p10
(lp11
(dp12
g7
I-3
sg8
I32
sa(dp13
g7
I325
sg8
I37
sa(dp14
g7
I630
sg8
I32
sass."
Substitution2: "c2scCapitalstoSmallCapitalslookup11 subtable" h.sc
Substitution2: "c2scCapitalstoSmallCapitalsinLatinlookup0 subtable" h.sc
EndChar

StartChar: I
Encoding: 73 73 40
GlifName: I_
Width: 324
VWidth: 0
GlyphClass: 2
Flags: HW
HStem: -3 29<45 45 280 280> 633 29<45 45 280 280>
VStem: 119 87<116 543>
LayerCount: 2
Fore
SplineSet
45 -3 m 257
 40 2 41 21 45 26 c 257
 57 26 111 31 114 42 c 256
 119 58 119 86 119 116 c 258
 119 543 l 258
 119 573 119 601 114 617 c 256
 111 628 57 633 45 633 c 257
 41 638 40 657 45 662 c 257
 86 660 124 657 163 657 c 256
 202 657 239 660 280 662 c 257
 285 657 284 638 280 633 c 257
 268 633 214 628 211 617 c 256
 206 601 206 573 206 543 c 258
 206 116 l 258
 206 86 206 58 211 42 c 256
 214 31 268 26 280 26 c 257
 284 21 285 2 280 -3 c 257
 239 -1 202 2 163 2 c 256
 124 2 86 -1 45 -3 c 257
EndSplineSet
PickledDataWithLists: "(dp1
S'com.fontlab.hintData'
p2
(dp3
S'vhints'
p4
(lp5
(dp6
S'position'
p7
I119
sS'width'
p8
I87
sasS'hhints'
p9
(lp10
(dp11
g7
I-3
sg8
I29
sa(dp12
g7
I633
sg8
I29
sass."
Substitution2: "c2scCapitalstoSmallCapitalslookup11 subtable" i.sc
Substitution2: "c2scCapitalstoSmallCapitalsinLatinlookup0 subtable" i.sc
EndChar

StartChar: J
Encoding: 74 74 41
GlifName: J_
Width: 313
VWidth: 0
GlyphClass: 2
Flags: HW
HStem: -227 47<29 34.5> 633 29<40 40 275 275>
VStem: 114 87<116 121 121 543>
LayerCount: 2
Fore
SplineSet
-104 -186 m 256
 -104 -155 -88 -130 -56 -130 c 256
 -39 -130 -24 -143 -11 -156 c 256
 5 -171 21 -180 37 -180 c 256
 79 -180 114 -126 114 116 c 258
 114 543 l 258
 114 573 114 601 109 617 c 256
 106 628 52 633 40 633 c 257
 36 638 35 657 40 662 c 257
 81 660 119 657 158 657 c 256
 197 657 234 660 275 662 c 257
 280 657 279 638 275 633 c 257
 263 633 209 628 206 617 c 256
 201 601 201 573 201 543 c 258
 201 121 l 258
 201 -129 102 -227 -33 -227 c 256
 -48 -227 -84 -218 -96 -209 c 257
 -101 -204 -104 -193 -104 -186 c 256
EndSplineSet
PickledDataWithLists: "(dp1
S'com.fontlab.hintData'
p2
(dp3
S'vhints'
p4
(lp5
(dp6
S'position'
p7
I114
sS'width'
p8
I87
sasS'hhints'
p9
(lp10
(dp11
g7
I-227
sg8
I47
sa(dp12
g7
I633
sg8
I29
sass."
Substitution2: "c2scCapitalstoSmallCapitalslookup11 subtable" j.sc
Substitution2: "c2scCapitalstoSmallCapitalsinLatinlookup0 subtable" j.sc
EndChar

StartChar: K
Encoding: 75 75 42
GlifName: K_
Width: 657
VWidth: 0
GlyphClass: 2
Flags: HW
HStem: -3 32<45 45 280 280> 630 32<45 45 280 280>
VStem: 119 87<119 305 341 540>
LayerCount: 2
Fore
SplineSet
45 -3 m 257
 40 2 41 24 45 29 c 257
 57 29 111 34 114 45 c 256
 119 61 119 89 119 119 c 258
 119 540 l 258
 119 570 119 598 114 614 c 256
 111 625 57 630 45 630 c 257
 41 635 40 657 45 662 c 257
 86 660 124 657 163 657 c 256
 202 657 239 660 280 662 c 257
 285 657 284 635 280 630 c 257
 268 630 214 625 211 614 c 256
 206 598 206 570 206 540 c 258
 206 341 l 257
 227 354 278 402 319 442 c 256
 397 519 416 539 446 578 c 256
 452 586 460 599 460 609 c 256
 460 634 413 631 404 631 c 257
 401 637 401 653 404 662 c 257
 441 660 482 656 519 656 c 256
 563 656 587 660 627 662 c 257
 629 656 630 631 625 631 c 256
 616 630 560 631 526 594 c 256
 440 500 382 448 295 364 c 256
 293 361 293 359 295 356 c 256
 391 244 474 145 551 72 c 256
 576 49 605 30 660 26 c 257
 665 21 660 -1 659 -3 c 257
 592 -3 537 1 517 8 c 256
 503 13 477 23 449 51 c 256
 428 72 337 175 224 304 c 256
 222 307 219 307 215 307 c 256
 212 307 208 306 206 305 c 257
 206 119 l 258
 206 89 206 61 211 45 c 256
 214 34 268 29 280 29 c 257
 284 24 285 2 280 -3 c 257
 239 -1 202 2 163 2 c 256
 124 2 86 -1 45 -3 c 257
EndSplineSet
PickledDataWithLists: "(dp1
S'com.fontlab.hintData'
p2
(dp3
S'vhints'
p4
(lp5
(dp6
S'position'
p7
I119
sS'width'
p8
I87
sasS'hhints'
p9
(lp10
(dp11
g7
I-3
sg8
I32
sa(dp12
g7
I630
sg8
I32
sass."
Substitution2: "c2scCapitalstoSmallCapitalslookup11 subtable" k.sc
Substitution2: "c2scCapitalstoSmallCapitalsinLatinlookup0 subtable" k.sc
EndChar

StartChar: L
Encoding: 76 76 43
GlifName: L_
Width: 564
VWidth: 0
GlyphClass: 2
Flags: HW
HStem: -3 29<45 51 45 64.5> 0 34 633 29<45 45 280 280>
VStem: 119 87<116 543>
LayerCount: 2
Fore
SplineSet
45 -3 m 257
 40 2 41 21 45 26 c 257
 57 26 111 31 114 42 c 256
 119 58 119 86 119 116 c 258
 119 543 l 258
 119 573 119 601 114 617 c 256
 111 628 57 633 45 633 c 257
 41 638 40 657 45 662 c 257
 86 660 124 657 163 657 c 256
 202 657 239 660 280 662 c 257
 285 657 284 638 280 633 c 257
 268 633 214 628 211 617 c 256
 206 601 206 573 206 543 c 258
 206 116 l 258
 206 101 206 49 212 44 c 256
 225 34 241 34 283 34 c 258
 340 34 l 258
 378 34 429 42 457 61 c 256
 482 78 504 109 520 162 c 256
 521 166 527 168 534 168 c 256
 544 168 556 165 559 162 c 257
 540 108 512 40 505 -4 c 257
 396 -4 297 0 164 0 c 256
 117 0 84 -3 45 -3 c 257
EndSplineSet
PickledDataWithLists: "(dp1
S'com.fontlab.hintData'
p2
(dp3
S'vhints'
p4
(lp5
(dp6
S'position'
p7
I119
sS'width'
p8
I87
sasS'hhints'
p9
(lp10
(dp11
g7
I-3
sg8
I29
sa(dp12
g7
I0
sg8
I34
sa(dp13
g7
I633
sg8
I29
sass."
Substitution2: "c2scCapitalstoSmallCapitalslookup11 subtable" l.sc
Substitution2: "c2scCapitalstoSmallCapitalsinLatinlookup0 subtable" l.sc
EndChar

StartChar: M
Encoding: 77 77 44
GlifName: M_
Width: 907
VWidth: 0
GlyphClass: 2
Flags: HW
HStem: -3 29<26 26 634 634> 633 29<59 59>
VStem: 119 45 133 44<563 584> 693 86<565 583> 708 81
LayerCount: 2
Fore
SplineSet
26 -3 m 257
 24 -1 22 18 26 26 c 257
 38 26 98 31 107 44 c 256
 116 57 118 73 119 94 c 256
 128 334 133 554 133 572 c 256
 133 586 133 601 129 612 c 256
 125 624 71 633 59 633 c 256
 57 633 57 660 59 662 c 257
 105 660 116 657 162 657 c 256
 196 657 221 660 243 662 c 257
 263 599 384 324 455 146 c 256
 456 144 458 144 459 144 c 256
 460 144 463 145 464 148 c 256
 523 300 559 394 617 542 c 256
 635 588 661 662 661 662 c 257
 693 660 721 658 740 658 c 256
 775 658 827 660 852 662 c 257
 853 659 855 633 855 633 c 257
 841 633 789 625 784 615 c 256
 780 606 779 589 779 577 c 256
 781 508 786 270 789 140 c 256
 790 101 792 67 801 43 c 256
 806 29 863 26 871 26 c 257
 876 17 874 0 873 -3 c 257
 833 -1 798 2 754 2 c 256
 708 2 680 -1 634 -3 c 257
 632 -1 630 18 634 26 c 257
 646 26 687 30 699 37 c 256
 706 41 708 65 708 79 c 256
 708 93 706 122 706 137 c 256
 702 281 699 403 693 565 c 256
 693 569 691 585 684 585 c 256
 682 585 681 583 679 578 c 256
 597 372 545 242 468 49 c 256
 464 40 441 0 430 -2 c 256
 427 -3 424 -1 421 0 c 257
 177 584 l 257
 173 366 164 85 164 75 c 256
 164 66 165 52 168 44 c 256
 174 29 239 26 247 26 c 257
 252 20 250 0 249 -3 c 257
 209 -1 187 2 143 2 c 256
 97 2 72 -1 26 -3 c 257
EndSplineSet
PickledDataWithLists: "(dp1
S'com.fontlab.hintData'
p2
(dp3
S'vhints'
p4
(lp5
(dp6
S'position'
p7
I119
sS'width'
p8
I45
sa(dp9
g7
I133
sg8
I44
sa(dp10
g7
I693
sg8
I86
sa(dp11
g7
I708
sg8
I81
sasS'hhints'
p12
(lp13
(dp14
g7
I-3
sg8
I29
sa(dp15
g7
I633
sg8
I29
sass."
Substitution2: "c2scCapitalstoSmallCapitalslookup11 subtable" m.sc
Substitution2: "c2scCapitalstoSmallCapitalsinLatinlookup0 subtable" m.sc
EndChar

StartChar: N
Encoding: 78 78 45
GlifName: N_
Width: 776
VWidth: 0
GlyphClass: 2
Flags: HW
HStem: -3 29<41 41> 634 29<745 745>
VStem: 129 46<114 115 115 548 548 567> 611 46<166 545 545 546>
LayerCount: 2
Fore
SplineSet
41 -3 m 257
 38 2 36 15 41 26 c 257
 53 26 112 34 119 46 c 256
 128 61 129 76 129 114 c 258
 129 548 l 258
 129 586 128 601 119 616 c 256
 112 628 53 636 41 636 c 257
 36 647 38 660 41 665 c 257
 87 663 110 660 143 660 c 256
 173 660 205 661 219 662 c 257
 270 582 500 321 611 166 c 257
 611 545 l 258
 611 581 611 598 601 614 c 256
 595 624 541 634 525 634 c 257
 520 641 521 657 523 663 c 257
 563 661 594 658 638 658 c 256
 684 658 699 661 745 663 c 257
 748 658 750 645 745 634 c 257
 733 634 674 626 667 614 c 256
 658 599 657 584 657 546 c 258
 657 139 l 258
 657 81 657 53 659 1 c 257
 658 -4 649 -5 646 -5 c 256
 641 -5 625 0 611 18 c 258
 175 569 l 257
 175 115 l 258
 175 79 175 62 185 46 c 256
 191 36 244 26 260 26 c 257
 265 19 264 3 262 -3 c 257
 222 -1 192 2 148 2 c 256
 102 2 87 -1 41 -3 c 257
EndSplineSet
PickledDataWithLists: "(dp1
S'com.fontlab.hintData'
p2
(dp3
S'vhints'
p4
(lp5
(dp6
S'position'
p7
I129
sS'width'
p8
I46
sa(dp9
g7
I611
sg8
I46
sasS'hhints'
p10
(lp11
(dp12
g7
I-3
sg8
I29
sa(dp13
g7
I634
sg8
I29
sass."
Substitution2: "c2scCapitalstoSmallCapitalslookup11 subtable" n.sc
Substitution2: "c2scCapitalstoSmallCapitalsinLatinlookup0 subtable" n.sc
EndChar

StartChar: O
Encoding: 79 79 46
GlifName: O_
Width: 748
VWidth: 0
GlyphClass: 2
Flags: HW
HStem: -10 34<311.5 461> 633 34<285 435.5>
VStem: 49 99<272.5 417 272.5 421.5> 600 99<241.5 386.5>
LayerCount: 2
Fore
SplineSet
49 328 m 256
 49 515 197 667 373 667 c 256
 549 667 699 527 699 328 c 256
 699 141 549 -10 373 -10 c 256
 197 -10 49 130 49 328 c 256
148 350 m 256
 148 195 234 24 389 24 c 256
 539 24 600 174 600 309 c 256
 600 464 513 633 358 633 c 256
 208 633 148 484 148 350 c 256
EndSplineSet
PickledDataWithLists: "(dp1
S'com.fontlab.hintData'
p2
(dp3
S'vhints'
p4
(lp5
(dp6
S'position'
p7
I49
sS'width'
p8
I99
sa(dp9
g7
I600
sg8
I99
sasS'hhints'
p10
(lp11
(dp12
g7
I-10
sg8
I34
sa(dp13
g7
I633
sg8
I34
sass."
Substitution2: "c2scCapitalstoSmallCapitalslookup11 subtable" o.sc
Substitution2: "c2scCapitalstoSmallCapitalsinLatinlookup0 subtable" o.sc
EndChar

StartChar: P
Encoding: 80 80 47
GlifName: P_
Width: 548
VWidth: 0
GlyphClass: 2
Flags: HW
HStem: -3 29<45 45 280 280> 278 28<292.5 324 276.5 363.5> 627 32<275.5 316.5>
VStem: 119 87<116 542> 426 92<418 511.5>
LayerCount: 2
Fore
SplineSet
45 -3 m 257
 40 2 41 21 45 26 c 257
 57 26 111 31 114 42 c 256
 119 58 119 86 119 116 c 258
 119 543 l 258
 119 573 119 601 114 617 c 256
 111 628 57 633 45 633 c 257
 41 638 40 657 45 662 c 257
 86 660 124 657 163 657 c 256
 202 657 246 659 305 659 c 256
 411 659 518 595 518 479 c 256
 518 357 429 278 298 278 c 256
 287 278 265 281 255 286 c 256
 252 288 241 296 241 308 c 256
 241 310 242 314 246 313 c 256
 257 310 269 306 284 306 c 256
 364 306 426 362 426 462 c 256
 426 561 372 627 261 627 c 256
 249 627 215 626 211 617 c 256
 206 605 206 572 206 542 c 258
 206 116 l 258
 206 86 206 58 211 42 c 256
 214 31 268 26 280 26 c 257
 284 21 285 2 280 -3 c 257
 239 -1 202 2 163 2 c 256
 124 2 86 -1 45 -3 c 257
EndSplineSet
PickledDataWithLists: "(dp1
S'com.fontlab.hintData'
p2
(dp3
S'vhints'
p4
(lp5
(dp6
S'position'
p7
I119
sS'width'
p8
I87
sa(dp9
g7
I426
sg8
I92
sasS'hhints'
p10
(lp11
(dp12
g7
I-3
sg8
I29
sa(dp13
g7
I278
sg8
I28
sa(dp14
g7
I627
sg8
I32
sass."
Substitution2: "c2scCapitalstoSmallCapitalslookup11 subtable" p.sc
Substitution2: "c2scCapitalstoSmallCapitalsinLatinlookup0 subtable" p.sc
EndChar

StartChar: Q
Encoding: 81 81 48
GlifName: Q_
Width: 747
VWidth: 0
GlyphClass: 2
Flags: HW
HStem: -136 55<581.5 705> 633 34<285 435.5>
VStem: 49 99<272.5 417 272.5 421.5> 600 99<251.5 386.5>
LayerCount: 2
Fore
SplineSet
49 328 m 256
 49 515 197 667 373 667 c 256
 549 667 699 527 699 328 c 256
 699 175 599 46 466 4 c 257
 493 -9 516 -22 535 -34 c 256
 591 -69 624 -81 685 -81 c 256
 725 -81 749 -77 756 -75 c 257
 763 -75 771 -78 774 -82 c 256
 775 -83 775 -84 775 -85 c 256
 720 -114 670 -136 609 -136 c 256
 554 -136 507.064 -109.897 441 -69 c 256
 399 -43 348.976 -14.0947 293 0 c 256
 154 35 49 161 49 328 c 256
148 350 m 256
 148 195 234 24 389 24 c 256
 539 24 600 174 600 309 c 256
 600 464 513 633 358 633 c 256
 208 633 148 484 148 350 c 256
EndSplineSet
PickledDataWithLists: "(dp1
S'com.fontlab.hintData'
p2
(dp3
S'vhints'
p4
(lp5
(dp6
S'position'
p7
I49
sS'width'
p8
I99
sa(dp9
g7
I600
sg8
I99
sasS'hhints'
p10
(lp11
(dp12
g7
I-136
sg8
I55
sa(dp13
g7
I633
sg8
I34
sass."
Substitution2: "c2scCapitalstoSmallCapitalslookup11 subtable" q.sc
Substitution2: "c2scCapitalstoSmallCapitalsinLatinlookup0 subtable" q.sc
EndChar

StartChar: R
Encoding: 82 82 49
GlifName: R_
Width: 621
VWidth: 0
GlyphClass: 2
Flags: HW
HStem: -3 29<45 45 280 280 645 645> 302 31<206 259 206 260> 627 32<275.5 316.5>
VStem: 119 87<116 302 333 542> 415 93<450 520.5>
LayerCount: 2
Fore
SplineSet
45 -3 m 257
 40 2 41 21 45 26 c 257
 57 26 111 31 114 42 c 256
 119 58 119 86 119 116 c 258
 119 543 l 258
 119 573 119 601 114 617 c 256
 111 628 57 633 45 633 c 257
 41 638 40 657 45 662 c 257
 86 660 124 657 163 657 c 256
 202 657 246 659 305 659 c 256
 396 659 508 600 508 486 c 256
 508 414 439 344 372 321 c 257
 425 233 467 173 533 86 c 256
 562 48 591 30 646 26 c 257
 651 21 646 -1 645 -3 c 257
 578 -3 533 2 513 9 c 256
 499 14 472 22 448 53 c 256
 433 73 352 192 289 290 c 256
 283 299 273 302 259 302 c 258
 206 302 l 257
 206 116 l 258
 206 86 206 58 211 42 c 256
 214 31 268 26 280 26 c 257
 284 21 285 2 280 -3 c 257
 239 -1 202 2 163 2 c 256
 124 2 86 -1 45 -3 c 257
206 333 m 257
 260 333 l 258
 338 333 415 389 415 477 c 256
 415 564 372 627 261 627 c 256
 249 627 215 626 211 617 c 256
 206 605 206 572 206 542 c 258
 206 333 l 257
EndSplineSet
PickledDataWithLists: "(dp1
S'com.fontlab.hintData'
p2
(dp3
S'vhints'
p4
(lp5
(dp6
S'position'
p7
I119
sS'width'
p8
I87
sa(dp9
g7
I415
sg8
I93
sasS'hhints'
p10
(lp11
(dp12
g7
I-3
sg8
I29
sa(dp13
g7
I302
sg8
I31
sa(dp14
g7
I627
sg8
I32
sass."
Substitution2: "c2scCapitalstoSmallCapitalslookup11 subtable" r.sc
Substitution2: "c2scCapitalstoSmallCapitalsinLatinlookup0 subtable" r.sc
EndChar

StartChar: S
Encoding: 83 83 50
GlifName: S_
Width: 502
VWidth: 0
GlyphClass: 2
Flags: HW
HStem: -10 34<216 284.5 192 303.5> 632 34<213 292 211 296.5>
VStem: 49 37 65 80<485 543> 372 87<118 180.5>
LayerCount: 2
Fore
SplineSet
49 174 m 257
 55 180 66 186 75 186 c 256
 82 186 85 182 86 177 c 256
 94 139 132 24 252 24 c 256
 317 24 372 68 372 146 c 256
 372 215 336 237 239 290 c 256
 163 332 65 390 65 490 c 256
 65 596 161 666 261 666 c 256
 323 666 346 653 412 638 c 257
 420 586 424 523 426 496 c 256
 427 489 412 485 405 485 c 256
 402 485 397 486 394 489 c 257
 388 539 339 632 254 632 c 256
 172 632 145 569 145 521 c 256
 145 449 205 413 277 371 c 256
 361 322 459 265 459 173 c 256
 459 63 357 -10 250 -10 c 256
 182 -10 119 9 70 19 c 257
 58 78 49 162 49 174 c 257
EndSplineSet
PickledDataWithLists: "(dp1
S'com.fontlab.hintData'
p2
(dp3
S'vhints'
p4
(lp5
(dp6
S'position'
p7
I49
sS'width'
p8
I37
sa(dp9
g7
I65
sg8
I80
sa(dp10
g7
I372
sg8
I87
sasS'hhints'
p11
(lp12
(dp13
g7
I-10
sg8
I34
sa(dp14
g7
I632
sg8
I34
sass."
Substitution2: "c2scCapitalstoSmallCapitalslookup11 subtable" s.sc
Substitution2: "c2scCapitalstoSmallCapitalsinLatinlookup0 subtable" s.sc
EndChar

StartChar: T
Encoding: 84 84 51
GlifName: T_
Width: 626
VWidth: 0
GlyphClass: 2
Flags: HW
HStem: -3 29<196 196 431 431> 626 35<117 141 141 270 357 484 357 357>
VStem: 12 33 270 87<116 626> 580 33
LayerCount: 2
Fore
SplineSet
12 506 m 257
 23 559 31 617 38 678 c 257
 44 681 55 678 61 675 c 256
 73 669 101 661 117 661 c 258
 508 661 l 258
 524 661 556 670 568 676 c 256
 578 681 581 681 587 678 c 257
 594 617 602 559 613 506 c 257
 610 503 603 498 594 499 c 256
 589 499 582 501 580 504 c 257
 566 574 534 626 484 626 c 258
 357 626 l 257
 357 116 l 258
 357 86 357 58 362 42 c 256
 365 31 419 26 431 26 c 257
 435 21 436 2 431 -3 c 257
 390 -1 353 2 314 2 c 256
 275 2 237 -1 196 -3 c 257
 191 2 192 21 196 26 c 257
 208 26 262 31 265 42 c 256
 270 58 270 86 270 116 c 258
 270 626 l 257
 141 626 l 258
 91 626 59 574 45 504 c 257
 43 501 36 499 31 499 c 256
 22 498 15 503 12 506 c 257
EndSplineSet
PickledDataWithLists: "(dp1
S'com.fontlab.hintData'
p2
(dp3
S'vhints'
p4
(lp5
(dp6
S'position'
p7
I12
sS'width'
p8
I33
sa(dp9
g7
I270
sg8
I87
sa(dp10
g7
I580
sg8
I33
sasS'hhints'
p11
(lp12
(dp13
g7
I-3
sg8
I29
sa(dp14
g7
I626
sg8
I35
sass."
Substitution2: "c2scCapitalstoSmallCapitalslookup11 subtable" t.sc
Substitution2: "c2scCapitalstoSmallCapitalsinLatinlookup0 subtable" t.sc
EndChar

StartChar: U
Encoding: 85 85 52
GlifName: U_
Width: 723
VWidth: 0
GlyphClass: 2
Flags: HW
HStem: -4 58<346.5 427.5 346.5 433> 633 29<29 29 264 264>
VStem: 103 87<254.5 296 296 543> 570 46<274 276 276 545 545 546>
LayerCount: 2
Fore
SplineSet
29 633 m 257
 25 638 24 657 29 662 c 257
 70 660 108 657 147 657 c 256
 186 657 223 660 264 662 c 257
 269 657 268 638 264 633 c 257
 252 633 198 628 195 617 c 256
 190 601 190 573 190 543 c 258
 190 296 l 258
 190 213 207 152 239 112 c 256
 270 73 317 54 376 54 c 256
 479 54 567 102 570 274 c 257
 570 545 l 258
 570 581 570 598 560 614 c 256
 554 624 504 634 488 634 c 257
 483 641 484 657 486 663 c 257
 526 661 553 658 597 658 c 256
 643 658 658 661 704 663 c 257
 707 658 709 645 704 634 c 257
 692 634 633 626 626 614 c 256
 617 599 616 584 616 546 c 258
 616 276 l 258
 616 76 511 -4 355 -4 c 256
 283 -4 221 20 177 62 c 256
 131 106 103 171 103 251 c 258
 103 543 l 258
 103 573 103 601 98 617 c 256
 95 628 41 633 29 633 c 257
EndSplineSet
PickledDataWithLists: "(dp1
S'com.fontlab.hintData'
p2
(dp3
S'vhints'
p4
(lp5
(dp6
S'position'
p7
I103
sS'width'
p8
I87
sa(dp9
g7
I570
sg8
I46
sasS'hhints'
p10
(lp11
(dp12
g7
I-4
sg8
I58
sa(dp13
g7
I633
sg8
I29
sass."
Substitution2: "c2scCapitalstoSmallCapitalslookup11 subtable" u.sc
Substitution2: "c2scCapitalstoSmallCapitalsinLatinlookup0 subtable" u.sc
EndChar

StartChar: V
Encoding: 86 86 53
GlifName: V_
Width: 638
VWidth: 0
GlyphClass: 2
Flags: HW
HStem: -2 21<302 310.5> 633 29<4.29497e+09 4.29497e+09>
LayerCount: 2
Fore
SplineSet
-6 633 m 256
 -8 633 -8 660 -6 662 c 257
 40 660 64 657 110 657 c 256
 154 657 194 660 234 662 c 257
 236 656 236 634 232 633 c 257
 224 633 172 628 172 600 c 256
 172 590 177 566 189 532 c 256
 222 442 335 137 338 129 c 257
 344 142 438 369 498 523 c 256
 507 546 516 575 516 593 c 256
 516 625 462 632 450 632 c 257
 445 634 445 656 450 661 c 257
 487 659 517 657 554 657 c 256
 600 657 612 660 652 662 c 257
 655 657 653 633 650 633 c 256
 642 633 603 627 586 607 c 256
 574 593 551 544 536 506 c 256
 463 322 420 218 342 32 c 256
 331 5 317 -2 304 -2 c 256
 300 -2 296 10 294 14 c 256
 226 192 179 322 104 514 c 256
 89 553 75 584 58 610 c 256
 47 626 6 633 -6 633 c 256
EndSplineSet
PickledDataWithLists: "(dp1
S'com.fontlab.hintData'
p2
(dp3
S'hhints'
p4
(lp5
(dp6
S'position'
p7
I-2
sS'width'
p8
I21
sa(dp9
g7
I633
sg8
I29
sass."
Substitution2: "c2scCapitalstoSmallCapitalslookup11 subtable" v.sc
Substitution2: "c2scCapitalstoSmallCapitalsinLatinlookup0 subtable" v.sc
EndChar

StartChar: W
Encoding: 87 87 54
GlifName: W_
Width: 900
VWidth: 0
GlyphClass: 2
Flags: HW
HStem: -2 21<258 266.5 620 628.5> 633 29<702 702 4.29497e+09 4.29497e+09>
LayerCount: 2
Fore
SplineSet
-4 633 m 256
 -6 633 -6 660 -4 662 c 257
 42 660 72 657 118 657 c 256
 162 657 186 660 226 662 c 257
 228 656 228 634 224 633 c 257
 216 633 164 628 164 600 c 256
 164 593 169 570 179 535 c 256
 202 452 253 290 295 148 c 257
 342 303 416 531 446 629 c 256
 452 648 471 662 482 662 c 256
 486 662 489 657 494 646 c 257
 501 624 586 350 653 151 c 257
 696 304 721 383 758 524 c 256
 764 548 770 576 770 594 c 256
 770 626 714 633 702 633 c 257
 697 635 697 657 702 662 c 257
 739 660 773 657 810 657 c 256
 856 657 864 660 904 662 c 257
 907 657 905 633 902 633 c 256
 894 633 859 624 839 607 c 256
 825 595 815 572 803 531 c 256
 748 342 713 211 660 32 c 256
 655 14 635 -2 622 -2 c 256
 618 -2 613 10 612 14 c 256
 563 159 448 508 448 508 c 257
 392 324 351 209 298 32 c 256
 293 14 273 -2 260 -2 c 256
 256 -2 251 10 250 14 c 256
 192 199 151 335 90 532 c 256
 78 572 73 595 54 613 c 256
 40 626 8 633 -4 633 c 256
EndSplineSet
PickledDataWithLists: "(dp1
S'com.fontlab.hintData'
p2
(dp3
S'hhints'
p4
(lp5
(dp6
S'position'
p7
I-2
sS'width'
p8
I21
sa(dp9
g7
I633
sg8
I29
sass."
Substitution2: "c2scCapitalstoSmallCapitalslookup11 subtable" w.sc
Substitution2: "c2scCapitalstoSmallCapitalsinLatinlookup0 subtable" w.sc
EndChar

StartChar: X
Encoding: 88 88 55
GlifName: X_
Width: 668
VWidth: 0
GlyphClass: 2
Flags: HW
HStem: -3 29<419 419 668 668> 633 29<34 34>
LayerCount: 2
Fore
SplineSet
-8 -3 m 257
 -11 3 -8 23 -6 26 c 257
 2 26 73 34 101 70 c 256
 177 167 225 236 297 332 c 257
 258 392 156 548 156 548 c 258
 133 584 118 601 90 617 c 256
 73 627 46 633 34 633 c 256
 29 633 29 657 34 662 c 257
 83 660 110 657 159 657 c 256
 208 657 247 660 287 662 c 257
 289 656 290 633 285 633 c 256
 271 633 225 627 225 601 c 256
 225 593 229 583 237 571 c 258
 353 393 l 257
 413 473 474 550 499 590 c 256
 503 596 503 604 503 606 c 256
 503 615 492 632 436 632 c 257
 432 633 431 654 434 661 c 257
 474 658 500 656 537 656 c 256
 589 656 623 659 647 661 c 257
 650 656 651 638 645 632 c 257
 637 632 585 627 556 592 c 256
 479 500 444 456 372 360 c 257
 569 66 l 258
 588 37 634 26 667 26 c 257
 671 21 669 -1 668 -3 c 257
 628 -1 606 2 565 2 c 256
 509 2 475 -1 419 -3 c 257
 414 2 414 26 419 26 c 256
 430 26 477 35 477 54 c 256
 477 57 474 63 472 66 c 258
 320 301 l 257
 260 221 169 94 154 66 c 256
 153 63 149 56 149 50 c 256
 149 38 170 26 226 26 c 257
 230 20 230 0 228 -3 c 257
 191 -1 152 2 115 2 c 256
 63 2 32 -1 -8 -3 c 257
EndSplineSet
PickledDataWithLists: "(dp1
S'com.fontlab.hintData'
p2
(dp3
S'hhints'
p4
(lp5
(dp6
S'position'
p7
I-3
sS'width'
p8
I29
sa(dp9
g7
I633
sg8
I29
sass."
Substitution2: "c2scCapitalstoSmallCapitalslookup11 subtable" x.sc
Substitution2: "c2scCapitalstoSmallCapitalsinLatinlookup0 subtable" x.sc
EndChar

StartChar: Y
Encoding: 89 89 56
GlifName: Y_
Width: 598
VWidth: 0
GlyphClass: 2
Flags: HW
HStem: -3 29<187 187 422 422> 633 29<4.29497e+09 4.29497e+09>
VStem: 261 87<101 267>
LayerCount: 2
Fore
SplineSet
-10 633 m 256
 -15 633 -15 657 -10 662 c 257
 39 660 66 657 115 657 c 256
 164 657 203 660 243 662 c 257
 245 656 246 633 241 633 c 256
 227 633 181 627 181 601 c 256
 181 593 185 584 193 571 c 258
 332 331 l 257
 381 419 447 554 462 590 c 256
 463 593 465 599 465 605 c 256
 465 615 451 632 395 632 c 256
 392 632 391 658 393 661 c 257
 430 659 456 656 493 656 c 256
 545 656 563 659 603 661 c 257
 605 655 604 632 601 632 c 256
 593 632 535 632 512 592 c 256
 474 525 397 381 354 301 c 256
 348 290 349 279 349 270 c 256
 349 210 348 116 348 116 c 258
 348 86 348 58 353 42 c 256
 356 31 410 26 422 26 c 257
 426 21 427 2 422 -3 c 257
 381 -1 344 2 305 2 c 256
 266 2 228 -1 187 -3 c 257
 182 2 183 21 187 26 c 257
 199 26 253 31 256 42 c 256
 261 58 261 86 261 116 c 258
 261 267 l 258
 261 274 259 285 254 295 c 256
 196 400 171 442 112 548 c 256
 91 585 74 601 46 617 c 256
 29 627 2 633 -10 633 c 256
EndSplineSet
PickledDataWithLists: "(dp1
S'com.fontlab.hintData'
p2
(dp3
S'vhints'
p4
(lp5
(dp6
S'position'
p7
I261
sS'width'
p8
I87
sasS'hhints'
p9
(lp10
(dp11
g7
I-3
sg8
I29
sa(dp12
g7
I633
sg8
I29
sass."
Substitution2: "c2scCapitalstoSmallCapitalslookup11 subtable" y.sc
Substitution2: "c2scCapitalstoSmallCapitalsinLatinlookup0 subtable" y.sc
EndChar

StartChar: Z
Encoding: 90 90 57
GlifName: Z_
Width: 633
VWidth: 0
GlyphClass: 2
Flags: HW
HStem: 0 35<157 418 418 439.5 157 554> 626 35<182 216 216 352 352 394> 649 20
VStem: 43 37
LayerCount: 2
Fore
SplineSet
35 14 m 258
 460 626 l 257
 216 626 l 258
 148 626 102 577 80 495 c 257
 78 492 74 491 69 491 c 256
 60 491 46 496 43 499 c 257
 60 545 70 601 76 669 c 257
 97 666 131 661 158 661 c 258
 352 661 l 258
 436 661 478 665 562 671 c 257
 566 670 580 657 580 649 c 257
 578 641 157 35 157 35 c 257
 418 35 l 258
 461 35 490 50 511 71 c 256
 540 100 553 140 564 169 c 256
 565 171 573 172 578 172 c 256
 588 172 598 167 602 163 c 257
 578 84 566 51 554 0 c 257
 53 0 l 258
 42 0 31 8 35 14 c 258
EndSplineSet
PickledDataWithLists: "(dp1
S'com.fontlab.hintData'
p2
(dp3
S'vhints'
p4
(lp5
(dp6
S'position'
p7
I43
sS'width'
p8
I37
sasS'hhints'
p9
(lp10
(dp11
g7
I0
sg8
I35
sa(dp12
g7
I626
sg8
I35
sa(dp13
g7
I649
sg8
I20
sass."
Substitution2: "c2scCapitalstoSmallCapitalslookup11 subtable" z.sc
Substitution2: "c2scCapitalstoSmallCapitalsinLatinlookup0 subtable" z.sc
EndChar

StartChar: bracketleft
Encoding: 91 91 58
GlifName: bracketleft
Width: 259
VWidth: 0
GlyphClass: 2
Flags: HW
VStem: 79 48<-96 676 -96 695 -96 696>
LayerCount: 2
Fore
SplineSet
79 -115 m 258
 79 695 l 258
 79 697 80 718 98 718 c 256
 180 718 251 724 251 724 c 257
 251 724 254 721 254 715 c 256
 254 709 250 701 244 699 c 256
 206 686 127 676 127 676 c 257
 127 -96 l 257
 127 -96 206 -106 244 -119 c 256
 250 -121 254 -129 254 -135 c 256
 254 -141 251 -144 251 -144 c 257
 251 -144 180 -138 98 -138 c 256
 80 -138 79 -117 79 -115 c 258
EndSplineSet
PickledDataWithLists: "(dp1
S'com.fontlab.hintData'
p2
(dp3
S'vhints'
p4
(lp5
(dp6
S'position'
p7
I79
sS'width'
p8
I48
sass."
Substitution2: "smcpLowercasetoSmallCapitalslookup12 subtable" bracketleft.sc
Substitution2: "c2scCapitalstoSmallCapitalslookup11 subtable" bracketleft.sc
Substitution2: "smcpLowercasetoSmallCapitalslookup2 subtable" bracketleft.sc
Substitution2: "c2scCapitalstoSmallCapitalsinLatinlookup0 subtable" bracketleft.sc
EndChar

StartChar: backslash
Encoding: 92 92 59
GlifName: backslash
Width: 401
VWidth: 0
GlyphClass: 2
Flags: HW
LayerCount: 2
Fore
SplineSet
31 750 m 257
 34 755 44 757 51 757 c 256
 62 757 76 749 79 741 c 258
 79 741 369 -11 369 -17 c 257
 368 -21 358 -28 346 -28 c 256
 339 -28 329 -25 325 -14 c 256
 213 274 119 525 31 750 c 257
EndSplineSet
Substitution2: "smcpLowercasetoSmallCapitalslookup12 subtable" backslash.sc
Substitution2: "c2scCapitalstoSmallCapitalslookup11 subtable" backslash.sc
Substitution2: "smcpLowercasetoSmallCapitalslookup2 subtable" backslash.sc
Substitution2: "c2scCapitalstoSmallCapitalsinLatinlookup0 subtable" backslash.sc
EndChar

StartChar: bracketright
Encoding: 93 93 60
GlifName: bracketright
Width: 260
VWidth: 0
GlyphClass: 2
Flags: HW
VStem: 133 48<-96 676 676 676>
LayerCount: 2
Fore
SplineSet
6 -135 m 256
 6 -129 10 -121 16 -119 c 256
 54 -106 133 -96 133 -96 c 257
 133 676 l 257
 133 676 54 686 16 699 c 256
 10 701 6 709 6 715 c 256
 6 721 9 724 9 724 c 257
 9 724 80 718 162 718 c 256
 180 718 181 697 181 695 c 258
 181 -115 l 258
 181 -117 180 -138 162 -138 c 256
 80 -138 9 -144 9 -144 c 257
 9 -144 6 -141 6 -135 c 256
EndSplineSet
PickledDataWithLists: "(dp1
S'com.fontlab.hintData'
p2
(dp3
S'vhints'
p4
(lp5
(dp6
S'position'
p7
I133
sS'width'
p8
I48
sass."
Substitution2: "smcpLowercasetoSmallCapitalslookup12 subtable" bracketright.sc
Substitution2: "c2scCapitalstoSmallCapitalslookup11 subtable" bracketright.sc
Substitution2: "smcpLowercasetoSmallCapitalslookup2 subtable" bracketright.sc
Substitution2: "c2scCapitalstoSmallCapitalsinLatinlookup0 subtable" bracketright.sc
EndChar

StartChar: asciicircum
Encoding: 94 94 61
GlifName: asciicircum
Width: 390
VWidth: 0
GlyphClass: 2
Flags: HW
HStem: 423 222<74 188.5 183.5 299>
VStem: 61 250<434 439>
LayerCount: 2
Fore
SplineSet
61 439 m 257
 104 514 131 553 171 632 c 256
 175 640 181 645 186 645 c 256
 191 645 198 640 202 632 c 256
 242 553 268 514 311 439 c 257
 311 429 302 423 296 423 c 257
 250 471 186 552 186 552 c 257
 186 552 123 471 77 423 c 257
 71 423 61 429 61 439 c 257
EndSplineSet
PickledDataWithLists: "(dp1
S'com.fontlab.hintData'
p2
(dp3
S'vhints'
p4
(lp5
(dp6
S'position'
p7
I61
sS'width'
p8
I250
sasS'hhints'
p9
(lp10
(dp11
g7
I423
sg8
I222
sass."
Substitution2: "smcpLowercasetoSmallCapitalslookup12 subtable" asciicircum.sc
Substitution2: "c2scCapitalstoSmallCapitalslookup11 subtable" asciicircum.sc
Substitution2: "smcpLowercasetoSmallCapitalslookup2 subtable" asciicircum.sc
Substitution2: "c2scCapitalstoSmallCapitalsinLatinlookup0 subtable" asciicircum.sc
EndChar

StartChar: underscore
Encoding: 95 95 62
GlifName: underscore
Width: 505
VWidth: 0
GlyphClass: 2
Flags: HW
HStem: -43 56<29 466 21 478>
LayerCount: 2
Fore
SplineSet
14 -33 m 257
 14 -33 19 13 29 13 c 258
 478 13 l 258
 480 13 482 12 482 8 c 256
 482 -1 478 -15 472 -37 c 256
 470 -43 466 -43 466 -43 c 257
 21 -43 l 257
 21 -43 14 -43 14 -33 c 257
EndSplineSet
PickledDataWithLists: "(dp1
S'com.fontlab.hintData'
p2
(dp3
S'hhints'
p4
(lp5
(dp6
S'position'
p7
I-43
sS'width'
p8
I56
sass."
EndChar

StartChar: a
Encoding: 97 97 64
GlifName: a
Width: 431
VWidth: 0
GlyphClass: 2
Flags: HW
HStem: -6 52 398 38<204.5 212.5>
VStem: 37 83<97.5 127.5> 52 81 274 76<87 93 93 223 223 223 275 299>
LayerCount: 2
Fore
SplineSet
37 107 m 256
 37 148 65 179 87 187 c 256
 143 207 233 237 262 250 c 256
 272 254 274 257 274 275 c 258
 274 302 l 258
 274 347 237 398 188 398 c 256
 153 398 140 375 133 336 c 256
 127 302 111 288 86 288 c 256
 65 288 52 310 52 330 c 256
 52 334 55 349 59 354 c 256
 90 383 168 436 241 436 c 256
 298 436 350 376 350 299 c 258
 350 93 l 258
 350 66 358 46 381 46 c 256
 399 46 411 57 414 59 c 257
 417 59 418 54 418 51 c 256
 418 45 416 37 413 32 c 257
 401 21 359 -6 338 -6 c 256
 309 -6 283 28 277 59 c 257
 265 47 189 -8 154 -8 c 256
 88 -8 37 42 37 107 c 256
120 116 m 256
 120 79 149 46 187 46 c 256
 222 46 274 77 274 87 c 258
 274 223 l 257
 247 215 199 201 181 194 c 256
 145 180 120 154 120 116 c 256
EndSplineSet
PickledDataWithLists: "(dp1
S'com.fontlab.hintData'
p2
(dp3
S'vhints'
p4
(lp5
(dp6
S'position'
p7
I37
sS'width'
p8
I83
sa(dp9
g7
I52
sg8
I81
sa(dp10
g7
I274
sg8
I76
sasS'hhints'
p11
(lp12
(dp13
g7
I-6
sg8
I52
sa(dp14
g7
I398
sg8
I38
sass."
Substitution2: "smcpLowercasetoSmallCapitalslookup12 subtable" a.sc
Substitution2: "smcpLowercasetoSmallCapitalslookup2 subtable" a.sc
EndChar

StartChar: b
Encoding: 98 98 65
GlifName: b
Width: 498
VWidth: 0
GlyphClass: 2
Flags: HW
HStem: -7 34<219 277 219 282> 379 5 628 26<5 5> 674 20<148 150.5>
VStem: 71 77<110 341 391.5 394 394 558 558 564.5> 374 84<167.5 252>
LayerCount: 2
Fore
SplineSet
5 628 m 256
 4 628 2 653 6 654 c 256
 56 659 106 675 148 694 c 257
 153 694 159 685 159 678 c 258
 159 678 148 646 148 591 c 258
 148 394 l 258
 148 389 148 379 154 384 c 256
 169 395 237 438 275 438 c 256
 395 438 458 324 458 233 c 256
 458 102 353 -7 211 -7 c 256
 196 -7 158 2 137 8 c 256
 115 14 95 22 72 14 c 257
 67 14 59 31 59 36 c 257
 68 56 71 90 71 110 c 258
 71 558 l 258
 71 571 71 598 66 610 c 256
 60 624 33 628 5 628 c 256
148 98 m 258
 148 55 197 27 241 27 c 256
 313 27 374 113 374 194 c 256
 374 310 316 379 227 379 c 256
 201 379 162 361 153 352 c 256
 150 349 148 346 148 341 c 258
 148 98 l 258
EndSplineSet
PickledDataWithLists: "(dp1
S'com.fontlab.hintData'
p2
(dp3
S'vhints'
p4
(lp5
(dp6
S'position'
p7
I71
sS'width'
p8
I77
sa(dp9
g7
I374
sg8
I84
sasS'hhints'
p10
(lp11
(dp12
g7
I-7
sg8
I34
sa(dp13
g7
I379
sg8
I5
sa(dp14
g7
I628
sg8
I26
sa(dp15
g7
I674
sg8
I20
sass."
Substitution2: "smcpLowercasetoSmallCapitalslookup12 subtable" b.sc
Substitution2: "smcpLowercasetoSmallCapitalslookup2 subtable" b.sc
EndChar

StartChar: c
Encoding: 99 99 66
GlifName: c
Width: 423
VWidth: 0
GlyphClass: 2
Flags: HW
HStem: -8 66<234 280> 394 44<230 242>
VStem: 39 78<168.5 267>
LayerCount: 2
Fore
SplineSet
39 194 m 256
 39 340 178 438 282 438 c 256
 317 438 348 430 372 414 c 257
 376 410 382 396 382 386 c 256
 382 350 361 338 344 338 c 256
 322 338 303 364 286 375 c 256
 265 389 255 394 229 394 c 256
 176 394 117 332 117 227 c 256
 117 110 189 58 279 58 c 256
 334 58 372 94 385 109 c 256
 386 109 393 103 393 95 c 256
 393 90 390 82 387 77 c 256
 369 48 319 -8 241 -8 c 256
 120 -8 39 90 39 194 c 256
EndSplineSet
PickledDataWithLists: "(dp1
S'com.fontlab.hintData'
p2
(dp3
S'vhints'
p4
(lp5
(dp6
S'position'
p7
I39
sS'width'
p8
I78
sasS'hhints'
p9
(lp10
(dp11
g7
I-8
sg8
I66
sa(dp12
g7
I394
sg8
I44
sass."
Substitution2: "smcpLowercasetoSmallCapitalslookup12 subtable" c.sc
Substitution2: "smcpLowercasetoSmallCapitalslookup2 subtable" c.sc
EndChar

StartChar: d
Encoding: 100 100 67
GlifName: d
Width: 515
VWidth: 0
GlyphClass: 2
Flags: HW
HStem: -8 62<218.5 239> 20 27 396 42<232 273> 628 26<285 285> 674 20<428 430.5>
VStem: 39 84<183 271.5> 351 77<143.5 163 163 347 347 358.5 449 558 558 565>
LayerCount: 2
Fore
SplineSet
39 206 m 256
 39 337 187 438 277 438 c 256
 298 438 336 432 346 428 c 257
 350 428 351 437 351 449 c 258
 351 558 l 258
 351 572 351 598 346 610 c 256
 340 624 313 628 285 628 c 256
 284 628 282 653 286 654 c 256
 336 659 386 675 428 694 c 257
 433 694 439 685 439 678 c 258
 439 678 428 646 428 591 c 258
 428 163 l 258
 428 124 429 79 435 65 c 256
 443 47 491 48 494 47 c 256
 496 46 497 38 497 35 c 256
 497 33 494 20 489 20 c 256
 437 17 360 -8 359 -8 c 256
 353 -8 351 4 351 11 c 258
 351 46 l 258
 351 51 350 54 348 52 c 256
 333 36 263 -8 215 -8 c 256
 124 -8 39 84 39 206 c 256
123 230 m 256
 123 136 173 54 264 54 c 256
 309 54 351 78 351 94 c 258
 351 347 l 258
 351 370 301 396 245 396 c 256
 169 396 123 314 123 230 c 256
EndSplineSet
PickledDataWithLists: "(dp1
S'com.fontlab.hintData'
p2
(dp3
S'vhints'
p4
(lp5
(dp6
S'position'
p7
I39
sS'width'
p8
I84
sa(dp9
g7
I351
sg8
I77
sasS'hhints'
p10
(lp11
(dp12
g7
I-8
sg8
I62
sa(dp13
g7
I20
sg8
I27
sa(dp14
g7
I396
sg8
I42
sa(dp15
g7
I628
sg8
I26
sa(dp16
g7
I674
sg8
I20
sass."
Substitution2: "smcpLowercasetoSmallCapitalslookup12 subtable" d.sc
Substitution2: "smcpLowercasetoSmallCapitalslookup2 subtable" d.sc
EndChar

StartChar: e
Encoding: 101 101 68
GlifName: e
Width: 430
VWidth: 0
GlyphClass: 2
Flags: HW
HStem: -8 64<231 279> 248 37<116 117> 255 30 402 36<193 250.5>
VStem: 40 71<179.5 241 241 248 179.5 267> 302 85<299 322 287.5 322.5>
LayerCount: 2
Fore
SplineSet
40 200 m 256
 40 334 149 438 237 438 c 256
 357 438 387 342 387 302 c 256
 387 273 382 256 363 255 c 256
 332 253 123 248 111 248 c 257
 111 241 l 258
 111 118 188 56 274 56 c 256
 329 56 371 94 384 109 c 256
 385 109 392 103 392 95 c 256
 392 90 389 82 386 77 c 256
 368 48 318 -8 240 -8 c 256
 122 -8 40 82 40 200 c 256
116 285 m 258
 279 285 l 258
 291 285 302 290 302 308 c 256
 302 337 281 402 220 402 c 256
 136 402 114 285 116 285 c 258
EndSplineSet
PickledDataWithLists: "(dp1
S'com.fontlab.hintData'
p2
(dp3
S'vhints'
p4
(lp5
(dp6
S'position'
p7
I40
sS'width'
p8
I71
sa(dp9
g7
I302
sg8
I85
sasS'hhints'
p10
(lp11
(dp12
g7
I-8
sg8
I64
sa(dp13
g7
I248
sg8
I37
sa(dp14
g7
I255
sg8
I30
sa(dp15
g7
I402
sg8
I36
sass."
Substitution2: "smcpLowercasetoSmallCapitalslookup12 subtable" e.sc
Substitution2: "smcpLowercasetoSmallCapitalslookup2 subtable" e.sc
EndChar

StartChar: g
Encoding: 103 103 70
GlifName: g
Width: 466
VWidth: 0
GlyphClass: 2
Flags: HW
HStem: -227 39 -4 71<246 301 301 302.5> 137 30<207.5 250.5 192.5 264> 374 51 409 30<186.5 237.5 171 246>
VStem: 23 79<-108.5 -83> 50 77<263.5 320.5 261.5 327.5> 308 77<253.5 307 249 312> 387 69<-79 -66.5>
LayerCount: 2
Fore
SplineSet
23 -105 m 256
 23 -61 95 -18 129 -1 c 257
 94 10 47 42 47 92 c 257
 64 112 115 149 133 160 c 257
 84 187 50 239 50 288 c 256
 50 367 123 439 219 439 c 256
 256 439 281.86 428.656 310 417 c 256
 314.975 414.939 326 411 333 410 c 257
 440 425 l 257
 447 423 450 419 450 415 c 256
 450 407 437 380 427 374 c 257
 402 375 361 378 361 378 c 258
 358 378 357 377 357 375 c 257
 362 370 385 330 385 284 c 256
 385 214 312 137 216 137 c 256
 199 137 170 142 160 146 c 257
 142 136 123 118 123 102 c 256
 123 92 143 67 183 67 c 258
 301 67 l 258
 380 67 456 18 456 -38 c 256
 456 -120 335 -226 196 -227 c 256
 115 -228 23 -187 23 -105 c 256
102 -76 m 256
 102 -141 151 -188 236 -188 c 256
 305 -188 387 -136 387 -81 c 256
 387 -52 350 -4 255 -4 c 256
 237 -4 169 -5 162 -9 c 256
 139 -22 102 -50 102 -76 c 256
127 292 m 256
 127 231 162 167 223 167 c 256
 278 167 308 226 308 281 c 256
 308 343 277 409 215 409 c 256
 158 409 127 349 127 292 c 256
EndSplineSet
PickledDataWithLists: "(dp1
S'com.fontlab.hintData'
p2
(dp3
S'vhints'
p4
(lp5
(dp6
S'position'
p7
I23
sS'width'
p8
I79
sa(dp9
g7
I50
sg8
I77
sa(dp10
g7
I308
sg8
I77
sa(dp11
g7
I387
sg8
I69
sasS'hhints'
p12
(lp13
(dp14
g7
I-227
sg8
I39
sa(dp15
g7
I-4
sg8
I71
sa(dp16
g7
I137
sg8
I30
sa(dp17
g7
I374
sg8
I51
sa(dp18
g7
I409
sg8
I30
sass."
Substitution2: "smcpLowercasetoSmallCapitalslookup12 subtable" g.sc
Substitution2: "smcpLowercasetoSmallCapitalslookup2 subtable" g.sc
EndChar

StartChar: h
Encoding: 104 104 71
GlifName: h
Width: 516
VWidth: 0
GlyphClass: 2
Flags: HW
HStem: -3 29<21 21 234 234 291 291 504 504> 380 58<283 300> 628 26<23 23> 674 20<166 168.5>
VStem: 89 77<116 325 364.5 365 365 558 558 564.5> 359 77<116 216 216 226>
LayerCount: 2
Fore
SplineSet
21 -3 m 257
 16 2 17 21 21 26 c 257
 33 26 81 31 84 42 c 256
 89 58 89 86 89 116 c 258
 89 558 l 258
 89 571 89 598 84 610 c 256
 78 624 51 628 23 628 c 256
 22 628 20 653 24 654 c 256
 74 659 124 675 166 694 c 257
 171 694 177 685 177 678 c 258
 177 678 166 646 166 591 c 258
 166 365 l 258
 166 364 167 363 169 363 c 256
 170 363 171 364 172 365 c 256
 192 387 259 438 307 438 c 256
 415 438 436 371 436 226 c 258
 436 116 l 258
 436 86 436 58 441 42 c 256
 444 31 492 26 504 26 c 257
 508 21 509 2 504 -3 c 257
 463 -1 436 2 397 2 c 256
 358 2 332 -1 291 -3 c 257
 286 2 287 21 291 26 c 257
 303 26 351 31 354 42 c 256
 359 58 359 86 359 116 c 258
 359 216 l 258
 359 340 339 380 261 380 c 256
 224 380 166 334 166 325 c 258
 166 116 l 258
 166 86 166 58 171 42 c 256
 174 31 222 26 234 26 c 257
 238 21 239 2 234 -3 c 257
 193 -1 166 2 127 2 c 256
 88 2 62 -1 21 -3 c 257
EndSplineSet
PickledDataWithLists: "(dp1
S'com.fontlab.hintData'
p2
(dp3
S'vhints'
p4
(lp5
(dp6
S'position'
p7
I89
sS'width'
p8
I77
sa(dp9
g7
I359
sg8
I77
sasS'hhints'
p10
(lp11
(dp12
g7
I-3
sg8
I29
sa(dp13
g7
I380
sg8
I58
sa(dp14
g7
I628
sg8
I26
sa(dp15
g7
I674
sg8
I20
sass."
Substitution2: "smcpLowercasetoSmallCapitalslookup12 subtable" h.sc
Substitution2: "smcpLowercasetoSmallCapitalslookup2 subtable" h.sc
EndChar

StartChar: k
Encoding: 107 107 74
GlifName: k
Width: 518
VWidth: 0
GlyphClass: 2
Flags: HW
HStem: -3 29<21 21 234 234> 396 29<478 478> 628 26<23 23> 674 20<166 168.5>
VStem: 89 77<116 204 235 558 558 565>
LayerCount: 2
Fore
SplineSet
21 -3 m 257
 16 2 17 21 21 26 c 257
 33 26 81 31 84 42 c 256
 89 58 89 86 89 116 c 258
 89 558 l 258
 89 572 89 598 84 610 c 256
 78 624 51 628 23 628 c 256
 22 628 20 653 24 654 c 256
 74 659 124 675 166 694 c 257
 171 694 177 685 177 678 c 258
 177 678 166 646 166 591 c 258
 166 235 l 257
 183 241 214 267 248 296 c 256
 300 340 340 369 340 379 c 256
 340 394 301 395 292 396 c 257
 287 403 289 423 294 425 c 257
 323 422 358 420 390 420 c 256
 424 420 456 422 478 425 c 257
 482 419 481 400 478 396 c 257
 464 396 422 388 401 373 c 256
 390 365 298 299 239 249 c 257
 314 168 395 73 419 53 c 256
 445 32 485 25 511 26 c 257
 513 23 515 7 512 2 c 257
 505 -1 474 -4 447 -4 c 256
 388 -4 339 24 324 40 c 258
 324 40 238 133 181 195 c 256
 177 200 166 204 166 204 c 257
 166 116 l 258
 166 86 166 58 171 42 c 256
 174 31 222 26 234 26 c 257
 238 21 239 2 234 -3 c 257
 193 -1 166 2 127 2 c 256
 88 2 62 -1 21 -3 c 257
EndSplineSet
PickledDataWithLists: "(dp1
S'com.fontlab.hintData'
p2
(dp3
S'vhints'
p4
(lp5
(dp6
S'position'
p7
I89
sS'width'
p8
I77
sasS'hhints'
p9
(lp10
(dp11
g7
I-3
sg8
I29
sa(dp12
g7
I396
sg8
I29
sa(dp13
g7
I628
sg8
I26
sa(dp14
g7
I674
sg8
I20
sass."
Substitution2: "smcpLowercasetoSmallCapitalslookup12 subtable" k.sc
Substitution2: "smcpLowercasetoSmallCapitalslookup2 subtable" k.sc
EndChar

StartChar: l
Encoding: 108 108 75
GlifName: l
Width: 255
VWidth: 0
GlyphClass: 2
Flags: HW
HStem: -3 29<21 21 234 234> 628 26<23 23> 674 20<166 168.5>
VStem: 89 77<116 558 558 565>
LayerCount: 2
Fore
SplineSet
21 -3 m 257
 16 2 17 21 21 26 c 257
 33 26 81 31 84 42 c 256
 89 58 89 86 89 116 c 258
 89 558 l 258
 89 572 89 598 84 610 c 256
 78 624 51 628 23 628 c 256
 22 628 20 653 24 654 c 256
 74 659 124 675 166 694 c 257
 171 694 177 685 177 678 c 258
 177 678 166 646 166 591 c 258
 166 116 l 258
 166 86 166 58 171 42 c 256
 174 31 222 26 234 26 c 257
 238 21 239 2 234 -3 c 257
 193 -1 166 2 127 2 c 256
 88 2 62 -1 21 -3 c 257
EndSplineSet
PickledDataWithLists: "(dp1
S'com.fontlab.hintData'
p2
(dp3
S'vhints'
p4
(lp5
(dp6
S'position'
p7
I89
sS'width'
p8
I77
sasS'hhints'
p9
(lp10
(dp11
g7
I-3
sg8
I29
sa(dp12
g7
I628
sg8
I26
sa(dp13
g7
I674
sg8
I20
sass."
Substitution2: "smcpLowercasetoSmallCapitalslookup12 subtable" l.sc
Substitution2: "smcpLowercasetoSmallCapitalslookup2 subtable" l.sc
EndChar

StartChar: m
Encoding: 109 109 76
GlifName: m
Width: 790
VWidth: 0
GlyphClass: 2
Flags: HW
HStem: -3 29<36 36 249 249 300 300 513 513 564 564 777 777> 372 26<34 34> 380 58<292 310 556 578.5>
VStem: 104 77<116 298 298 304.5> 368 77<116 218 218 239> 632 77<116 223 223 226>
LayerCount: 2
Fore
SplineSet
34 372 m 257
 32 374 30 393 34 398 c 257
 85 405 137 419 177 440 c 257
 182 440 188 429 188 424 c 256
 187 417 182 380 182 372 c 256
 182 371 182 368 184 368 c 256
 185 368 186 369 187 370 c 256
 212 391 265 438 319 438 c 256
 378 438 417 415 433 355 c 257
 477 395 532 438 580 438 c 256
 688 438 709 371 709 226 c 258
 709 116 l 258
 709 86 709 58 714 42 c 256
 717 31 765 26 777 26 c 257
 781 21 782 2 777 -3 c 257
 736 -1 709 2 670 2 c 256
 631 2 605 -1 564 -3 c 257
 559 2 560 21 564 26 c 257
 576 26 624 31 627 42 c 256
 632 58 632 86 632 116 c 258
 632 223 l 258
 632 322 619 380 538 380 c 256
 489 380 440 330 440 323 c 256
 443 302 445 262.478 445 239 c 258
 445 116 l 258
 445 86 445 58 450 42 c 256
 453 31 501 26 513 26 c 257
 517 21 518 2 513 -3 c 257
 472 -1 445 2 406 2 c 256
 367 2 341 -1 300 -3 c 257
 295 2 296 21 300 26 c 257
 312 26 360 31 363 42 c 256
 368 58 368 86 368 116 c 258
 368 218 l 258
 368 340 346 380 274 380 c 256
 229 380 181 338 181 325 c 258
 181 116 l 258
 181 86 181 58 186 42 c 256
 189 31 237 26 249 26 c 257
 253 21 254 2 249 -3 c 257
 208 -1 181 2 142 2 c 256
 103 2 77 -1 36 -3 c 257
 31 2 32 21 36 26 c 257
 48 26 96 31 99 42 c 256
 104 58 104 86 104 116 c 258
 104 298 l 258
 104 311 104 342 99 354 c 256
 92 371 41 372 34 372 c 257
EndSplineSet
PickledDataWithLists: "(dp1
S'com.fontlab.hintData'
p2
(dp3
S'vhints'
p4
(lp5
(dp6
S'position'
p7
I104
sS'width'
p8
I77
sa(dp9
g7
I368
sg8
I77
sa(dp10
g7
I632
sg8
I77
sasS'hhints'
p11
(lp12
(dp13
g7
I-3
sg8
I29
sa(dp14
g7
I372
sg8
I26
sa(dp15
g7
I380
sg8
I58
sass."
Substitution2: "smcpLowercasetoSmallCapitalslookup12 subtable" m.sc
Substitution2: "smcpLowercasetoSmallCapitalslookup2 subtable" m.sc
EndChar

StartChar: n
Encoding: 110 110 77
GlifName: n
Width: 532
VWidth: 0
GlyphClass: 2
Flags: HW
HStem: -3 29<36 36 249 249 306 306 519 519> 372 26<34 34> 380 58<298 315>
VStem: 104 77<116 298 298 304.5> 374 77<116 216 216 226>
LayerCount: 2
Fore
SplineSet
34 372 m 257
 32 374 30 393 34 398 c 257
 85 405 137 419 177 440 c 257
 182 440 188 429 188 424 c 256
 187 417 182 375 182 367 c 256
 182 366 182 363 184 363 c 256
 185 363 186 364 187 365 c 256
 207 387 274 438 322 438 c 256
 430 438 451 371 451 226 c 258
 451 116 l 258
 451 86 451 58 456 42 c 256
 459 31 507 26 519 26 c 257
 523 21 524 2 519 -3 c 257
 478 -1 451 2 412 2 c 256
 373 2 347 -1 306 -3 c 257
 301 2 302 21 306 26 c 257
 318 26 366 31 369 42 c 256
 374 58 374 86 374 116 c 258
 374 216 l 258
 374 340 354 380 276 380 c 256
 239 380 181 334 181 325 c 258
 181 116 l 258
 181 86 181 58 186 42 c 256
 189 31 237 26 249 26 c 257
 253 21 254 2 249 -3 c 257
 208 -1 181 2 142 2 c 256
 103 2 77 -1 36 -3 c 257
 31 2 32 21 36 26 c 257
 48 26 96 31 99 42 c 256
 104 58 104 86 104 116 c 258
 104 298 l 258
 104 311 104 342 99 354 c 256
 92 371 41 372 34 372 c 257
EndSplineSet
PickledDataWithLists: "(dp1
S'com.fontlab.hintData'
p2
(dp3
S'vhints'
p4
(lp5
(dp6
S'position'
p7
I104
sS'width'
p8
I77
sa(dp9
g7
I374
sg8
I77
sasS'hhints'
p10
(lp11
(dp12
g7
I-3
sg8
I29
sa(dp13
g7
I372
sg8
I26
sa(dp14
g7
I380
sg8
I58
sass."
Substitution2: "smcpLowercasetoSmallCapitalslookup12 subtable" n.sc
Substitution2: "smcpLowercasetoSmallCapitalslookup2 subtable" n.sc
EndChar

StartChar: o
Encoding: 111 111 78
GlifName: o
Width: 509
VWidth: 0
GlyphClass: 2
Flags: HW
HStem: -7 33<221 308.5 221 316.5> 406 33<200.5 287.5>
VStem: 41 86<184.5 276 184.5 277.5> 382 86<156.5 246.5>
LayerCount: 2
Fore
SplineSet
41 213 m 256
 41 342 133 439 254 439 c 256
 386 439 468 346 468 221 c 256
 468 92 377 -7 256 -7 c 256
 124 -7 41 88 41 213 c 256
127 233 m 256
 127 136 176 26 266 26 c 256
 351 26 382 113 382 198 c 256
 382 295 332 406 243 406 c 256
 158 406 127 319 127 233 c 256
EndSplineSet
PickledDataWithLists: "(dp1
S'com.fontlab.hintData'
p2
(dp3
S'vhints'
p4
(lp5
(dp6
S'position'
p7
I41
sS'width'
p8
I86
sa(dp9
g7
I382
sg8
I86
sasS'hhints'
p10
(lp11
(dp12
g7
I-7
sg8
I33
sa(dp13
g7
I406
sg8
I33
sass."
Substitution2: "smcpLowercasetoSmallCapitalslookup12 subtable" o.sc
Substitution2: "smcpLowercasetoSmallCapitalslookup2 subtable" o.sc
EndChar

StartChar: p
Encoding: 112 112 79
GlifName: p
Width: 510
VWidth: 0
GlyphClass: 2
Flags: HW
HStem: -226 29<18 18 231 231> -8 35<238.5 293.5> 372 26<16 16> 379 59<270 285>
VStem: 86 77<-107 -10 74 100 100 302 302 308.5> 387 84<167.5 254.5>
LayerCount: 2
Fore
SplineSet
16 372 m 257
 14 374 12 393 16 398 c 257
 67 405 119 419 159 440 c 257
 164 440 170 429 170 424 c 256
 169 417 163 391 163 383 c 256
 163 382 163 379 165 379 c 256
 166 379 167 380 168 381 c 256
 193 402 250 438 290 438 c 256
 414 438 471 318 471 232 c 256
 471 103 350 -8 237 -8 c 256
 211 -8 183 -2 167 3 c 257
 167 3 163 -2 163 -10 c 258
 163 -107 l 258
 163 -137 163 -165 168 -181 c 256
 171 -192 219 -197 231 -197 c 257
 235 -202 236 -221 231 -226 c 257
 190 -224 163 -221 124 -221 c 256
 85 -221 59 -224 18 -226 c 257
 13 -221 14 -202 18 -197 c 257
 30 -197 78 -192 81 -181 c 256
 86 -165 86 -137 86 -107 c 258
 86 302 l 258
 86 315 86 342 81 354 c 256
 74 371 23 372 16 372 c 257
163 100 m 258
 163 48 221 27 256 27 c 256
 339 27 387 114 387 195 c 256
 387 314 323 379 247 379 c 256
 206 379 163 354 163 340 c 258
 163 100 l 258
EndSplineSet
PickledDataWithLists: "(dp1
S'com.fontlab.hintData'
p2
(dp3
S'vhints'
p4
(lp5
(dp6
S'position'
p7
I86
sS'width'
p8
I77
sa(dp9
g7
I387
sg8
I84
sasS'hhints'
p10
(lp11
(dp12
g7
I-226
sg8
I29
sa(dp13
g7
I-8
sg8
I35
sa(dp14
g7
I372
sg8
I26
sa(dp15
g7
I379
sg8
I59
sass."
Substitution2: "smcpLowercasetoSmallCapitalslookup12 subtable" p.sc
Substitution2: "smcpLowercasetoSmallCapitalslookup2 subtable" p.sc
EndChar

StartChar: q
Encoding: 113 113 80
GlifName: q
Width: 497
VWidth: 0
GlyphClass: 2
Flags: HW
HStem: -227 29<281 281 494 494> -7 60<227.5 238.5> 402 36<232.5 278>
VStem: 39 84<176 265.5 176 267.5> 349 77<-108 40 40 42.5 93 320>
LayerCount: 2
Fore
SplineSet
39 199 m 256
 39 336 179 438 286 438 c 256
 316 438 372 413 405 413 c 256
 411 413 419 414 425 416 c 257
 431 416 438 399 438 394 c 257
 429 374 426 340 426 320 c 258
 426 -108 l 258
 426 -138 426 -166 431 -182 c 256
 434 -193 482 -198 494 -198 c 257
 498 -203 499 -222 494 -227 c 257
 453 -225 426 -222 387 -222 c 256
 348 -222 322 -225 281 -227 c 257
 276 -222 277 -203 281 -198 c 257
 293 -198 341 -193 344 -182 c 256
 349 -166 349 -138 349 -108 c 258
 349 40 l 258
 349 45 347 54 342 50 c 256
 327 37 260 -7 217 -7 c 256
 102 -7 39 110 39 199 c 256
123 235 m 256
 123 117 186 53 269 53 c 256
 309 53 349 78 349 93 c 258
 349 332 l 258
 349 375 300 402 256 402 c 256
 162 402 123 296 123 235 c 256
EndSplineSet
PickledDataWithLists: "(dp1
S'com.fontlab.hintData'
p2
(dp3
S'vhints'
p4
(lp5
(dp6
S'position'
p7
I39
sS'width'
p8
I84
sa(dp9
g7
I349
sg8
I77
sasS'hhints'
p10
(lp11
(dp12
g7
I-227
sg8
I29
sa(dp13
g7
I-7
sg8
I60
sa(dp14
g7
I402
sg8
I36
sass."
Substitution2: "smcpLowercasetoSmallCapitalslookup12 subtable" q.sc
Substitution2: "smcpLowercasetoSmallCapitalslookup2 subtable" q.sc
EndChar

StartChar: r
Encoding: 114 114 81
GlifName: r
Width: 383
VWidth: 0
GlyphClass: 2
Flags: HW
HStem: -3 29<36 36 272 272> 360 77<239.5 316> 372 26<34 34>
VStem: 34 154<372 426.5> 104 77<116 270>
LayerCount: 2
Fore
SplineSet
34 372 m 257
 32 374 30 393 34 398 c 257
 85 405 137 419 177 440 c 257
 182 440 188 429 188 424 c 256
 187 417 181 343 181 332 c 256
 181 328 184 329 185 330 c 256
 205 373 258 437 303 437 c 256
 329 437 355 424 364 408 c 257
 366 402 368 392 368 381 c 256
 368 344 345 329 335 329 c 256
 324 329 315.245 335.316 305 343 c 256
 293 352 281 360 261 360 c 256
 218 360 181 293 181 270 c 258
 181 116 l 258
 181 86 181 58 186 42 c 256
 189 31 260 26 272 26 c 257
 276 21 277 2 272 -3 c 257
 231 -1 187 2 148 2 c 256
 109 2 77 -1 36 -3 c 257
 31 2 32 21 36 26 c 257
 48 26 96 31 99 42 c 256
 104 58 104 86 104 116 c 258
 104 302 l 258
 104 315 104 342 99 354 c 256
 92 371 41 372 34 372 c 257
EndSplineSet
PickledDataWithLists: "(dp1
S'com.fontlab.hintData'
p2
(dp3
S'vhints'
p4
(lp5
(dp6
S'position'
p7
I34
sS'width'
p8
I154
sa(dp9
g7
I104
sg8
I77
sasS'hhints'
p10
(lp11
(dp12
g7
I-3
sg8
I29
sa(dp13
g7
I360
sg8
I77
sa(dp14
g7
I372
sg8
I26
sass."
Substitution2: "smcpLowercasetoSmallCapitalslookup12 subtable" r.sc
Substitution2: "smcpLowercasetoSmallCapitalslookup2 subtable" r.sc
EndChar

StartChar: s
Encoding: 115 115 82
GlifName: s
Width: 369
VWidth: 0
GlyphClass: 2
Flags: HW
HStem: -11 32<152 196.5 149.5 215.5> 406 31<174 214.5 158 219.5>
VStem: 41 27 50 77<320 352> 248 81<86.5 116.328> 282 27<314 314>
LayerCount: 2
Fore
SplineSet
41 112 m 257
 45 115 54 118 59 118 c 256
 62 118 65 118 68 116 c 257
 80 74 123 21 176 21 c 256
 217 21 248 47 248 93 c 256
 248 139.656 210.957 163.085 167 185.623 c 256
 98 221 50 251.189 50 315 c 256
 50 389 121 437 195 437 c 256
 234 437 253 429 297 424 c 257
 304 393 308 350 309 314 c 256
 309 310 304 309 299 309 c 256
 294 309 287 310 282 314 c 257
 272 351 241 406 198 406 c 256
 150 406 127 379 127 343 c 256
 127 297 158.047 280.085 214 249 c 256
 277 214 329 182 329 127 c 256
 329 46 256 -11 175 -11 c 256
 129 -11 102 0 58 8 c 257
 50 29 41 86 41 112 c 257
EndSplineSet
PickledDataWithLists: "(dp1
S'com.fontlab.hintData'
p2
(dp3
S'vhints'
p4
(lp5
(dp6
S'position'
p7
I41
sS'width'
p8
I27
sa(dp9
g7
I50
sg8
I77
sa(dp10
g7
I248
sg8
I81
sa(dp11
g7
I282
sg8
I27
sasS'hhints'
p12
(lp13
(dp14
g7
I-11
sg8
I32
sa(dp15
g7
I406
sg8
I31
sass."
Substitution2: "smcpLowercasetoSmallCapitalslookup12 subtable" s.sc
Substitution2: "smcpLowercasetoSmallCapitalslookup2 subtable" s.sc
EndChar

StartChar: t
Encoding: 116 116 83
GlifName: t
Width: 311
VWidth: 0
GlyphClass: 2
Flags: HW
HStem: -7 54<204 211.5> 391 41<23.5 83 46 83 46 83 160 280>
VStem: 83 77<102.5 129 129 391 432 495 495 495>
LayerCount: 2
Fore
SplineSet
20 400 m 256
 20 404 45 431 46 432 c 257
 83 432 l 257
 83 495 l 257
 102 517 142 559 144 562 c 256
 149 567 160 567 160 563 c 258
 160 432 l 257
 289 432 l 258
 294 432 294 427 294 421 c 256
 294 412 289 400 280 391 c 257
 160 391 l 257
 160 129 l 258
 160 76 182 47 226 47 c 256
 256 47 284 65 291 70 c 257
 293 69 294 66 294 63 c 256
 294 57 291 49 290 48 c 256
 276 32 236 -7 187 -7 c 256
 136 -7 83 15 83 101 c 258
 83 391 l 257
 25 391 l 258
 22 391 20 397 20 400 c 256
EndSplineSet
PickledDataWithLists: "(dp1
S'com.fontlab.hintData'
p2
(dp3
S'vhints'
p4
(lp5
(dp6
S'position'
p7
I83
sS'width'
p8
I77
sasS'hhints'
p9
(lp10
(dp11
g7
I-7
sg8
I54
sa(dp12
g7
I391
sg8
I41
sass."
Substitution2: "smcpLowercasetoSmallCapitalslookup12 subtable" t.sc
Substitution2: "smcpLowercasetoSmallCapitalslookup2 subtable" t.sc
EndChar

StartChar: u
Encoding: 117 117 84
GlifName: u
Width: 515
VWidth: 0
GlyphClass: 2
Flags: HW
HStem: -7 56<223 231.5> 20 27 394 26<17 17 286 286> 420 20<154 156.5 423 425.5>
VStem: 81 77<192 204 204 320 320 326.5> 350 77<135.5 141 141 320 320 326.5>
LayerCount: 2
Fore
SplineSet
17 394 m 257
 14 397 13 415 17 420 c 257
 68 422 118 429 154 440 c 257
 159 440 165 425 165 420 c 257
 161 412 158 380 158 351 c 258
 158 204 l 258
 158 98 188 49 258 49 c 256
 302 49 350 80 350 104 c 258
 350 320 l 258
 350 333 350 359 342 374 c 256
 332 392 299 394 286 394 c 257
 283 397 282 415 286 420 c 257
 337 422 387 429 423 440 c 257
 428 440 434 421 434 416 c 257
 430 408 427 380 427 351 c 258
 427 141 l 258
 427 130 428 93 434 65 c 256
 439 46 490 48 493 47 c 256
 495 46 496 39 496 36 c 256
 496 34 493 20 488 20 c 256
 436 17 359 -8 358 -8 c 256
 353 -8 350 1 350 8 c 258
 350 54 l 258
 350 59 348 59 348 59 c 257
 320 29 257 -7 206 -7 c 256
 100 -7 81 108 81 192 c 258
 81 320 l 258
 81 333 81 359 73 374 c 256
 63 392 30 394 17 394 c 257
EndSplineSet
PickledDataWithLists: "(dp1
S'com.fontlab.hintData'
p2
(dp3
S'vhints'
p4
(lp5
(dp6
S'position'
p7
I81
sS'width'
p8
I77
sa(dp9
g7
I350
sg8
I77
sasS'hhints'
p10
(lp11
(dp12
g7
I-7
sg8
I56
sa(dp13
g7
I20
sg8
I27
sa(dp14
g7
I394
sg8
I26
sa(dp15
g7
I420
sg8
I20
sass."
Substitution2: "smcpLowercasetoSmallCapitalslookup12 subtable" u.sc
Substitution2: "smcpLowercasetoSmallCapitalslookup2 subtable" u.sc
EndChar

StartChar: v
Encoding: 118 118 85
GlifName: v
Width: 473
VWidth: 0
GlyphClass: 2
Flags: HW
HStem: -11 21<227 232> 401 29<2 2 297 297>
LayerCount: 2
Fore
SplineSet
2 401 m 257
 0 406 -2 420 2 430 c 257
 43 428 61 425 102 425 c 256
 140 425 162 428 202 430 c 257
 204 424 203 401 198 401 c 256
 191 401 149 399 149 384 c 256
 149 383 149 382 150 380 c 258
 260 110 l 257
 260 110 311 243 349 337 c 256
 354 349 355 362 355 369 c 256
 355 389 331 401 297 401 c 256
 292 401 292 425 297 430 c 257
 328 428 337 425 378 425 c 256
 416 425 431 428 471 430 c 257
 475 424 472 401 468 401 c 256
 460 401 417 395 405 367 c 256
 346 226 313 148 255 6 c 256
 252 -2 235 -11 229 -11 c 256
 225 -11 221 -9 220 -7 c 256
 155 147 112 268 57 381 c 256
 47 402 14 401 2 401 c 257
EndSplineSet
PickledDataWithLists: "(dp1
S'com.fontlab.hintData'
p2
(dp3
S'hhints'
p4
(lp5
(dp6
S'position'
p7
I-11
sS'width'
p8
I21
sa(dp9
g7
I401
sg8
I29
sass."
Substitution2: "smcpLowercasetoSmallCapitalslookup12 subtable" v.sc
Substitution2: "smcpLowercasetoSmallCapitalslookup2 subtable" v.sc
EndChar

StartChar: w
Encoding: 119 119 86
GlifName: w
Width: 721
VWidth: 0
GlyphClass: 2
Flags: HW
HStem: -11 21<225 232.5 480 486> 401 29<2 2 270 270 464 464 541 541>
VStem: 338 76<322.5 381>
LayerCount: 2
Fore
SplineSet
2 401 m 257
 -1 407 -1 424 2 430 c 257
 43 428 60 425 101 425 c 256
 139 425 161 428 201 430 c 257
 203 424 203 403 199 401 c 257
 191 401 149 399 149 378 c 256
 149 377 151 372 154 363 c 256
 166 331 201 249 257 117 c 257
 308 246 338 318 338 327 c 256
 338 334 327 363 314 382 c 256
 303 398 282 401 270 401 c 257
 265 404 265 425 270 430 c 257
 311 428 320 425 361 425 c 256
 399 425 425 428 465 430 c 257
 467 424 468 405 464 401 c 257
 433 401 414 393 414 369 c 256
 414 366 415 363 417 358 c 256
 425 331 453 262 508 120 c 257
 547 217 581 302 596 344 c 256
 600 355 601 364 601 368 c 256
 601 397 564 399 541 401 c 257
 537 404 536 425 541 430 c 257
 582 428 587 425 628 425 c 256
 666 425 680 428 720 430 c 257
 721 427 723 406 717 401 c 257
 709 401 661 395 649 365 c 256
 594 226 562 145 504 6 c 256
 501 -2 489 -11 483 -11 c 256
 477 -11 472 -9 471 -7 c 258
 360 282 l 257
 252 8 l 258
 251 5 238 -11 227 -11 c 256
 223 -11 219 -9 218 -7 c 256
 156 148 122 230 56 379 c 256
 47 400 14 401 2 401 c 257
EndSplineSet
PickledDataWithLists: "(dp1
S'com.fontlab.hintData'
p2
(dp3
S'vhints'
p4
(lp5
(dp6
S'position'
p7
I338
sS'width'
p8
I76
sasS'hhints'
p9
(lp10
(dp11
g7
I-11
sg8
I21
sa(dp12
g7
I401
sg8
I29
sass."
Substitution2: "smcpLowercasetoSmallCapitalslookup12 subtable" w.sc
Substitution2: "smcpLowercasetoSmallCapitalslookup2 subtable" w.sc
EndChar

StartChar: x
Encoding: 120 120 87
GlifName: x
Width: 476
VWidth: 0
GlyphClass: 2
Flags: HW
HStem: -3 29<200 200 262 262 467 467> 401 29<23 23 268 268 448 448>
LayerCount: 2
Fore
SplineSet
11 -3 m 257
 9 5 10 21 13 26 c 257
 45 31 85 34 108 65 c 257
 108 65 201 199 206 206 c 257
 198 218 90 379 90 379 c 258
 79 396 43 401 23 401 c 256
 21 401 21 424 24 430 c 257
 57 427 84 425 123 425 c 256
 164 425 202 428 224 430 c 257
 225 426 227 407 222 401 c 257
 206 401 182 399 182 384 c 256
 182 381 184 377 187 372 c 258
 253 267 l 257
 280 309 324 362 324 382 c 256
 324 402 274 400 268 401 c 256
 266 402 265 426 268 430 c 257
 309 428 328 425 369 425 c 256
 405 425 435 428 449 430 c 257
 450 425 450 401 448 401 c 256
 429 400 384 396 371 379 c 256
 335 329 280 251 271 240 c 257
 281 225 391 62 391 62 c 258
 411 33 439 26 468 26 c 256
 470 26 470 1 467 -3 c 257
 430 -1 410 2 373 2 c 256
 330 2 305 -1 262 -3 c 257
 259 4 260 26 263 26 c 256
 277 27 305 32 305 44 c 256
 305 46 304 48 303 50 c 258
 303 50 251 135 224 175 c 257
 205 146 180 111 152 67 c 256
 147 59 146 53 146 48 c 256
 146 29 178 28 201 26 c 256
 203 26 204 2 200 -3 c 257
 161 -1 144 2 105 2 c 256
 67 2 49 -1 11 -3 c 257
EndSplineSet
PickledDataWithLists: "(dp1
S'com.fontlab.hintData'
p2
(dp3
S'hhints'
p4
(lp5
(dp6
S'position'
p7
I-3
sS'width'
p8
I29
sa(dp9
g7
I401
sg8
I29
sass."
Substitution2: "smcpLowercasetoSmallCapitalslookup12 subtable" x.sc
Substitution2: "smcpLowercasetoSmallCapitalslookup2 subtable" x.sc
EndChar

StartChar: y
Encoding: 121 121 88
GlifName: y
Width: 469
VWidth: 0
GlyphClass: 2
Flags: HW
HStem: -228 72<74.5 75.5 52 100.5> 401 29<2 2 292 292>
LayerCount: 2
Fore
SplineSet
2 401 m 256
 0 401 0 428 2 430 c 257
 21 428 61 425 102 425 c 256
 140 425 185 428 202 430 c 257
 204 424 203 401 198 401 c 256
 191 401 148 399 148 384 c 256
 148 383 149 382 150 380 c 258
 256 110 l 257
 256 110 306 243 344 337 c 256
 349 349 350 362 350 369 c 256
 350 389 326 401 292 401 c 256
 287 401 287 425 292 430 c 257
 307 428 341 425 382 425 c 256
 420 425 446 428 466 430 c 257
 470 424 468 401 464 401 c 256
 456 401 412 395 400 367 c 256
 341 226 308 148 250 6 c 256
 225 -55 207 -119 171 -172 c 256
 148 -206 117 -228 84 -228 c 256
 65 -228 40 -221 40 -185 c 256
 40 -173 47 -162 52 -156 c 257
 99 -156 126 -153 166 -99 c 256
 182 -78 211 -9 214 2 c 257
 158 145 115 253 56 381 c 256
 46 402 14 401 2 401 c 256
EndSplineSet
PickledDataWithLists: "(dp1
S'com.fontlab.hintData'
p2
(dp3
S'hhints'
p4
(lp5
(dp6
S'position'
p7
I-228
sS'width'
p8
I72
sa(dp9
g7
I401
sg8
I29
sass."
Substitution2: "smcpLowercasetoSmallCapitalslookup12 subtable" y.sc
Substitution2: "smcpLowercasetoSmallCapitalslookup2 subtable" y.sc
EndChar

StartChar: z
Encoding: 122 122 89
GlifName: z
Width: 447
VWidth: 0
GlyphClass: 2
Flags: HW
HStem: 0 35<136 276 276 306.5 136 374> 119 12 397 34<148 152> 419 20<59 59>
LayerCount: 2
Fore
SplineSet
34 20 m 256
 34 21 34 26 35 27 c 258
 292 396 l 257
 152 397 l 258
 95 397 84 345 76 327 c 256
 74 323 64 318 54 318 c 256
 48 318 43 319 43 321 c 256
 47 336 56 386 59 439 c 257
 59 439 112 431 148 431 c 258
 276 431 l 258
 330 431 357 434 398 439 c 257
 403 431 401 420 401 415 c 257
 401 415 136 38 136 35 c 257
 276 35 l 258
 337 35 374 82 386 125 c 256
 387 130 389 131 393 131 c 256
 401 131 414 125 419 119 c 257
 419 119 389 46 374 0 c 257
 49 0 l 257
 42 2 34 12 34 20 c 256
EndSplineSet
PickledDataWithLists: "(dp1
S'com.fontlab.hintData'
p2
(dp3
S'hhints'
p4
(lp5
(dp6
S'position'
p7
I0
sS'width'
p8
I35
sa(dp9
g7
I119
sg8
I12
sa(dp10
g7
I397
sg8
I34
sa(dp11
g7
I419
sg8
I20
sass."
Substitution2: "smcpLowercasetoSmallCapitalslookup12 subtable" z.sc
Substitution2: "smcpLowercasetoSmallCapitalslookup2 subtable" z.sc
EndChar

StartChar: braceleft
Encoding: 123 123 90
GlifName: braceleft
Width: 222
VWidth: 0
GlyphClass: 2
Flags: HW
VStem: 58 44<-13.5 6 -38.5 50.5 570 589.5> 104 46<180 203.5 151 219.5 372.5 396>
LayerCount: 2
Fore
SplineSet
26 288 m 256
 26 292 26 297 28 299 c 257
 67 309 104 330 104 383 c 256
 104 409 92 433 81 458 c 256
 69 484 58 510 58 541 c 256
 58 638 122 703 165 720 c 257
 173 720 181 710 181 701 c 257
 154 688 102 640 102 589 c 256
 102 551 115 526 127 498 c 256
 139 473 150 445 150 405 c 256
 150 340 103 298 77 288 c 257
 103 278 150 236 150 171 c 256
 150 131 139 103 127 78 c 256
 115 50 102 25 102 -13 c 256
 102 -64 154 -112 181 -125 c 257
 181 -134 173 -144 165 -144 c 257
 122 -127 58 -62 58 35 c 256
 58 66 69 92 81 118 c 256
 92 143 104 167 104 193 c 256
 104 246 67 267 28 277 c 257
 26 279 26 284 26 288 c 256
EndSplineSet
PickledDataWithLists: "(dp1
S'com.fontlab.hintData'
p2
(dp3
S'vhints'
p4
(lp5
(dp6
S'position'
p7
I58
sS'width'
p8
I44
sa(dp9
g7
I104
sg8
I46
sass."
Substitution2: "smcpLowercasetoSmallCapitalslookup12 subtable" braceleft.sc
Substitution2: "c2scCapitalstoSmallCapitalslookup11 subtable" braceleft.sc
Substitution2: "smcpLowercasetoSmallCapitalslookup2 subtable" braceleft.sc
Substitution2: "c2scCapitalstoSmallCapitalsinLatinlookup0 subtable" braceleft.sc
EndChar

StartChar: bar
Encoding: 124 124 91
GlifName: bar
Width: 205
VWidth: 0
GlyphClass: 2
Flags: HW
VStem: 77 51<-110 -106 -106 757 757 757>
LayerCount: 2
Fore
SplineSet
77 -115 m 258
 77 757 l 257
 77 757 76 763 82 765 c 256
 99 770 116 772 119 772 c 256
 128 772 128 767 128 766 c 258
 128 -106 l 258
 128 -114 84 -123 82 -123 c 256
 75 -123 77 -119 77 -115 c 258
EndSplineSet
PickledDataWithLists: "(dp1
S'com.fontlab.hintData'
p2
(dp3
S'vhints'
p4
(lp5
(dp6
S'position'
p7
I77
sS'width'
p8
I51
sass."
Substitution2: "smcpLowercasetoSmallCapitalslookup12 subtable" bar.sc
Substitution2: "c2scCapitalstoSmallCapitalslookup11 subtable" bar.sc
Substitution2: "smcpLowercasetoSmallCapitalslookup2 subtable" bar.sc
Substitution2: "c2scCapitalstoSmallCapitalsinLatinlookup0 subtable" bar.sc
EndChar

StartChar: braceright
Encoding: 125 125 92
GlifName: braceright
Width: 223
VWidth: 0
GlyphClass: 2
Flags: HW
VStem: 72 46<180 203.5 372.5 396> 120 44<-13.5 6 570 589.5>
LayerCount: 2
Fore
SplineSet
41 -125 m 257
 68 -112 120 -64 120 -13 c 256
 120 25 107 50 95 78 c 256
 83 103 72 131 72 171 c 256
 72 236 119 278 145 288 c 257
 119 298 72 340 72 405 c 256
 72 445 83 473 95 498 c 256
 107 526 120 551 120 589 c 256
 120 640 68 688 41 701 c 257
 41 710 49 720 57 720 c 257
 100 703 164 638 164 541 c 256
 164 510 153 484 141 458 c 256
 130 433 118 409 118 383 c 256
 118 330 155 309 194 299 c 257
 195 297 196 292 196 288 c 256
 196 283 196 280 194 277 c 257
 155 267 118 246 118 193 c 256
 118 167 130 143 141 118 c 256
 153 92 164 66 164 35 c 256
 164 -62 100 -127 57 -144 c 257
 49 -144 41 -134 41 -125 c 257
EndSplineSet
PickledDataWithLists: "(dp1
S'com.fontlab.hintData'
p2
(dp3
S'vhints'
p4
(lp5
(dp6
S'position'
p7
I72
sS'width'
p8
I46
sa(dp9
g7
I120
sg8
I44
sass."
Substitution2: "smcpLowercasetoSmallCapitalslookup12 subtable" braceright.sc
Substitution2: "c2scCapitalstoSmallCapitalslookup11 subtable" braceright.sc
Substitution2: "smcpLowercasetoSmallCapitalslookup2 subtable" braceright.sc
Substitution2: "c2scCapitalstoSmallCapitalsinLatinlookup0 subtable" braceright.sc
EndChar

StartChar: asciitilde
Encoding: 126 126 93
GlifName: asciitilde
Width: 570
VWidth: 0
GlyphClass: 2
Flags: HW
HStem: 250 51<398.5 424> 303 51<159.5 178.5>
LayerCount: 2
Fore
SplineSet
56 276 m 256
 56 313 133 354 186 354 c 256
 233 354 269 340 305 327 c 256
 340 314 375 301 422 301 c 256
 461 301 483 322 512 345 c 257
 518 342 521 336 521 328 c 256
 521 295 455 250 393 250 c 256
 344 250 308 263 271 277 c 256
 236 290 201 303 156 303 c 256
 117 303 89 281 65 259 c 257
 59 262 56 268 56 276 c 256
EndSplineSet
PickledDataWithLists: "(dp1
S'com.fontlab.hintData'
p2
(dp3
S'hhints'
p4
(lp5
(dp6
S'position'
p7
I250
sS'width'
p8
I51
sa(dp9
g7
I303
sg8
I51
sass."
Substitution2: "smcpLowercasetoSmallCapitalslookup12 subtable" asciitilde.sc
Substitution2: "c2scCapitalstoSmallCapitalslookup11 subtable" asciitilde.sc
Substitution2: "smcpLowercasetoSmallCapitalslookup2 subtable" asciitilde.sc
Substitution2: "c2scCapitalstoSmallCapitalsinLatinlookup0 subtable" asciitilde.sc
EndChar

StartChar: exclamdown
Encoding: 161 161 95
GlifName: exclamdown
Width: 215
VWidth: 0
GlyphClass: 2
Flags: HW
HStem: 320 110<92 122>
VStem: 53 110<359 389> 59 94<-178 -151>
LayerCount: 2
Fore
SplineSet
53 374 m 256
 53 404 77 430 107 430 c 256
 137 430 163 404 163 374 c 256
 163 344 137 320 107 320 c 256
 77 320 53 344 53 374 c 256
59 -165 m 256
 59 -137 72 -3 93 247 c 257
 97 255 100 259 109 260 c 257
 114 258 120 255 123 249 c 257
 137 88 153 -114 153 -165 c 256
 153 -193 135 -223 103 -223 c 256
 72 -223 59 -191 59 -165 c 256
EndSplineSet
PickledDataWithLists: "(dp1
S'com.fontlab.hintData'
p2
(dp3
S'vhints'
p4
(lp5
(dp6
S'position'
p7
I53
sS'width'
p8
I110
sa(dp9
g7
I59
sg8
I94
sasS'hhints'
p10
(lp11
(dp12
g7
I320
sg8
I110
sass."
Substitution2: "smcpLowercasetoSmallCapitalslookup12 subtable" exclamdown.sc
Substitution2: "c2scCapitalstoSmallCapitalslookup11 subtable" exclamdown.sc
Substitution2: "smcpLowercasetoSmallCapitalslookup2 subtable" exclamdown.sc
Substitution2: "c2scCapitalstoSmallCapitalsinLatinlookup0 subtable" exclamdown.sc
EndChar

StartChar: cent
Encoding: 162 162 96
GlifName: cent
Width: 446
VWidth: 0
GlyphClass: 2
Flags: HW
HStem: -8 66<276.208 286> 394 44
VStem: 45 78<186.875 262.012>
LayerCount: 2
Fore
SplineSet
194.927 -1.57836 m 257
 103.327 21.8164 45 105.748 45 194 c 256
 45 330.024 165.653 424.383 266.246 436.643 c 257
 272 472 l 257
 280 472 300 473 300 466 c 257
 295.432 437.878 l 257
 327.39 436.817 355.713 428.858 378 414 c 256
 382 410 388 396 388 386 c 256
 388 350 367 338 350 338 c 256
 328 338 309 364 292 375 c 256
 289.852 376.432 287.819 377.77 285.872 379.018 c 257
 234.713 64.0516 l 257
 250.52 59.9849 267.416 58 285 58 c 256
 340 58 378 94 391 109 c 256
 392 109 399 103 399 95 c 256
 399 90 396 82 393 77 c 256
 375 48 325 -8 247 -8 c 256
 238.889 -8 230.959 -7.55969 223.22 -6.70678 c 257
 217 -45 l 257
 208 -45 189 -45 189 -38 c 257
 194.927 -1.57836 l 257
207.194 73.7937 m 257
 258.928 391.679 l 257
 252.253 393.297 244.752 394 235 394 c 256
 182 394 123 332 123 227 c 256
 123 146.75 156.873 97.0793 207.194 73.7937 c 257
EndSplineSet
PickledDataWithLists: "(dp1
S'com.fontlab.hintData'
p2
(dp3
S'vhints'
p4
(lp5
(dp6
S'position'
p7
I45
sS'width'
p8
I78
sasS'hhints'
p9
(lp10
(dp11
g7
I-8
sg8
I66
sa(dp12
g7
I394
sg8
I44
sass."
EndChar

StartChar: sterling
Encoding: 163 163 97
GlifName: sterling
Width: 477
VWidth: 0
GlyphClass: 2
Flags: HW
HStem: -8 66<282.5 330> 49 56<100.5 196.5> 306 36<55 131.998 78 131.998 78 137.651 220.798 220.798 220.798 372> 590 46<267 276.5>
VStem: 125 77 148 75<234.5 236.008> 427 13
LayerCount: 2
Fore
SplineSet
55 306 m 257
 49 312 69 342 78 342 c 258
 131.998 342 l 257
 128.312 366.143 125.352 387.724 125 399 c 256
 121 535 220 636 314 636 c 256
 349 636 362 628 386 612 c 256
 390 608 396 594 396 584 c 256
 396 548 375 536 358 536 c 256
 336 536 320 559 305 573 c 256
 290 587 283 590 270 590 c 256
 218 590 202 528 202 459 c 256
 202 415.138 209.378 377.249 215.387 342 c 257
 381 342 l 257
 395 331 378 310 372 306 c 257
 220.798 306 l 257
 222.153 294.54 223 283.25 223 272 c 256
 223 197 159 120 134 97 c 257
 148 104 158 105 169 105 c 256
 224 105 238 58 327 58 c 256
 382 58 418 121 427 139 c 256
 428 139 440 131 440 123 c 256
 440 119 439 114 437 108 c 256
 426 76 369 -8 291 -8 c 256
 206 -8 168 49 116 49 c 256
 85 49 77 10 60 -6 c 257
 52 -6 44 7 44 16 c 256
 44 45 79 79 94 94 c 256
 122 122 148 182 148 231 c 256
 148 241.017 142.995 272.419 137.651 306 c 257
 55 306 l 257
EndSplineSet
PickledDataWithLists: "(dp1
S'com.fontlab.hintData'
p2
(dp3
S'vhints'
p4
(lp5
(dp6
S'position'
p7
I125
sS'width'
p8
I77
sa(dp9
g7
I148
sg8
I75
sa(dp10
g7
I427
sg8
I13
sasS'hhints'
p11
(lp12
(dp13
g7
I-8
sg8
I66
sa(dp14
g7
I49
sg8
I56
sa(dp15
g7
I306
sg8
I36
sa(dp16
g7
I590
sg8
I46
sass."
EndChar

StartChar: currency
Encoding: 164 164 98
GlifName: currency
Width: 574
VWidth: 0
GlyphClass: 2
Flags: HW
HStem: 120 32<264.5 306> 463 33<267 307.5 267 308.5>
VStem: 102 73<288.5 329> 395 72<287 325.5 287 340>
LayerCount: 2
Fore
SplineSet
78 154 m 257
 132 205 l 257
 113 235 102 270 102 307 c 256
 102 351 116 391 140 423 c 257
 88 479 l 258
 80 487 108 513 132 520 c 257
 184 465 l 257
 213 485 248 496 286 496 c 256
 329 496 367 481 398 455 c 257
 457 510 l 258
 465 518 491 490 498 466 c 257
 438 410 l 257
 456 380 467 344 467 307 c 256
 467 267 455 230 434 199 c 257
 488 141 l 258
 496 133 468 107 444 100 c 257
 392 155 l 257
 362 133 326 120 286 120 c 256
 243 120 203 135 172 160 c 257
 119 110 l 258
 111 102 85 130 78 154 c 257
175 319 m 256
 175 227 231 152 294 152 c 256
 355 152 395 219 395 294 c 256
 395 386 340 463 277 463 c 256
 216 463 175 394 175 319 c 256
EndSplineSet
PickledDataWithLists: "(dp1
S'com.fontlab.hintData'
p2
(dp3
S'vhints'
p4
(lp5
(dp6
S'position'
p7
I102
sS'width'
p8
I73
sa(dp9
g7
I395
sg8
I72
sasS'hhints'
p10
(lp11
(dp12
g7
I120
sg8
I32
sa(dp13
g7
I463
sg8
I33
sass."
EndChar

StartChar: yen
Encoding: 165 165 99
GlifName: yen
Width: 672
VWidth: 0
GlyphClass: 2
Flags: HW
HStem: -3 29<227 227 462 462> 138 37<223 301 223 301 203 301 388.643 475> 218 37<203 299.976 223 299.976 223 301 388.938 475> 611 29<30 30>
VStem: 301 87<101 138 101 138 101 218>
LayerCount: 2
Fore
SplineSet
203 218 m 257
 197 224 214 255 223 255 c 258
 299.976 255 l 257
 298.92 260.64 297 267 294 273 c 256
 236 378 211 420 152 526 c 256
 131 563 114 579 86 595 c 256
 69 605 42 611 30 611 c 256
 25 611 25 635 30 640 c 257
 79 638 106 635 155 635 c 256
 204 635 243 638 283 640 c 257
 285 634 286 611 281 611 c 256
 267 611 221 605 221 579 c 256
 221 571 225 562 233 549 c 258
 372 311 l 257
 421 399 490 536 504 570 c 256
 505 573 507 579 507 585 c 256
 507 591 488 610 432 610 c 256
 429 610 428 636 430 639 c 256
 467 637 496 634 533 634 c 256
 585 634 603 637 643 639 c 257
 645 633 644 610 641 610 c 256
 633 610 575 610 552 570 c 256
 514 503 437 359 394 279 c 256
 389.481 270.715 388.933 262.43 388.938 255 c 257
 485 255 l 257
 499 244 481 222 475 218 c 257
 388.929 218 l 257
 388.863 203.179 388.758 188.457 388.643 175 c 257
 485 175 l 257
 499 164 481 142 475 138 c 257
 388.272 138 l 257
 388.118 124.461 388 116 388 116 c 258
 388 86 388 58 393 42 c 256
 396 31 450 26 462 26 c 257
 466 21 467 2 462 -3 c 257
 421 -1 384 2 345 2 c 256
 306 2 268 -1 227 -3 c 257
 222 2 223 21 227 26 c 257
 239 26 293 31 296 42 c 256
 301 58 301 86 301 116 c 258
 301 138 l 257
 203 138 l 257
 197 144 214 175 223 175 c 258
 301 175 l 257
 301 218 l 257
 203 218 l 257
EndSplineSet
PickledDataWithLists: "(dp1
S'com.fontlab.hintData'
p2
(dp3
S'vhints'
p4
(lp5
(dp6
S'position'
p7
I301
sS'width'
p8
I87
sasS'hhints'
p9
(lp10
(dp11
g7
I-3
sg8
I29
sa(dp12
g7
I138
sg8
I37
sa(dp13
g7
I218
sg8
I37
sa(dp14
g7
I611
sg8
I29
sass."
EndChar

StartChar: brokenbar
Encoding: 166 166 100
GlifName: brokenbar
Width: 214
VWidth: 0
GlyphClass: 2
Flags: HW
VStem: 82 51<-112 -108 -108 249 249 249 396 400 400 757 757 757>
LayerCount: 2
Fore
SplineSet
82 -115 m 258
 82 249 l 257
 82 249 81 255 87 257 c 256
 104 262 122 262 125 262 c 256
 134 262 133 256 133 256 c 257
 133 -108 l 258
 133 -116 89 -123 87 -123 c 256
 80 -123 82 -119 82 -115 c 258
82 393 m 258
 82 757 l 257
 82 757 81 763 87 765 c 256
 104 770 122 770 125 770 c 256
 134 770 133 764 133 764 c 257
 133 400 l 258
 133 392 89 385 87 385 c 256
 80 385 82 389 82 393 c 258
EndSplineSet
PickledDataWithLists: "(dp1
S'com.fontlab.hintData'
p2
(dp3
S'vhints'
p4
(lp5
(dp6
S'position'
p7
I82
sS'width'
p8
I51
sass."
EndChar

StartChar: section
Encoding: 167 167 101
GlifName: section
Width: 441
VWidth: 0
GlyphClass: 2
Flags: HW
HStem: -78 50<131 210.5> 603 50<231.5 311>
VStem: 38 54<398.5 425.5> 120 46<471 568> 276 46<7 104> 350 54<147.5 176.5>
LayerCount: 2
Fore
SplineSet
321 51 m 257
 338 78 350 99 350 135 c 256
 350 218 292 285 238 335 c 256
 190 379 120 435 120 507 c 256
 120 513 120 518 121 524 c 257
 104 497 92 476 92 440 c 256
 92 357 150 290 204 240 c 256
 252 196 322 140 322 68 c 256
 322 62 322 57 321 51 c 257
306 -4 m 256
 250 -64 196 -78 138 -78 c 256
 124 -78 111 -76 97 -70 c 257
 92 -60 91 -50 91 -44 c 256
 91 -30 111 -8 127 -8 c 256
 144 -8 153 -15 163 -20 c 256
 171 -24 180 -28 195 -28 c 256
 226 -28 276 -12 276 26 c 256
 276 72 201 149 154 192 c 256
 102 240 38 310 38 396 c 256
 38 455 97 536 131 574 c 256
 187 637 243 653 304 653 c 256
 318 653 331 651 345 645 c 257
 350 635 351 625 351 619 c 256
 351 605 331 583 315 583 c 256
 298 583 289 590 279 595 c 256
 271 599 262 603 247 603 c 256
 216 603 166 587 166 549 c 256
 166 503 241 426 288 383 c 256
 340 335 404 265 404 179 c 256
 404 116 340 33 306 -4 c 256
EndSplineSet
PickledDataWithLists: "(dp1
S'com.fontlab.hintData'
p2
(dp3
S'vhints'
p4
(lp5
(dp6
S'position'
p7
I38
sS'width'
p8
I54
sa(dp9
g7
I120
sg8
I46
sa(dp10
g7
I276
sg8
I46
sa(dp11
g7
I350
sg8
I54
sasS'hhints'
p12
(lp13
(dp14
g7
I-78
sg8
I50
sa(dp15
g7
I603
sg8
I50
sass."
EndChar

StartChar: copyright
Encoding: 169 169 103
GlifName: copyright
Width: 659
VWidth: 0
GlyphClass: 2
Flags: HW
HStem: 69 31<263.5 396.5 263.5 404.5> 195 32<326 351> 449 34<313 343 286.5 375.5> 584 31<263.5 396.5>
VStem: 56 33<275.5 408.5 275.5 417.5> 187 57<304.5 372.5 304.5 376> 572 31<275.5 408.5>
LayerCount: 2
Fore
SplineSet
56 342 m 256
 56 493 178 615 329 615 c 256
 480 615 603 493 603 342 c 256
 603 191 480 69 329 69 c 256
 178 69 56 191 56 342 c 256
89 342 m 256
 89 209 197 100 330 100 c 256
 463 100 572 209 572 342 c 256
 572 475 463 584 330 584 c 256
 197 584 89 475 89 342 c 256
187 336 m 256
 187 416 245 483 328 483 c 256
 358 483 406 477 440 464 c 257
 440 464 456 407 456 403 c 256
 456 398 447 394 440 394 c 256
 437 394 435 395 433 396 c 257
 430 409 411 449 340 449 c 256
 286 449 244 400 244 345 c 256
 244 264 303 227 349 227 c 256
 379 227 408 234 421 246 c 256
 433 257 434 279 436 279 c 256
 439 279 455 278 456 276 c 257
 456 273 443 217 436 214 c 256
 404 201 372 195 330 195 c 256
 249 195 187 257 187 336 c 256
EndSplineSet
PickledDataWithLists: "(dp1
S'com.fontlab.hintData'
p2
(dp3
S'vhints'
p4
(lp5
(dp6
S'position'
p7
I56
sS'width'
p8
I33
sa(dp9
g7
I187
sg8
I57
sa(dp10
g7
I572
sg8
I31
sasS'hhints'
p11
(lp12
(dp13
g7
I69
sg8
I31
sa(dp14
g7
I195
sg8
I32
sa(dp15
g7
I449
sg8
I34
sa(dp16
g7
I584
sg8
I31
sass."
EndChar

StartChar: ordfeminine
Encoding: 170 170 104
GlifName: ordfeminine
Width: 345
VWidth: 0
GlyphClass: 2
Flags: HW
HStem: 249 37<138 140> 526 30<162.5 171>
VStem: 47 57<322 343> 57 56 211 53<320 405 405 405 445 462>
LayerCount: 2
Fore
SplineSet
47 329 m 256
 47 357 67 378 82 384 c 256
 121 398 183 419 203 428 c 256
 210 431 211 433 211 445 c 258
 211 464 l 258
 211 495 190 526 152 526 c 256
 128 526 118 514 113 487 c 256
 109 463 98 454 81 454 c 256
 66 454 57 469 57 483 c 256
 57 486 59 497 62 500 c 256
 83 520 137 556 188 556 c 256
 227 556 264 515 264 462 c 258
 264 319 l 258
 264 300 269 286 285 286 c 256
 297 286 306 294 308 295 c 256
 310 295 311 292 311 290 c 256
 311 286 309 280 307 277 c 256
 299 269 270 250 255 250 c 256
 235 250 217 274 213 295 c 257
 205 287 152 249 128 249 c 256
 82 249 47 284 47 329 c 256
104 335 m 256
 104 309 125 286 151 286 c 256
 175 286 211 313 211 320 c 258
 211 405 l 257
 192 399 159 390 147 385 c 256
 122 375 104 361 104 335 c 256
EndSplineSet
PickledDataWithLists: "(dp1
S'com.fontlab.hintData'
p2
(dp3
S'vhints'
p4
(lp5
(dp6
S'position'
p7
I47
sS'width'
p8
I57
sa(dp9
g7
I57
sg8
I56
sa(dp10
g7
I211
sg8
I53
sasS'hhints'
p11
(lp12
(dp13
g7
I249
sg8
I37
sa(dp14
g7
I526
sg8
I30
sass."
EndChar

StartChar: guillemotleft
Encoding: 171 171 105
GlifName: guillemotleft
Width: 482
VWidth: 0
GlyphClass: 2
Flags: HW
LayerCount: 2
Fore
SplineSet
27 246 m 256
 27 256 28 255 32 264 c 257
 163 343 240 422 241 423 c 257
 257 418 261 414 263 411 c 257
 257 390 161 288 115 247 c 257
 161 206 257 104 263 83 c 257
 261 80 257 76 241 71 c 257
 240 72 163 151 32 230 c 257
 30 233 27 240 27 246 c 256
207 246 m 256
 207 256 208 255 212 264 c 257
 343 343 420 422 421 423 c 257
 437 418 441 414 443 411 c 257
 437 390 341 288 295 247 c 257
 341 206 437 104 443 83 c 257
 441 80 437 76 421 71 c 257
 420 72 343 151 212 230 c 257
 210 233 207 240 207 246 c 256
EndSplineSet
EndChar

StartChar: logicalnot
Encoding: 172 172 106
GlifName: logicalnot
Width: 587
VWidth: 0
GlyphClass: 2
Flags: HW
HStem: 364 56<60 456 51 516>
VStem: 456 60<169 364 364 364>
LayerCount: 2
Fore
SplineSet
45 374 m 257
 45 374 50 420 60 420 c 258
 516 420 l 257
 516 169 l 257
 515 168 489 154 469 154 c 257
 469 154 459 155 456 161 c 257
 456 364 l 257
 51 364 l 257
 51 364 45 364 45 374 c 257
EndSplineSet
PickledDataWithLists: "(dp1
S'com.fontlab.hintData'
p2
(dp3
S'vhints'
p4
(lp5
(dp6
S'position'
p7
I456
sS'width'
p8
I60
sasS'hhints'
p9
(lp10
(dp11
g7
I364
sg8
I56
sass."
EndChar

StartChar: registered
Encoding: 174 174 107
GlifName: registered
Width: 659
VWidth: 0
GlyphClass: 2
Flags: HW
HStem: 133 32<263.5 396.5 263.5 404.5> 273 14<206 206 315 315 477 477> 403 18<284 299 284 302> 536 17<310.5 330.5> 648 32<263.5 396.5>
VStem: 56 33<340.5 473.5 340.5 482.5> 237 47<325 403 421 500> 365 48<464 488> 572 31<340.5 473.5>
LayerCount: 2
Fore
SplineSet
56 407 m 256
 56 558 178 680 329 680 c 256
 480 680 603 558 603 407 c 256
 603 256 480 133 329 133 c 256
 178 133 56 256 56 407 c 256
89 407 m 256
 89 274 197 165 330 165 c 256
 463 165 572 274 572 407 c 256
 572 540 463 648 330 648 c 256
 197 648 89 540 89 407 c 256
206 273 m 257
 204 275 204 285 206 287 c 257
 211 287 234 289 235 294 c 256
 237 301 237 312 237 325 c 258
 237 502 l 258
 237 514 237 526 235 533 c 256
 234 538 211 540 206 540 c 257
 204 542 204 552 206 554 c 257
 223 553 247 552 263 552 c 256
 279 552 298 553 323 553 c 256
 361 553 413 527 413 479 c 256
 413 449 387 421 358 410 c 257
 380 373 402 344 430 310 c 256
 443 294 455 289 478 287 c 257
 480 285 477 274 477 273 c 257
 449 273 417 275 409 278 c 256
 403 280 392 283 382 296 c 256
 376 304 339 357 312 398 c 256
 309 402 305 403 299 403 c 258
 284 403 l 257
 284 325 l 258
 284 312 284 301 286 294 c 256
 287 289 310 287 315 287 c 257
 317 285 317 275 315 273 c 257
 298 274 277 275 261 275 c 256
 245 275 223 274 206 273 c 257
284 421 m 257
 302 421 l 258
 338 421 365 436 365 469 c 256
 365 507 354 536 307 536 c 256
 302 536 288 536 286 532 c 256
 284 527 284 513 284 500 c 258
 284 421 l 257
EndSplineSet
PickledDataWithLists: "(dp1
S'com.fontlab.hintData'
p2
(dp3
S'vhints'
p4
(lp5
(dp6
S'position'
p7
I56
sS'width'
p8
I33
sa(dp9
g7
I237
sg8
I47
sa(dp10
g7
I365
sg8
I48
sa(dp11
g7
I572
sg8
I31
sasS'hhints'
p12
(lp13
(dp14
g7
I133
sg8
I32
sa(dp15
g7
I273
sg8
I14
sa(dp16
g7
I403
sg8
I18
sa(dp17
g7
I536
sg8
I17
sa(dp18
g7
I648
sg8
I32
sass."
EndChar

StartChar: degree
Encoding: 176 176 109
GlifName: degree
Width: 274
VWidth: 0
GlyphClass: 2
Flags: HW
HStem: 437 37<120 154 120 164> 597 37<120 154>
VStem: 38 37<519 553 519 563> 198 37<519 553>
LayerCount: 2
Fore
SplineSet
38 536 m 256
 38 590 83 634 137 634 c 256
 191 634 235 590 235 536 c 256
 235 482 191 437 137 437 c 256
 83 437 38 482 38 536 c 256
75 536 m 256
 75 502 103 474 137 474 c 256
 171 474 198 502 198 536 c 256
 198 570 171 597 137 597 c 256
 103 597 75 570 75 536 c 256
EndSplineSet
PickledDataWithLists: "(dp1
S'com.fontlab.hintData'
p2
(dp3
S'vhints'
p4
(lp5
(dp6
S'position'
p7
I38
sS'width'
p8
I37
sa(dp9
g7
I198
sg8
I37
sasS'hhints'
p10
(lp11
(dp12
g7
I437
sg8
I37
sa(dp13
g7
I597
sg8
I37
sass."
EndChar

StartChar: plusminus
Encoding: 177 177 110
GlifName: plusminus
Width: 548
VWidth: 0
GlyphClass: 2
Flags: HW
HStem: 6 56<49 498 40 505> 305 56<49 245 49 245 40 245 301 498>
VStem: 245 56<103 305 103 305 103 305 361 561 561 561>
LayerCount: 2
Fore
SplineSet
34 16 m 256
 34 20 39 54 49 62 c 257
 505 62 l 258
 509 62 514 58 514 50 c 256
 514 34 506 14 498 6 c 257
 40 6 l 257
 40 6 34 6 34 16 c 256
34 315 m 256
 34 319 39 353 49 361 c 257
 245 361 l 257
 245 561 l 257
 261 567 281 572 288 572 c 256
 298 572 301 566 301 566 c 257
 301 361 l 257
 505 361 l 258
 509 361 514 357 514 349 c 256
 514 333 506 313 498 305 c 257
 301 305 l 257
 301 103 l 257
 289 94 268 92 258 92 c 256
 251 92 245 97 245 101 c 258
 245 305 l 257
 40 305 l 257
 40 305 34 305 34 315 c 256
EndSplineSet
PickledDataWithLists: "(dp1
S'com.fontlab.hintData'
p2
(dp3
S'vhints'
p4
(lp5
(dp6
S'position'
p7
I245
sS'width'
p8
I56
sasS'hhints'
p9
(lp10
(dp11
g7
I6
sg8
I56
sa(dp12
g7
I305
sg8
I56
sass."
EndChar

StartChar: uni00B2
Encoding: 178 178 111
GlifName: uni00B_2
Width: 358
VWidth: 0
GlyphClass: 2
Flags: HW
HStem: 254 55<121 241 241 261.5 121 283> 602 45<150 182>
VStem: 227 65<523.5 551>
LayerCount: 2
Fore
SplineSet
39 266 m 257
 79 310 139 363 180 418 c 256
 208 455 227 494 227 530 c 256
 227 572 203 602 161 602 c 256
 116 602 92 575 74 553 c 256
 70 549 56 565 57 570 c 257
 80 610 127 647 173 647 c 256
 243 647 292 603 292 540 c 256
 292 507 276 475 246 439 c 256
 219 407 169 358 121 309 c 257
 241 309 l 258
 282 309 295 353 301 363 c 256
 302 365 303 365 306 366 c 256
 309 366 317 364 320 360 c 257
 309 331 297 287 283 254 c 257
 51 254 l 258
 45 254 37 262 39 266 c 257
EndSplineSet
PickledDataWithLists: "(dp1
S'com.fontlab.hintData'
p2
(dp3
S'vhints'
p4
(lp5
(dp6
S'position'
p7
I227
sS'width'
p8
I65
sasS'hhints'
p9
(lp10
(dp11
g7
I254
sg8
I55
sa(dp12
g7
I602
sg8
I45
sass."
EndChar

StartChar: uni00B3
Encoding: 179 179 112
GlifName: uni00B_3
Width: 318
VWidth: 0
GlyphClass: 2
Flags: HW
HStem: 249 28<137.5 161.5> 607 39<135.5 155>
VStem: 193 56<547 569> 217 64<342 392.5>
LayerCount: 2
Fore
SplineSet
39 288 m 256
 39 308 54 321 70 321 c 256
 87 321 94 304 106 292 c 256
 116 282 130 277 145 277 c 256
 187 277 217 307 217 368 c 256
 217 417 182 454 145 454 c 256
 127 454 110 447 105 446 c 257
 103 448 101 453 100 457 c 256
 99 461 99 465 100 467 c 257
 149 477 193 507 193 556 c 256
 193 582 168 607 142 607 c 256
 105 607 78 576 72 570 c 257
 67 572 62 585 63 586 c 256
 77 607 109 646 162 646 c 256
 204 646 249 620 249 569 c 256
 249 525 213 496 191 486 c 257
 217 486 281 452 281 386 c 256
 281 298 205 249 118 249 c 256
 96 249 61 255 51 264 c 257
 51 264 39 275 39 288 c 256
EndSplineSet
PickledDataWithLists: "(dp1
S'com.fontlab.hintData'
p2
(dp3
S'vhints'
p4
(lp5
(dp6
S'position'
p7
I193
sS'width'
p8
I56
sa(dp9
g7
I217
sg8
I64
sasS'hhints'
p10
(lp11
(dp12
g7
I249
sg8
I28
sa(dp13
g7
I607
sg8
I39
sass."
EndChar

StartChar: mu
Encoding: 181 181 114
GlifName: mu
Width: 541
VWidth: 0
GlyphClass: 2
Flags: HW
HStem: -227 21<126 137> -9 73<180 228.5 177 236> 417 20<113 124 355 366>
VStem: 95 77<391 406.5 391 417> 95 43 337 77<391 406.5 391 417>
LayerCount: 2
Fore
SplineSet
78 -190 m 256
 78 -172 87 100 99 204 c 257
 99 228 95 275 95 298 c 256
 95 311 96 379 95 417 c 257
 100 425 107 437 119 437 c 256
 129 437 172 413 172 400 c 256
 172 382 168 335 149 246 c 256
 148 240 144 223 144 223 c 257
 144 144 159 64 195 64 c 256
 262 64 312 155 337 227 c 257
 337 298 l 258
 337 311 338 379 337 417 c 257
 342 425 349 437 361 437 c 256
 371 437 414 413 414 400 c 256
 414 382 405 335 391 246 c 256
 389 236 381 195 381 195 c 257
 381 124 405 66 451 66 c 256
 477 66 495 87 502 96 c 257
 505 96 508 92 511 87 c 256
 513 83 514 79 514 76 c 256
 501 32 461 -4 421 -4 c 256
 373 -3 358 115 356 142 c 257
 326 72 271 -9 201 -9 c 256
 159 -9 143 71 138 101 c 257
 140 76 133 -89 155 -207 c 257
 150 -215 143 -227 131 -227 c 256
 121 -227 78 -203 78 -190 c 256
EndSplineSet
PickledDataWithLists: "(dp1
S'com.fontlab.hintData'
p2
(dp3
S'vhints'
p4
(lp5
(dp6
S'position'
p7
I95
sS'width'
p8
I77
sa(dp9
g7
I95
sg8
I43
sa(dp10
g7
I337
sg8
I77
sasS'hhints'
p11
(lp12
(dp13
g7
I-227
sg8
I21
sa(dp14
g7
I-9
sg8
I73
sa(dp15
g7
I417
sg8
I20
sass."
EndChar

StartChar: paragraph
Encoding: 182 182 115
GlifName: paragraph
Width: 484
VWidth: 0
GlyphClass: 2
Flags: HW
HStem: -4 27<431 431> 2 34<291 296.5 291 328.5> 288 40<265 268> 299 40<361 362> 611 37<288 298>
VStem: 34 231<434 523.5> 226 39<116 287 287 287> 322 40<339 540 339 606>
LayerCount: 2
Fore
SplineSet
34 469 m 256
 34 578 123 652 205 652 c 256
 264 652 243 648 302 648 c 256
 369 648 423 653 423 653 c 257
 428 648 427 627 422 624 c 257
 407 624 370 616 365 604 c 256
 363 597 362 591 362 540 c 258
 362 339 l 257
 367 338 411 352 411 352 c 257
 416 352 421 350 421 346 c 256
 420 336 399 312 392 309 c 256
 381 304 369 300 361 299 c 257
 361 116 l 258
 361 86 361 58 366 42 c 256
 369 31 419 23 431 23 c 256
 433 23 433 -2 431 -4 c 257
 368 -2 360 2 297 2 c 256
 251 2 198 -2 158 -4 c 257
 156 2 155 19 160 23 c 257
 168 23 218 31 221 42 c 256
 226 58 226 86 226 116 c 258
 226 287 l 257
 98 287 34 399 34 469 c 256
265 116 m 258
 265 86 265 58 268 42 c 256
 269 35 289 36 293 36 c 256
 300 36 318 36 319 42 c 256
 322 58 322 86 322 116 c 258
 321 292 l 257
 307 291 281 289 265 288 c 257
 265 116 l 258
265 328 m 257
 271 328 318 330 322 333 c 257
 322 606 l 257
 318 610 303 611 293 611 c 256
 283 611 271 611 265 605 c 257
 265 328 l 257
EndSplineSet
PickledDataWithLists: "(dp1
S'com.fontlab.hintData'
p2
(dp3
S'vhints'
p4
(lp5
(dp6
S'position'
p7
I34
sS'width'
p8
I231
sa(dp9
g7
I226
sg8
I39
sa(dp10
g7
I322
sg8
I40
sasS'hhints'
p11
(lp12
(dp13
g7
I-4
sg8
I27
sa(dp14
g7
I2
sg8
I34
sa(dp15
g7
I288
sg8
I40
sa(dp16
g7
I299
sg8
I40
sa(dp17
g7
I611
sg8
I37
sass."
EndChar

StartChar: periodcentered
Encoding: 183 183 116
GlifName: periodcentered
Width: 224
VWidth: 0
GlyphClass: 2
Flags: HW
HStem: 205 117<96 128>
VStem: 54 116<248 280>
LayerCount: 2
Fore
SplineSet
54 264 m 256
 54 296 80 322 112 322 c 256
 144 322 170 296 170 264 c 256
 170 232 144 205 112 205 c 256
 80 205 54 232 54 264 c 256
EndSplineSet
PickledDataWithLists: "(dp1
S'com.fontlab.hintData'
p2
(dp3
S'vhints'
p4
(lp5
(dp6
S'position'
p7
I54
sS'width'
p8
I116
sasS'hhints'
p9
(lp10
(dp11
g7
I205
sg8
I117
sass."
EndChar

StartChar: uni00B9
Encoding: 185 185 118
GlifName: uni00B_9
Width: 292
VWidth: 0
GlyphClass: 2
Flags: HW
HStem: 253 25<61 61>
VStem: 123 74<338 340 340 518 518 541>
LayerCount: 2
Fore
SplineSet
39 570 m 256
 39 573 40 577 42 578 c 256
 148 622 189 652 192 652 c 258
 194 652 l 258
 200 652 205 632 206 629 c 257
 206 629 197 587 197 548 c 258
 197 340 l 258
 197 320 198 309 205 293 c 256
 208 286 249 279 257 279 c 256
 260 279 260 257 257 253 c 257
 218 254 200 256 161 256 c 256
 122 256 100 254 61 253 c 257
 56 256 56 278 61 278 c 256
 73 278 114 285 117 292 c 256
 122 305 123 328 123 338 c 258
 123 518 l 258
 123 564 115 569 104 569 c 256
 92 569 68 560 48 553 c 257
 42 556 39 564 39 570 c 256
EndSplineSet
PickledDataWithLists: "(dp1
S'com.fontlab.hintData'
p2
(dp3
S'vhints'
p4
(lp5
(dp6
S'position'
p7
I123
sS'width'
p8
I74
sasS'hhints'
p9
(lp10
(dp11
g7
I253
sg8
I25
sass."
EndChar

StartChar: ordmasculine
Encoding: 186 186 119
GlifName: ordmasculine
Width: 388
VWidth: 0
GlyphClass: 2
Flags: HW
HStem: 247 24<171 231.5 171 239.5> 530 24<158 219.5>
VStem: 38 69<378 439 378 441.5> 281 69<363.5 423.5>
LayerCount: 2
Fore
SplineSet
38 399 m 256
 38 484 107 554 196 554 c 256
 283 554 350 486 350 403 c 256
 350 320 283 247 196 247 c 256
 109 247 38 316 38 399 c 256
107 411 m 256
 107 345 138 271 204 271 c 256
 259 271 281 336 281 391 c 256
 281 456 252 530 187 530 c 256
 129 530 107 467 107 411 c 256
EndSplineSet
PickledDataWithLists: "(dp1
S'com.fontlab.hintData'
p2
(dp3
S'vhints'
p4
(lp5
(dp6
S'position'
p7
I38
sS'width'
p8
I69
sa(dp9
g7
I281
sg8
I69
sasS'hhints'
p10
(lp11
(dp12
g7
I247
sg8
I24
sa(dp13
g7
I530
sg8
I24
sass."
EndChar

StartChar: guillemotright
Encoding: 187 187 120
GlifName: guillemotright
Width: 482
VWidth: 0
GlyphClass: 2
Flags: HW
LayerCount: 2
Fore
SplineSet
41 83 m 257
 47 104 143 206 189 247 c 257
 143 288 47 390 41 411 c 257
 43 414 47 418 63 423 c 257
 64 422 141 343 272 264 c 257
 276 255 277 256 277 246 c 256
 277 240 274 233 272 230 c 257
 141 151 64 72 63 71 c 257
 47 76 43 80 41 83 c 257
221 83 m 257
 227 104 323 206 369 247 c 257
 323 288 227 390 221 411 c 257
 223 414 227 418 243 423 c 257
 244 422 321 343 452 264 c 257
 456 255 457 256 457 246 c 256
 457 240 454 233 452 230 c 257
 321 151 244 72 243 71 c 257
 227 76 223 80 221 83 c 257
EndSplineSet
EndChar

StartChar: onequarter
Encoding: 188 188 121
GlifName: onequarter
Width: 699
VWidth: 0
GlyphClass: 2
Flags: HW
HStem: -3 21<580.5 594> 106 45<442 556 442 556 615 651> 251 22<54 54 232 232>
VStem: 112 62<334 336 336 520 520 529.5> 556 59<2 106 0 106 151 305 305 305>
LayerCount: 2
Fore
SplineSet
34 558 m 257
 53 570 84 588 169 638 c 257
 176 636 182 629 182 622 c 258
 182 622 174 573 174 534 c 258
 174 336 l 258
 174 316 176 302 181 287 c 256
 183 280 223 273 231 273 c 257
 236 268 233 253 232 251 c 257
 193 252 185 254 146 254 c 256
 107 254 93 252 54 251 c 257
 49 254 50 269 54 273 c 257
 66 273 101 281 104 288 c 256
 109 301 112 324 112 334 c 258
 112 520 l 258
 112 539 105 555 95 555 c 256
 84 555 67 547 47 540 c 257
 41 543 36 552 34 558 c 257
175 -4 m 257
 524 636 l 258
 525 639 538 647 555 644 c 256
 561 643 563 637 563 634 c 257
 218 2 l 258
 215 -4 202 -16 186 -13 c 256
 175 -11 175 -4 175 -4 c 257
381 122 m 257
 586 395 l 258
 592.005 402.996 598 407 606 407 c 256
 612 407 615 400 615 395 c 258
 615 151 l 257
 651 151 l 257
 660 143 664 120 656 106 c 257
 615 106 l 257
 615 0 l 257
 613 -2 601 -3 587 -3 c 256
 574 -3 561 -2 556 2 c 257
 556 106 l 257
 391 106 l 257
 386 107 382 111 381 122 c 257
442 151 m 257
 556 151 l 257
 556 305 l 257
 515 253 487 209 442 151 c 257
EndSplineSet
PickledDataWithLists: "(dp1
S'com.fontlab.hintData'
p2
(dp3
S'vhints'
p4
(lp5
(dp6
S'position'
p7
I112
sS'width'
p8
I62
sa(dp9
g7
I556
sg8
I59
sasS'hhints'
p10
(lp11
(dp12
g7
I-3
sg8
I21
sa(dp13
g7
I106
sg8
I45
sa(dp14
g7
I251
sg8
I22
sass."
EndChar

StartChar: onehalf
Encoding: 189 189 122
GlifName: onehalf
Width: 750
VWidth: 0
GlyphClass: 2
Flags: HW
HStem: -1 55<517 637 637 657.5 517 679> 251 22<57 57 235 235> 347 45<546 578>
VStem: 115 62<334 336 336 520 520 529.5> 623 65<268.5 296>
LayerCount: 2
Fore
SplineSet
37 558 m 257
 56 570 87 588 172 638 c 257
 179 636 185 629 185 622 c 258
 185 622 177 573 177 534 c 258
 177 336 l 258
 177 316 179 302 184 287 c 256
 186 280 226 273 234 273 c 257
 239 268 236 253 235 251 c 257
 196 252 188 254 149 254 c 256
 110 254 96 252 57 251 c 257
 52 254 53 269 57 273 c 257
 69 273 104 281 107 288 c 256
 112 301 115 324 115 334 c 258
 115 520 l 258
 115 539 108 555 98 555 c 256
 87 555 70 547 50 540 c 257
 44 543 39 552 37 558 c 257
176 -4 m 257
 525 636 l 258
 526 639 539 647 556 644 c 256
 562 643 564 637 564 634 c 257
 219 2 l 258
 216 -4 203 -16 187 -13 c 256
 176 -11 176 -4 176 -4 c 257
435 11 m 257
 473 52 527 101 567 152 c 256
 599 193 623 235 623 275 c 256
 623 317 599 347 557 347 c 256
 512 347 488 320 470 298 c 256
 466 294 452 310 453 315 c 257
 476 355 523 392 569 392 c 256
 639 392 688 348 688 285 c 256
 688 252 672 220 642 184 c 256
 615 152 565 103 517 54 c 257
 637 54 l 258
 678 54 691 98 697 108 c 256
 698 110 699 110 702 111 c 256
 705 111 713 109 716 105 c 257
 705 76 693 32 679 -1 c 257
 447 -1 l 258
 441 -1 433 7 435 11 c 257
EndSplineSet
PickledDataWithLists: "(dp1
S'com.fontlab.hintData'
p2
(dp3
S'vhints'
p4
(lp5
(dp6
S'position'
p7
I115
sS'width'
p8
I62
sa(dp9
g7
I623
sg8
I65
sasS'hhints'
p10
(lp11
(dp12
g7
I-1
sg8
I55
sa(dp13
g7
I251
sg8
I22
sa(dp14
g7
I347
sg8
I45
sass."
EndChar

StartChar: threequarters
Encoding: 190 190 123
GlifName: threequarters
Width: 700
VWidth: 0
GlyphClass: 2
Flags: HW
HStem: -3 21<581.5 595> 106 45<443 557 443 557 616 652> 249 28<133.5 157.5> 607 39<131.5 151>
VStem: 189 56<547 569> 213 64<342 392.5> 557 59<2 106 0 106 151 305 305 305>
LayerCount: 2
Fore
SplineSet
382 122 m 257
 587 395 l 258
 593.005 402.996 599 407 607 407 c 256
 613 407 616 400 616 395 c 258
 616 151 l 257
 652 151 l 257
 661 143 665 120 657 106 c 257
 616 106 l 257
 616 0 l 257
 614 -2 602 -3 588 -3 c 256
 575 -3 562 -2 557 2 c 257
 557 106 l 257
 392 106 l 257
 387 107 383 111 382 122 c 257
443 151 m 257
 557 151 l 257
 557 305 l 257
 516 253 488 209 443 151 c 257
35 288 m 256
 35 308 50 321 66 321 c 256
 83 321 90 304 102 292 c 256
 112 282 126 277 141 277 c 256
 183 277 213 307 213 368 c 256
 213 417 178 454 141 454 c 256
 123 454 106 447 101 446 c 257
 98.7565 448.243 92.8758 460.752 96 467 c 257
 145 477 189 507 189 556 c 256
 189 582 164 607 138 607 c 256
 101 607 74 576 68 570 c 257
 63 572 58 585 59 586 c 256
 73 607 105 646 158 646 c 256
 200 646 245 620 245 569 c 256
 245 525 209 496 187 486 c 257
 213 486 277 452 277 386 c 256
 277 298 201 249 114 249 c 256
 92 249 57 255 47 264 c 257
 47 264 35 275 35 288 c 256
181 -4 m 257
 530 636 l 258
 531 639 544 647 561 644 c 256
 567 643 569 637 569 634 c 257
 224 2 l 258
 221 -4 208 -16 192 -13 c 256
 181 -11 181 -4 181 -4 c 257
EndSplineSet
PickledDataWithLists: "(dp1
S'com.fontlab.hintData'
p2
(dp3
S'vhints'
p4
(lp5
(dp6
S'position'
p7
I189
sS'width'
p8
I56
sa(dp9
g7
I213
sg8
I64
sa(dp10
g7
I557
sg8
I59
sasS'hhints'
p11
(lp12
(dp13
g7
I-3
sg8
I21
sa(dp14
g7
I106
sg8
I45
sa(dp15
g7
I249
sg8
I28
sa(dp16
g7
I607
sg8
I39
sass."
EndChar

StartChar: questiondown
Encoding: 191 191 124
GlifName: questiondown
Width: 345
VWidth: 0
GlyphClass: 2
Flags: HW
HStem: -223 73<146 248.5> 320 110<217 247>
VStem: 41 50<-94 -44 -94 -6> 178 110<359 389> 226 29
LayerCount: 2
Fore
SplineSet
295 -179 m 256
 295 -194 291 -209 286 -216 c 257
 276 -221 259 -223 238 -223 c 256
 172 -223 41 -155 41 -38 c 256
 41 26 66 71 129 107 c 256
 160 125 211 161 220 177 c 256
 230 194 226 224 226 247 c 257
 230 255 233 259 242 260 c 257
 247 258 252 255 255 249 c 257
 260 228 263 185 263 158 c 256
 263 84 215 58 178 34 c 256
 129 3 91 -20 91 -68 c 256
 91 -120 127 -150 165 -150 c 256
 218 -150 225 -129 251 -129 c 256
 265 -129 295 -146 295 -179 c 256
178 374 m 256
 178 404 202 430 232 430 c 256
 262 430 288 404 288 374 c 256
 288 344 262 320 232 320 c 256
 202 320 178 344 178 374 c 256
EndSplineSet
PickledDataWithLists: "(dp1
S'com.fontlab.hintData'
p2
(dp3
S'vhints'
p4
(lp5
(dp6
S'position'
p7
I41
sS'width'
p8
I50
sa(dp9
g7
I178
sg8
I110
sa(dp10
g7
I226
sg8
I29
sasS'hhints'
p11
(lp12
(dp13
g7
I-223
sg8
I73
sa(dp14
g7
I320
sg8
I110
sass."
Substitution2: "smcpLowercasetoSmallCapitalslookup12 subtable" questiondown.sc
Substitution2: "c2scCapitalstoSmallCapitalslookup11 subtable" questiondown.sc
Substitution2: "smcpLowercasetoSmallCapitalslookup2 subtable" questiondown.sc
Substitution2: "c2scCapitalstoSmallCapitalsinLatinlookup0 subtable" questiondown.sc
EndChar

StartChar: Aring
Encoding: 197 197 130
GlifName: A_ring
Width: 627
VWidth: 0
GlyphClass: 2
Flags: HW
HStem: -3 29<405 405 4.29497e+09 4.29497e+09> 253 39 643 20<321.5 327.5> 694 34<298 328 298 337> 839 34<298 328>
VStem: 224 33<768.5 799.5 768.5 808.5> 367 33<768.5 799.5>
LayerCount: 2
Fore
SplineSet
257 784 m 256
 257 753 283 728 313 728 c 256
 343 728 367 753 367 784 c 256
 367 815 343 839 313 839 c 256
 283 839 257 815 257 784 c 256
224 784 m 256
 224 833 265 873 313 873 c 256
 361 873 400 833 400 784 c 256
 400 735 361 694 313 694 c 256
 265 694 224 735 224 784 c 256
199 298 m 257
 199 298 l 257
-12 -3 m 256
 -15 0 -15 19 -12 26 c 257
 0 26 38 32 48 45 c 256
 68 71 81 103 95 139 c 258
 95 139 227 478 288 634 c 256
 293 644 317 663 326 663 c 256
 329 663 329 661 332 660 c 257
 536 126 l 258
 550 89 559 64 561 60 c 256
 571 36 621 26 629 26 c 257
 634 19 632 0 631 -3 c 256
 591 -1 565 2 521 2 c 256
 475 2 451 -1 405 -3 c 257
 400 2 401 21 406 26 c 257
 418 26 453 31 462 39 c 256
 465 42 466 47 466 53 c 256
 466 83 398 248 398 248 c 257
 398 248 395 252 392 252 c 256
 366 254 318 253 293 253 c 256
 252 253 230 253 185 250 c 256
 183 250 180 247 180 247 c 257
 180 247 152 173 135 125 c 256
 123 90 121 67 121 54 c 256
 121 30 182 26 190 26 c 256
 193 23 194 3 192 -3 c 257
 152 -1 139 2 95 2 c 256
 49 2 34 -1 -12 -3 c 256
EndSplineSet
PickledDataWithLists: "(dp1
S'com.fontlab.hintData'
p2
(dp3
S'vhints'
p4
(lp5
(dp6
S'position'
p7
I224
sS'width'
p8
I33
sa(dp9
g7
I367
sg8
I33
sasS'hhints'
p10
(lp11
(dp12
g7
I-3
sg8
I29
sa(dp13
g7
I253
sg8
I39
sa(dp14
g7
I643
sg8
I20
sa(dp15
g7
I694
sg8
I34
sa(dp16
g7
I839
sg8
I34
sass."
Substitution2: "c2scCapitalstoSmallCapitalslookup11 subtable" aring.sc
Substitution2: "c2scCapitalstoSmallCapitalsinLatinlookup0 subtable" aring.sc
EndChar

StartChar: AE
Encoding: 198 198 131
GlifName: A_E_
Width: 897
VWidth: 0
GlyphClass: 2
Flags: HW
HStem: -3 29<357 357> 0 34 257 38<334.5 353.5> 312 37<573 606> 408 20<732.5 739.5> 624 40 624 33
VStem: 430 85<135 255 255 255 297 303 352.5 355 355 542> 721 32 791 32
LayerCount: 2
Fore
SplineSet
-14 -3 m 257
 -17 0 -17 19 -14 26 c 257
 -2 26 29 36 43 45 c 256
 68 61 98 104 118 137 c 258
 395 584 l 258
 398 589 402 597 402 604 c 256
 402 622 369 629 357 629 c 257
 352 635 355 656 357 658 c 257
 357 658 406 657 473 657 c 256
 567 657 685 664 794 664 c 257
 801 614 814 573 823 528 c 257
 820 525 812 523 805 523 c 256
 798 523 792 525 791 530 c 256
 769 610 728 624 675 624 c 258
 589 624 l 258
 577 624 523 623 520 613 c 256
 515 597 515 569 515 542 c 258
 515 355 l 258
 515 350 536 349 558 349 c 258
 611 349 l 258
 707 349 704 355 721 421 c 256
 722 426 729 428 736 428 c 256
 743 428 750 426 753 423 c 257
 753 234 l 257
 751 232 744 230 737 230 c 256
 730 230 723 233 721 238 c 256
 706 295 702 298 693 304 c 256
 682 311 625 312 587 312 c 256
 559 312 515 312 515 303 c 258
 515 113 l 258
 515 98 515 49 521 44 c 256
 534 34 550 34 592 34 c 258
 640 34 l 258
 687 34 738 44 766 61 c 256
 798 80 813 119 829 162 c 256
 830 166 836 168 843 168 c 256
 853 168 865 165 868 162 c 257
 849 108 821 40 814 -4 c 257
 705 -4 606 0 473 0 c 256
 406 0 357 -3 357 -3 c 257
 353 2 355 26 357 26 c 256
 369 26 418 37 423 49 c 257
 429 72 430 118 430 135 c 258
 430 255 l 257
 412 256 366 257 341 257 c 256
 300 257 285 255 239 252 c 256
 237 252 234 249 234 249 c 257
 234 249 192 178 161 129 c 256
 141 98 121 65 121 52 c 256
 121 28 177 26 185 26 c 257
 188 23 189 3 187 -3 c 257
 147 -1 134 2 90 2 c 256
 44 2 32 -1 -14 -3 c 257
266 300 m 257
 266 300 265 296 267 296 c 256
 293 295 323 295 346 295 c 256
 377 295 411 296 430 297 c 257
 430 566 l 257
 409 533 266 300 266 300 c 257
EndSplineSet
PickledDataWithLists: "(dp1
S'com.fontlab.hintData'
p2
(dp3
S'vhints'
p4
(lp5
(dp6
S'position'
p7
I430
sS'width'
p8
I85
sa(dp9
g7
I721
sg8
I32
sa(dp10
g7
I791
sg8
I32
sasS'hhints'
p11
(lp12
(dp13
g7
I-3
sg8
I29
sa(dp14
g7
I0
sg8
I34
sa(dp15
g7
I257
sg8
I38
sa(dp16
g7
I312
sg8
I37
sa(dp17
g7
I408
sg8
I20
sa(dp18
g7
I624
sg8
I40
sa(dp19
g7
I624
sg8
I33
sass."
Substitution2: "c2scCapitalstoSmallCapitalslookup11 subtable" ae.sc
EndChar

StartChar: Ccedilla
Encoding: 199 199 132
GlifName: C_cedilla
Width: 674
VWidth: 0
GlyphClass: 2
Flags: HW
HStem: -174 28<357.5 381.5> -67 40<380 389.5> -6 33 634 33<318 420 288.5 475.5>
VStem: 49 99<265 413 265 415.5> 418 44<-112.5 -93> 588 34 601 32
LayerCount: 2
Fore
SplineSet
307 -147 m 256
 307 -139 317 -131 324 -131 c 256
 338 -131 348 -146 367 -146 c 256
 400 -146 418 -127 418 -107 c 256
 418 -79 397 -67 382 -67 c 256
 369 -67 363 -70 351 -75 c 256
 349 -75 337 -65 339 -60 c 256
 348.788 -43.9827 364.12 -22.4226 373.72 -5.88881 c 257
 180.763 -1.25188 49 147.779 49 322 c 256
 49 509 190 667 387 667 c 256
 453 667 525 662 599 646 c 257
 599 646 622 508 622 498 c 256
 623 492 610 485 600 485 c 256
 594 485 591 486 588 488 c 256
 582 519 559 634 392 634 c 256
 244 634 148 483 148 343 c 256
 148 187 234 27 408 27 c 256
 469 27 511 49 540 75 c 256
 579 110 594 158 601 191 c 257
 611 192 624 189 633 183 c 257
 633 163 612 51 598 39 c 256
 545.869 9.61728 482.06 -4.49296 397.205 -5.88526 c 257
 380 -27 l 257
 410 -27 l 258
 441 -27 462 -54 462 -85 c 256
 462 -140 412 -174 351 -174 c 256
 337 -174 318 -169 311 -164 c 257
 310 -158 307 -154 307 -147 c 256
EndSplineSet
PickledDataWithLists: "(dp1
S'com.fontlab.hintData'
p2
(dp3
S'vhints'
p4
(lp5
(dp6
S'position'
p7
I49
sS'width'
p8
I99
sa(dp9
g7
I418
sg8
I44
sa(dp10
g7
I588
sg8
I34
sa(dp11
g7
I601
sg8
I32
sasS'hhints'
p12
(lp13
(dp14
g7
I-174
sg8
I28
sa(dp15
g7
I-67
sg8
I40
sa(dp16
g7
I-6
sg8
I33
sa(dp17
g7
I634
sg8
I33
sass."
Substitution2: "c2scCapitalstoSmallCapitalslookup11 subtable" ccedilla.sc
Substitution2: "c2scCapitalstoSmallCapitalsinLatinlookup0 subtable" ccedilla.sc
EndChar

StartChar: Eth
Encoding: 208 208 141
GlifName: E_th
Width: 710
VWidth: 0
GlyphClass: 2
Flags: HW
HStem: -3 29<45 51 45 295 45 51> 311 37<47 119 50 119 50 119 207 365> 626 32<286 353> 633 29<45 45>
VStem: 119 88<116 311 348 541> 560 99<249 426>
LayerCount: 2
Fore
SplineSet
49 311 m 258
 45 311 44 339 50 348 c 257
 119 348 l 257
 119 543 l 258
 119 573 119 601 114 617 c 256
 111 628 57 633 45 633 c 257
 41 638 40 657 45 662 c 257
 86 660 124 657 163 657 c 256
 202 657 264 658 308 658 c 256
 527 658 659 519 659 334 c 256
 659 164 577 -3 295 -3 c 258
 45 -3 l 257
 40 2 41 21 45 26 c 257
 57 26 111 31 114 42 c 256
 119 58 119 86 119 116 c 258
 119 311 l 257
 49 311 l 258
207 115 m 258
 207 101 208 49 213 43 c 256
 221 32 258 29 295 29 c 256
 437 29 560 118 560 313 c 256
 560 539 425 626 281 626 c 256
 269 626 215 625 212 615 c 256
 207 599 207 570 207 541 c 258
 207 348 l 257
 365 348 l 258
 369 348 369 320 365 311 c 257
 207 311 l 257
 207 115 l 258
EndSplineSet
PickledDataWithLists: "(dp1
S'com.fontlab.hintData'
p2
(dp3
S'vhints'
p4
(lp5
(dp6
S'position'
p7
I119
sS'width'
p8
I88
sa(dp9
g7
I560
sg8
I99
sasS'hhints'
p10
(lp11
(dp12
g7
I-3
sg8
I29
sa(dp13
g7
I311
sg8
I37
sa(dp14
g7
I626
sg8
I32
sa(dp15
g7
I633
sg8
I29
sass."
Substitution2: "c2scCapitalstoSmallCapitalslookup11 subtable" eth.sc
Substitution2: "c2scCapitalstoSmallCapitalsinLatinlookup0 subtable" eth.sc
EndChar

StartChar: multiply
Encoding: 215 215 148
GlifName: multiply
Width: 464
VWidth: 0
GlyphClass: 2
Flags: HW
HStem: 409 20<74.5 80.5 384.5 390.5>
LayerCount: 2
Fore
SplineSet
55 105 m 257
 199 247 l 257
 55 391 l 257
 55 405 70 429 79 429 c 256
 82 429 84 429 86 427 c 258
 235 283 l 257
 380 427 l 258
 381 428 383 429 386 429 c 256
 395 429 408 399 408 389 c 257
 268 250 l 257
 269 249 408 105 408 105 c 257
 408 90 397 65 386 65 c 256
 384 65 381 65 379 67 c 258
 232 214 l 257
 83 66 l 258
 81 65 79 64 77 64 c 256
 68 64 55 95 55 105 c 257
EndSplineSet
PickledDataWithLists: "(dp1
S'com.fontlab.hintData'
p2
(dp3
S'hhints'
p4
(lp5
(dp6
S'position'
p7
I409
sS'width'
p8
I20
sass."
Substitution2: "smcpLowercasetoSmallCapitalslookup12 subtable" multiply.sc
Substitution2: "c2scCapitalstoSmallCapitalslookup11 subtable" multiply.sc
Substitution2: "smcpLowercasetoSmallCapitalslookup2 subtable" multiply.sc
EndChar

StartChar: Oslash
Encoding: 216 216 149
GlifName: O_slash
Width: 748
VWidth: 0
GlyphClass: 2
Flags: HW
HStem: -10 34<359.069 461> 633 34<285 387.291> 647 20<285 402.552 565 565>
VStem: 49 99<309.289 417 309.289 421.5> 600 99<241.5 350.428>
LayerCount: 2
Fore
SplineSet
49 328 m 256
 49 515 197 667 373 667 c 256
 432.103 667 488.274 651.212 536.818 622.704 c 257
 565 667 l 257
 574 665 598 651 594 645 c 258
 567.044 602.567 l 257
 646.442 542.917 699 445.795 699 328 c 256
 699 141 549 -10 373 -10 c 256
 312.802 -10 255.88 6.37822 207.035 35.8535 c 257
 176 -13 l 257
 167 -10 143 4 147 10 c 258
 176.685 56.6582 l 257
 99.5451 116.387 49 212.289 49 328 c 256
503.578 570.459 m 257
 465.449 608.86 416.581 633 358 633 c 256
 208 633 148 484 148 350 c 256
 148 268.579 171.731 182.742 216.728 119.597 c 257
 503.578 570.459 l 257
528.323 541.614 m 257
 241.269 89.744 l 257
 279.568 49.5053 329.138 24 389 24 c 256
 539 24 600 174 600 309 c 256
 600 391.855 575.14 478.71 528.323 541.614 c 257
EndSplineSet
PickledDataWithLists: "(dp1
S'com.fontlab.hintData'
p2
(dp3
S'vhints'
p4
(lp5
(dp6
S'position'
p7
I49
sS'width'
p8
I99
sa(dp9
g7
I600
sg8
I99
sasS'hhints'
p10
(lp11
(dp12
g7
I-10
sg8
I34
sa(dp13
g7
I633
sg8
I34
sa(dp14
g7
I647
sg8
I20
sass."
Substitution2: "c2scCapitalstoSmallCapitalslookup11 subtable" oslash.sc
Substitution2: "c2scCapitalstoSmallCapitalsinLatinlookup0 subtable" oslash.sc
EndChar

StartChar: Thorn
Encoding: 222 222 155
GlifName: T_horn
Width: 548
VWidth: 0
GlyphClass: 2
Flags: HW
HStem: -3 29<45 45 280 280> 128 28<292.5 324 276.5 363.5> 470 39<316.5 329> 633 29<45 45 280 280>
VStem: 119 87<116 360 480 543> 426 92<268 361.5>
LayerCount: 2
Fore
SplineSet
45 -3 m 257
 40 2 41 21 45 26 c 257
 57 26 111 31 114 42 c 256
 119 58 119 86 119 116 c 258
 119 543 l 258
 119 573 119 601 114 617 c 256
 111 628 57 633 45 633 c 257
 41 638 40 657 45 662 c 257
 86 660 124 657 163 657 c 256
 202 657 239 660 280 662 c 257
 285 657 284 638 280 633 c 257
 268 633 214 628 211 617 c 256
 206 601 206 573 206 543 c 258
 206 480 l 257
 243 506 308 509 325 509 c 256
 406 509 518 445 518 329 c 256
 518 207 429 128 298 128 c 256
 287 128 265 131 255 136 c 256
 252 138 241 146 241 158 c 256
 241 160 242 164 246 163 c 256
 257 160 269 156 284 156 c 256
 364 156 426 212 426 312 c 256
 426 411 370 470 288 470 c 256
 276 470 229 464 214 440 c 256
 207 429 206 390 206 360 c 258
 206 116 l 258
 206 86 206 58 211 42 c 256
 214 31 268 26 280 26 c 257
 284 21 285 2 280 -3 c 257
 239 -1 202 2 163 2 c 256
 124 2 86 -1 45 -3 c 257
EndSplineSet
PickledDataWithLists: "(dp1
S'com.fontlab.hintData'
p2
(dp3
S'vhints'
p4
(lp5
(dp6
S'position'
p7
I119
sS'width'
p8
I87
sa(dp9
g7
I426
sg8
I92
sasS'hhints'
p10
(lp11
(dp12
g7
I-3
sg8
I29
sa(dp13
g7
I128
sg8
I28
sa(dp14
g7
I470
sg8
I39
sa(dp15
g7
I633
sg8
I29
sass."
Substitution2: "c2scCapitalstoSmallCapitalslookup11 subtable" thorn.sc
Substitution2: "c2scCapitalstoSmallCapitalsinLatinlookup0 subtable" thorn.sc
EndChar

StartChar: germandbls
Encoding: 223 223 156
GlifName: germandbls
Width: 537
VWidth: 0
GlyphClass: 2
Flags: HW
HStem: -10 31<367.221 399 367.221 417> -3 29<28 28 245 245> 391 41<36.5 96 59 96 59 96> 660 33<227 302>
VStem: 96 77<116 391 391 391 432 438 438 475> 247 58<338.5 340.861> 368 75<528.449 581.5> 443 68<97.5 124.5>
LayerCount: 2
Fore
SplineSet
28 -3 m 257
 23 2 24 21 28 26 c 257
 40 26 88 31 91 42 c 256
 96 58 96 86 96 116 c 258
 96 391 l 257
 38 391 l 258
 35 391 33 397 33 400 c 256
 33 404 58 431 59 432 c 257
 96 432 l 257
 96 438 l 258
 96 560 187 693 267 693 c 256
 361 693 443 655 443 561 c 256
 443 495.898 397.319 457.195 358.331 425 c 256
 322 395 305 380.122 305 359 c 256
 305 318 356 290 403 265 c 256
 450 240 511 206 511 137 c 256
 511 58 455 -10 379 -10 c 256
 318 -10 271 16 261 33 c 257
 262 66 268.486 91 295 91 c 256
 309.766 91 318.607 77.1792 327.75 62 c 256
 341 40 353.442 21 381 21 c 256
 417 21 443 52 443 102 c 256
 443 147 403 170 359 193 c 256
 306 221 247 251 247 325 c 256
 247 356.723 269.819 378.747 295.637 404 c 256
 331.452 439.031 368 476.461 368 549 c 256
 368 614 334 660 270 660 c 256
 181 660 173 557 173 475 c 258
 173 116 l 258
 173 86 173 58 178 42 c 256
 181 31 233 26 245 26 c 257
 249 21 250 2 245 -3 c 257
 204 -1 173 2 134 2 c 256
 95 2 69 -1 28 -3 c 257
EndSplineSet
PickledDataWithLists: "(dp1
S'com.fontlab.hintData'
p2
(dp3
S'vhints'
p4
(lp5
(dp6
S'position'
p7
I96
sS'width'
p8
I77
sa(dp9
g7
I247
sg8
I58
sa(dp10
g7
I368
sg8
I75
sa(dp11
g7
I443
sg8
I68
sasS'hhints'
p12
(lp13
(dp14
g7
I-10
sg8
I31
sa(dp15
g7
I-3
sg8
I29
sa(dp16
g7
I391
sg8
I41
sa(dp17
g7
I660
sg8
I33
sass."
Substitution2: "smcpLowercasetoSmallCapitalslookup12 subtable" germandbls.sc
Substitution2: "smcpLowercasetoSmallCapitalslookup2 subtable" germandbls.sc
EndChar

StartChar: ae
Encoding: 230 230 163
GlifName: ae
Width: 653
VWidth: 0
GlyphClass: 2
Flags: HW
HStem: -8 64<453 502> -8 54<168 171.5> 248 37<339 340> 255 30 398 38<202.5 212.5>
VStem: 37 83<97.5 127.5> 52 81 265 69 525 85
LayerCount: 2
Fore
SplineSet
37 107 m 256
 37 148 60 174 83 186 c 256
 131 210 220 243 249 256 c 256
 259 260 261 262 263 270 c 256
 265 279 265 290 265 302 c 256
 265 347 237 398 188 398 c 256
 153 398 140 374 133 335 c 256
 127 301 111 288 86 288 c 256
 65 288 52 310 52 330 c 256
 52 338 56 350 59 354 c 256
 83 377 166 436 239 436 c 256
 282 436 315 406 332 374 c 257
 356 400 403 438 460 438 c 256
 580 438 610 342 610 302 c 256
 610 273 605 256 586 255 c 256
 555 253 346 248 334 248 c 257
 331 120 409 56 497 56 c 256
 552 56 594 94 607 109 c 256
 608 109 615 103 615 95 c 256
 615 90 612 82 609 77 c 256
 591 48 541 -8 463 -8 c 256
 402 -8 332 20 298 77 c 257
 274 52 189 -8 154 -8 c 256
 88 -8 37 42 37 107 c 256
120 116 m 256
 120 79 149 46 187 46 c 256
 220 46 279 93 279 104 c 257
 271 122 264 163 261 193 c 256
 260 204 259 213 259 220 c 257
 233 211 198 200 181 194 c 256
 145 181 120 154 120 116 c 256
339 285 m 258
 502 285 l 258
 514 285 524 290 525 308 c 256
 526 332 504 402 443 402 c 256
 359 402 337 285 339 285 c 258
EndSplineSet
PickledDataWithLists: "(dp1
S'com.fontlab.hintData'
p2
(dp3
S'vhints'
p4
(lp5
(dp6
S'position'
p7
I37
sS'width'
p8
I83
sa(dp9
g7
I52
sg8
I81
sa(dp10
g7
I265
sg8
I69
sa(dp11
g7
I525
sg8
I85
sasS'hhints'
p12
(lp13
(dp14
g7
I-8
sg8
I64
sa(dp15
g7
I-8
sg8
I54
sa(dp16
g7
I248
sg8
I37
sa(dp17
g7
I255
sg8
I30
sa(dp18
g7
I398
sg8
I38
sass."
Substitution2: "smcpLowercasetoSmallCapitalslookup12 subtable" ae.sc
Substitution2: "smcpLowercasetoSmallCapitalslookup2 subtable" ae.sc
EndChar

StartChar: ccedilla
Encoding: 231 231 164
GlifName: ccedilla
Width: 423
VWidth: 0
GlyphClass: 2
Flags: HW
HStem: -148 24<222 242> -57 34<241 248.5> -8 66 394 44<230 242>
VStem: 39 78<168.5 267> 273 37<-95.5 -79>
LayerCount: 2
Fore
SplineSet
39 194 m 256
 39 340 178 438 282 438 c 256
 317 438 348 430 372 414 c 256
 376 410 382 396 382 386 c 256
 382 350 361 338 344 338 c 256
 322 338 303 364 286 375 c 256
 265 389 255 394 229 394 c 256
 176 394 117 332 117 227 c 256
 117 110 189 58 279 58 c 256
 334 58 372 94 385 109 c 256
 386 109 393 103 393 95 c 256
 393 90 390 82 387 77 c 256
 369.948 49.5279 324.18 -2.17421 253.095 -7.54582 c 257
 241 -23 l 257
 266 -23 l 258
 292 -23 310 -46 310 -72 c 256
 310 -119 268 -148 216 -148 c 256
 204 -148 188 -143 182 -139 c 256
 181 -134 179 -131 179 -125 c 256
 179 -118 187 -111 193 -111 c 256
 205 -111 214 -124 230 -124 c 256
 258 -124 273 -108 273 -91 c 256
 273 -67 255 -57 242 -57 c 256
 231 -57 226 -60 216 -64 c 256
 214 -64 204 -55 206 -51 c 256
 213.45 -38.5829 225.012 -21.3689 233.311 -7.86709 c 257
 116.581 -3.81599 39 92.2186 39 194 c 256
EndSplineSet
PickledDataWithLists: "(dp1
S'com.fontlab.hintData'
p2
(dp3
S'vhints'
p4
(lp5
(dp6
S'position'
p7
I39
sS'width'
p8
I78
sa(dp9
g7
I273
sg8
I37
sasS'hhints'
p10
(lp11
(dp12
g7
I-148
sg8
I24
sa(dp13
g7
I-57
sg8
I34
sa(dp14
g7
I-8
sg8
I66
sa(dp15
g7
I394
sg8
I44
sass."
Substitution2: "smcpLowercasetoSmallCapitalslookup12 subtable" ccedilla.sc
Substitution2: "smcpLowercasetoSmallCapitalslookup2 subtable" ccedilla.sc
EndChar

StartChar: eth
Encoding: 240 240 173
GlifName: eth
Width: 517
VWidth: 0
GlyphClass: 2
Flags: HW
HStem: -7 33<218.5 298.5 218.5 308.5> 406 33<194 261> 664 24
VStem: 40 86<178 265> 375 87<166 229.5>
LayerCount: 2
Fore
SplineSet
126 227 m 256
 126 129 178 26 259 26 c 256
 338 26 375 104 375 202 c 256
 375 257 366 308 355 329 c 256
 327 382 288 406 234 406 c 256
 154 406 126 319 126 227 c 256
40 211 m 256
 40 319 108 439 247 439 c 256
 276 439 312 435 332 423 c 257
 317.031 461.4 294.013 519.709 228.484 576.699 c 257
 128 509 l 257
 121 514 104 535 111 541 c 257
 198.912 600.107 l 257
 167.851 622.528 129.276 644.274 81 664 c 257
 81 671 87 688 95 688 c 256
 141.352 677.344 189.691 655.335 235.48 624.693 c 257
 346 699 l 257
 354 694 371 674 364 668 c 257
 266.493 602.307 l 257
 295.247 579.986 322.493 554.303 347 526 c 256
 415 448 462 349 462 247 c 256
 462 85 361 -7 256 -7 c 256
 120 -7 40 91 40 211 c 256
EndSplineSet
PickledDataWithLists: "(dp1
S'com.fontlab.hintData'
p2
(dp3
S'vhints'
p4
(lp5
(dp6
S'position'
p7
I40
sS'width'
p8
I86
sa(dp9
g7
I375
sg8
I87
sasS'hhints'
p10
(lp11
(dp12
g7
I-7
sg8
I33
sa(dp13
g7
I406
sg8
I33
sa(dp14
g7
I664
sg8
I24
sass."
Substitution2: "smcpLowercasetoSmallCapitalslookup12 subtable" eth.sc
Substitution2: "smcpLowercasetoSmallCapitalslookup2 subtable" eth.sc
EndChar

StartChar: divide
Encoding: 247 247 180
GlifName: divide
Width: 599
VWidth: 0
GlyphClass: 2
Flags: HW
HStem: 21 100 219 56<77 524 66 531> 404 100
VStem: 252 100
LayerCount: 2
Fore
SplineSet
60 229 m 256
 60 233 66 267 77 275 c 257
 531 275 l 258
 535 275 540 271 540 263 c 256
 540 247 532 227 524 219 c 257
 66 219 l 257
 66 219 60 219 60 229 c 256
EndSplineSet
Refer: 339 775 N 1 0 0 1 302 -110 2
Refer: 339 775 N 1 0 0 1 302 -493 2
PickledDataWithLists: "(dp1
S'com.fontlab.hintData'
p2
(dp3
S'vhints'
p4
(lp5
(dp6
S'position'
p7
I252
sS'width'
p8
I100
sasS'hhints'
p9
(lp10
(dp11
g7
I21
sg8
I100
sa(dp12
g7
I219
sg8
I56
sa(dp13
g7
I404
sg8
I100
sass."
Substitution2: "smcpLowercasetoSmallCapitalslookup12 subtable" divide.sc
Substitution2: "c2scCapitalstoSmallCapitalslookup11 subtable" divide.sc
Substitution2: "smcpLowercasetoSmallCapitalslookup2 subtable" divide.sc
EndChar

StartChar: oslash
Encoding: 248 248 181
GlifName: oslash
Width: 509
VWidth: 0
GlyphClass: 2
Flags: HW
HStem: -8 21 -7 33<248.993 309.5 248.993 317.5> 406 33<201.5 260.62> 417 20
VStem: 42 86<210.54 276 210.54 277.5> 383 86<156.5 221.891>
LayerCount: 2
Fore
SplineSet
42 213 m 256
 42 342 134 439 255 439 c 256
 294.23 439 329.044 430.786 358.601 415.958 c 257
 372 437 l 257
 379 434 402 423 399 417 c 258
 387.179 398.393 l 257
 439.415 359.62 469 296.083 469 221 c 256
 469 92 378 -7 257 -7 c 256
 214.886 -7 177.759 2.67022 146.725 19.8997 c 257
 129 -8 l 257
 121 -4 99 7 102 13 c 258
 118.524 38.9484 l 257
 69.692 78.6055 42 140.798 42 213 c 256
326.827 366.062 m 257
 305.04 390.516 277.24 406 244 406 c 256
 159 406 128 319 128 233 c 256
 128 188.079 138.509 140.37 158.732 102.09 c 257
 326.827 366.062 l 257
347.918 336.594 m 257
 179.164 70.9621 l 257
 201.536 43.6146 230.985 26 267 26 c 256
 352 26 383 113 383 198 c 256
 383 245.781 370.868 296.959 347.918 336.594 c 257
EndSplineSet
PickledDataWithLists: "(dp1
S'com.fontlab.hintData'
p2
(dp3
S'vhints'
p4
(lp5
(dp6
S'position'
p7
I42
sS'width'
p8
I86
sa(dp9
g7
I383
sg8
I86
sasS'hhints'
p10
(lp11
(dp12
g7
I-8
sg8
I21
sa(dp13
g7
I-7
sg8
I33
sa(dp14
g7
I406
sg8
I33
sa(dp15
g7
I417
sg8
I20
sass."
Substitution2: "smcpLowercasetoSmallCapitalslookup12 subtable" oslash.sc
Substitution2: "smcpLowercasetoSmallCapitalslookup2 subtable" oslash.sc
EndChar

StartChar: thorn
Encoding: 254 254 187
GlifName: thorn
Width: 495
VWidth: 0
GlyphClass: 2
Flags: HW
HStem: -226 29<3 3 216 216> -8 35<223.5 278.5> 379 59<255 270> 628 26<5 5> 674 20<148 150.5>
VStem: 71 77<-107 -10 74 100 100 340 383.5 384 384 558 558 565> 372 84<167.5 254.5>
LayerCount: 2
Fore
SplineSet
3 -197 m 257
 15 -197 63 -192 66 -181 c 256
 71 -165 71 -137 71 -107 c 258
 71 558 l 258
 71 572 71 598 66 610 c 256
 60 624 33 628 5 628 c 256
 4 628 2 653 6 654 c 256
 56 659 106 675 148 694 c 257
 153 694 159 685 159 678 c 258
 159 678 148 646 148 591 c 258
 148 384 l 258
 148 383 148 379 150 379 c 256
 151 379 152 380 153 381 c 256
 178 402 235 438 275 438 c 256
 399 438 456 318 456 232 c 256
 456 103 335 -8 222 -8 c 256
 196 -8 168 -2 152 3 c 257
 152 3 148 -2 148 -10 c 258
 148 -107 l 258
 148 -137 148 -165 153 -181 c 256
 156 -192 204 -197 216 -197 c 257
 220 -202 221 -221 216 -226 c 257
 175 -224 148 -221 109 -221 c 256
 70 -221 44 -224 3 -226 c 257
 -2 -221 -1 -202 3 -197 c 257
148 100 m 258
 148 48 206 27 241 27 c 256
 324 27 372 114 372 195 c 256
 372 314 308 379 232 379 c 256
 191 379 148 354 148 340 c 258
 148 100 l 258
EndSplineSet
PickledDataWithLists: "(dp1
S'com.fontlab.hintData'
p2
(dp3
S'vhints'
p4
(lp5
(dp6
S'position'
p7
I71
sS'width'
p8
I77
sa(dp9
g7
I372
sg8
I84
sasS'hhints'
p10
(lp11
(dp12
g7
I-226
sg8
I29
sa(dp13
g7
I-8
sg8
I35
sa(dp14
g7
I379
sg8
I59
sa(dp15
g7
I628
sg8
I26
sa(dp16
g7
I674
sg8
I20
sass."
Substitution2: "smcpLowercasetoSmallCapitalslookup12 subtable" thorn.sc
Substitution2: "smcpLowercasetoSmallCapitalslookup2 subtable" thorn.sc
EndChar

StartChar: Aogonek
Encoding: 260 260 193
GlifName: A_ogonek
Width: 627
VWidth: 0
GlyphClass: 2
Flags: HW
HStem: -223 59<480 495.5> -3 29<405 405 4.29497e+09 4.29497e+09> 253 39<280.5 305.5> 643 20<321.5 327.5>
VStem: 402 54<-128.5 -118.5>
LayerCount: 2
Fore
SplineSet
-12 -3 m 257
 -15 0 -15 19 -12 26 c 257
 0 26 38 32 48 45 c 256
 68 71 81 103 95 139 c 258
 95 139 227 478 288 634 c 257
 293 644 317 663 326 663 c 256
 329 663 329 661 332 660 c 257
 536 126 l 258
 550 89 559 64 561 60 c 256
 571 36 621 26 629 26 c 257
 634 19 632 0 631 -3 c 257
 603 -2 583 0 559 1 c 257
 515 -25 456 -77 456 -121 c 256
 456 -136 463 -164 497 -164 c 256
 548 -164 572 -126 578 -126 c 256
 579 -126 583 -131 583 -139 c 256
 583 -144 581 -153 578 -157 c 256
 556 -186 518 -223 473 -223 c 256
 417 -223 402 -173 402 -146 c 256
 402 -91 460 -32 514 2 c 257
 513 2 513 2 512 2 c 256
 472 2 447 -1 405 -3 c 257
 400 2 401 21 406 26 c 257
 418 26 453 31 462 39 c 256
 465 42 466 47 466 53 c 256
 466 83 398 248 398 248 c 257
 398 248 395 252 392 252 c 256
 366 254 318 253 293 253 c 256
 252 253 230 253 185 250 c 256
 183 250 180 247 180 247 c 257
 180 247 152 173 135 125 c 256
 123 90 121 67 121 54 c 256
 122 30 182 26 190 26 c 257
 193 23 194 3 192 -3 c 257
 152 -1 138 2 95 2 c 256
 49 2 34 -1 -12 -3 c 257
199 298 m 257
 199 298 199 294 201 294 c 256
 227 293 269 292 292 292 c 256
 323 292 345 293 376 295 c 256
 378 295 379 300 379 300 c 257
 291 542 l 257
 199 298 l 257
EndSplineSet
PickledDataWithLists: "(dp1
S'com.fontlab.hintData'
p2
(dp3
S'vhints'
p4
(lp5
(dp6
S'position'
p7
I402
sS'width'
p8
I54
sasS'hhints'
p9
(lp10
(dp11
g7
I-223
sg8
I59
sa(dp12
g7
I-3
sg8
I29
sa(dp13
g7
I253
sg8
I39
sa(dp14
g7
I643
sg8
I20
sass."
Substitution2: "c2scCapitalstoSmallCapitalslookup11 subtable" aogonek.sc
Substitution2: "c2scCapitalstoSmallCapitalsinLatinlookup0 subtable" aogonek.sc
EndChar

StartChar: aogonek
Encoding: 261 261 194
GlifName: aogonek
Width: 431
VWidth: 0
GlyphClass: 2
Flags: HW
HStem: -223 59<288 303.5> -8 54<168 171.5> 398 38<204.5 212.5>
VStem: 37 83<97.5 127.5> 52 81 210 54<-128.5 -124> 274 76<87 93 93 223 223 223 275 299>
LayerCount: 2
Fore
SplineSet
37 107 m 256
 37 148 65 179 87 187 c 256
 143 207 233 237 262 250 c 256
 272 254 274 257 274 275 c 258
 274 302 l 258
 274 347 237 398 188 398 c 256
 153 398 140 375 133 336 c 256
 127 302 111 288 86 288 c 256
 65 288 52 310 52 330 c 256
 52 334 55 349 59 354 c 256
 90 383 168 436 241 436 c 256
 298 436 350 376 350 299 c 258
 350 93 l 258
 350 66 358 46 381 46 c 256
 399 46 411 57 414 59 c 257
 417 59 418 54 418 51 c 256
 418 45 416 37 413 32 c 257
 403 25 389 15 377 7 c 256
 339 -20 264 -67 264 -121 c 256
 264 -136 271 -164 305 -164 c 256
 356 -164 380 -126 386 -126 c 256
 387 -126 391 -131 391 -139 c 256
 391 -144 389 -153 386 -157 c 256
 364 -186 326 -223 281 -223 c 256
 225 -223 210 -173 210 -146 c 256
 210 -102 265 -37 313 1 c 257
 296 11 279 35 277 59 c 257
 265 47 189 -8 154 -8 c 256
 88 -8 37 42 37 107 c 256
120 116 m 256
 120 79 149 46 187 46 c 256
 222 46 274 77 274 87 c 258
 274 223 l 257
 247 215 199 201 181 194 c 256
 145 180 120 154 120 116 c 256
EndSplineSet
PickledDataWithLists: "(dp1
S'com.fontlab.hintData'
p2
(dp3
S'vhints'
p4
(lp5
(dp6
S'position'
p7
I37
sS'width'
p8
I83
sa(dp9
g7
I52
sg8
I81
sa(dp10
g7
I210
sg8
I54
sa(dp11
g7
I274
sg8
I76
sasS'hhints'
p12
(lp13
(dp14
g7
I-223
sg8
I59
sa(dp15
g7
I-8
sg8
I54
sa(dp16
g7
I398
sg8
I38
sass."
Substitution2: "smcpLowercasetoSmallCapitalslookup12 subtable" aogonek.sc
Substitution2: "smcpLowercasetoSmallCapitalslookup2 subtable" aogonek.sc
EndChar

StartChar: Dcroat
Encoding: 272 272 205
GlifName: D_croat
Width: 710
VWidth: 0
GlyphClass: 2
Flags: HW
HStem: -3 29<45 51 45 295 45 51> 311 37<47 119 50 119 50 119 207 365> 626 32<286 353> 633 29<45 45>
VStem: 119 88<116 311 348 541> 560 99<249 426>
LayerCount: 2
Fore
SplineSet
49 311 m 258
 45 311 44 339 50 348 c 257
 119 348 l 257
 119 543 l 258
 119 573 119 601 114 617 c 256
 111 628 57 633 45 633 c 257
 41 638 40 657 45 662 c 257
 86 660 124 657 163 657 c 256
 202 657 264 658 308 658 c 256
 527 658 659 519 659 334 c 256
 659 164 577 -3 295 -3 c 258
 45 -3 l 257
 40 2 41 21 45 26 c 257
 57 26 111 31 114 42 c 256
 119 58 119 86 119 116 c 258
 119 311 l 257
 49 311 l 258
207 115 m 258
 207 101 208 49 213 43 c 256
 221 32 258 29 295 29 c 256
 437 29 560 118 560 313 c 256
 560 539 425 626 281 626 c 256
 269 626 215 625 212 615 c 256
 207 599 207 570 207 541 c 258
 207 348 l 257
 365 348 l 258
 369 348 369 320 365 311 c 257
 207 311 l 257
 207 115 l 258
EndSplineSet
PickledDataWithLists: "(dp1
S'com.fontlab.hintData'
p2
(dp3
S'vhints'
p4
(lp5
(dp6
S'position'
p7
I119
sS'width'
p8
I88
sa(dp9
g7
I560
sg8
I99
sasS'hhints'
p10
(lp11
(dp12
g7
I-3
sg8
I29
sa(dp13
g7
I311
sg8
I37
sa(dp14
g7
I626
sg8
I32
sa(dp15
g7
I633
sg8
I29
sass."
Substitution2: "c2scCapitalstoSmallCapitalslookup11 subtable" dcroat.sc
EndChar

StartChar: dcroat
Encoding: 273 273 206
GlifName: dcroat
Width: 515
VWidth: 0
GlyphClass: 2
Flags: HW
HStem: -8 62<218.5 239> 20 27 396 42<232 273> 525 35<216 351 219 351 219 351 428 484> 628 26<285 285> 674 20<428 430.5>
VStem: 39 84<183 271.5> 351 77<143.5 163 163 347 347 358.5 449 525>
LayerCount: 2
Fore
SplineSet
213 537 m 256
 213 542 215 553 219 560 c 257
 351 560 l 257
 350.989 574.356 350.771 598.55 346 610 c 256
 340 624 313 628 285 628 c 256
 284 628 282 653 286 654 c 256
 336 659 386 675 428 694 c 256
 433 694 439 685 439 678 c 258
 439 678 428 646 428 591 c 258
 428 560 l 257
 484 560 l 258
 488 560 490 556 490 552 c 256
 490 547 488 533 484 525 c 257
 428 525 l 257
 428 163 l 258
 428 124 429 79 435 65 c 256
 443 47 491 48 494 47 c 256
 496 46 497 38 497 35 c 256
 497 33 494 20 489 20 c 256
 437 17 360 -8 359 -8 c 256
 353 -8 351 4 351 11 c 258
 351 46 l 258
 351 51 350 54 348 52 c 256
 333 36 263 -8 215 -8 c 256
 124 -8 39 84 39 206 c 256
 39 337 187 438 277 438 c 256
 298 438 336 432 346 428 c 256
 350 428 351 437 351 449 c 258
 351 525 l 257
 218 525 l 258
 214 525 213 533 213 537 c 256
123 230 m 256
 123 136 173 54 264 54 c 256
 309 54 351 78 351 94 c 258
 351 347 l 258
 351 370 301 396 245 396 c 256
 169 396 123 314 123 230 c 256
EndSplineSet
PickledDataWithLists: "(dp1
S'com.fontlab.hintData'
p2
(dp3
S'vhints'
p4
(lp5
(dp6
S'position'
p7
I39
sS'width'
p8
I84
sa(dp9
g7
I351
sg8
I77
sasS'hhints'
p10
(lp11
(dp12
g7
I-8
sg8
I62
sa(dp13
g7
I20
sg8
I27
sa(dp14
g7
I396
sg8
I42
sa(dp15
g7
I525
sg8
I35
sa(dp16
g7
I628
sg8
I26
sa(dp17
g7
I674
sg8
I20
sass."
Substitution2: "smcpLowercasetoSmallCapitalslookup12 subtable" dcroat.sc
Substitution2: "smcpLowercasetoSmallCapitalslookup2 subtable" dcroat.sc
EndChar

StartChar: Eogonek
Encoding: 280 280 213
GlifName: E_ogonek
Width: 587
VWidth: 0
GlyphClass: 2
Flags: HW
HStem: -224 59<404 419.5> -3 29<45 51 45 64.5> 0 34 312 37<264 297> 408 20<423.5 430.5> 624 40 624 33 633 29<45 45>
VStem: 119 87<116 303 352.5 355 355 542> 326 54<-129.5 -121.5> 412 32 482 32
LayerCount: 2
Fore
SplineSet
45 -3 m 257
 40 2 41 21 45 26 c 257
 57 26 111 31 114 42 c 256
 119 58 119 86 119 116 c 258
 119 543 l 258
 119 573 119 601 114 617 c 256
 111 628 57 633 45 633 c 257
 41 638 40 657 45 662 c 257
 86 660 124 657 163 657 c 256
 257 657 376 664 485 664 c 257
 492 614 505 573 514 528 c 257
 511 525 503 523 496 523 c 256
 489 523 483 525 482 530 c 256
 460 610 419 624 366 624 c 258
 280 624 l 258
 268 624 214 623 211 613 c 256
 206 597 206 569 206 542 c 258
 206 355 l 258
 206 350 227 349 249 349 c 258
 302 349 l 258
 398 349 395 355 412 421 c 256
 413 426 420 428 427 428 c 256
 434 428 441 426 444 423 c 257
 444 234 l 257
 442 232 435 230 428 230 c 256
 421 230 414 233 412 238 c 256
 397 295 393 298 384 304 c 256
 373 311 316 312 278 312 c 256
 250 312 206 312 206 303 c 258
 206 113 l 258
 206 98 206 49 212 44 c 256
 225 34 241 34 283 34 c 258
 331 34 l 258
 378 34 429 44 457 61 c 256
 489 80 504 119 520 162 c 256
 521 166 527 168 534 168 c 256
 544 168 556 165 559 162 c 257
 540 108 512 40 505 -4 c 257
 446 -4 380 -79 380 -122 c 256
 380 -137 387 -165 421 -165 c 256
 472 -165 496 -127 502 -127 c 256
 503 -127 506 -132 506 -140 c 256
 506 -145 505 -154 502 -158 c 256
 480 -187 442 -224 397 -224 c 256
 341 -224 326 -174 326 -147 c 256
 326 -96 380 -38 430 -3 c 257
 348 -2 297 0 164 0 c 256
 117 0 84 -3 45 -3 c 257
EndSplineSet
PickledDataWithLists: "(dp1
S'com.fontlab.hintData'
p2
(dp3
S'vhints'
p4
(lp5
(dp6
S'position'
p7
I119
sS'width'
p8
I87
sa(dp9
g7
I326
sg8
I54
sa(dp10
g7
I412
sg8
I32
sa(dp11
g7
I482
sg8
I32
sasS'hhints'
p12
(lp13
(dp14
g7
I-224
sg8
I59
sa(dp15
g7
I-3
sg8
I29
sa(dp16
g7
I0
sg8
I34
sa(dp17
g7
I312
sg8
I37
sa(dp18
g7
I408
sg8
I20
sa(dp19
g7
I624
sg8
I40
sa(dp20
g7
I624
sg8
I33
sa(dp21
g7
I633
sg8
I29
sass."
Substitution2: "c2scCapitalstoSmallCapitalslookup11 subtable" eogonek.sc
Substitution2: "c2scCapitalstoSmallCapitalsinLatinlookup0 subtable" eogonek.sc
EndChar

StartChar: eogonek
Encoding: 281 281 214
GlifName: eogonek
Width: 431
VWidth: 0
GlyphClass: 2
Flags: HW
HStem: -224 59<264 279.5> -8 64<230 244> 248 37<116 117> 255 30 402 36<193 250.5>
VStem: 40 71 186 54<-129.5 -127> 302 85
LayerCount: 2
Fore
SplineSet
40 200 m 256
 40 334 149 438 237 438 c 256
 357 438 387 342 387 302 c 256
 387 273 382 256 363 255 c 256
 332 253 123 248 111 248 c 257
 108 120 186 56 274 56 c 256
 329 56 371 94 384 109 c 256
 385 109 392 103 392 95 c 256
 392 90 389 82 386 77 c 256
 377 63 359 43 338 25 c 256
 288 -17 240 -64 240 -122 c 256
 240 -137 247 -165 281 -165 c 256
 332 -165 356 -127 362 -127 c 256
 363 -127 366 -132 366 -140 c 256
 366 -145 365 -154 362 -158 c 256
 340 -187 302 -224 257 -224 c 256
 201 -224 186 -174 186 -147 c 256
 186 -107 224 -46 264 -6 c 257
 256 -7 248 -8 240 -8 c 256
 122 -8 40 82 40 200 c 256
116 285 m 258
 279 285 l 258
 291 285 301 290 302 308 c 256
 303 332 281 402 220 402 c 256
 136 402 114 285 116 285 c 258
EndSplineSet
PickledDataWithLists: "(dp1
S'com.fontlab.hintData'
p2
(dp3
S'vhints'
p4
(lp5
(dp6
S'position'
p7
I40
sS'width'
p8
I71
sa(dp9
g7
I186
sg8
I54
sa(dp10
g7
I302
sg8
I85
sasS'hhints'
p11
(lp12
(dp13
g7
I-224
sg8
I59
sa(dp14
g7
I-8
sg8
I64
sa(dp15
g7
I248
sg8
I37
sa(dp16
g7
I255
sg8
I30
sa(dp17
g7
I402
sg8
I36
sass."
Substitution2: "smcpLowercasetoSmallCapitalslookup12 subtable" eogonek.sc
Substitution2: "smcpLowercasetoSmallCapitalslookup2 subtable" eogonek.sc
EndChar

StartChar: Hbar
Encoding: 294 294 227
GlifName: H_bar
Width: 726
VWidth: 0
GlyphClass: 2
Flags: HW
HStem: -3 32<45 45 280 280 446 446 681 681> 325 37 470 38<84 119 87 119 87 119 206 520 607 638> 630 32<45 45 280 280 446 446 681 681>
VStem: 119 87<119 313 367 370 370 470 508 540> 520 87<119 315 315 317 370 470 508 540>
LayerCount: 2
Fore
SplineSet
81 483 m 256
 81 489 81 499 87 508 c 257
 119 508 l 257
 119 540 l 258
 119 570 119 598 114 614 c 256
 111 625 57 630 45 630 c 257
 41 635 40 657 45 662 c 257
 86 660 124 657 163 657 c 256
 202 657 239 660 280 662 c 257
 285 657 284 635 280 630 c 257
 268 630 214 625 211 614 c 256
 206 598 206 570 206 540 c 258
 206 508 l 257
 520 508 l 257
 520 540 l 258
 520 570 520 598 515 614 c 256
 512 625 458 630 446 630 c 257
 442 635 441 657 446 662 c 257
 487 660 525 657 564 657 c 256
 603 657 640 660 681 662 c 257
 686 657 685 635 681 630 c 257
 669 630 615 625 612 614 c 256
 607 598 607 570 607 540 c 258
 607 508 l 257
 639 508 l 258
 643 508 644 500 644 495 c 256
 644 489 644 479 638 470 c 257
 607 470 l 257
 607 119 l 258
 607 89 607 61 612 45 c 256
 615 34 669 29 681 29 c 257
 685 24 686 2 681 -3 c 257
 640 -1 603 2 564 2 c 256
 525 2 487 -1 446 -3 c 257
 441 2 442 24 446 29 c 257
 458 29 512 34 515 45 c 256
 520 61 520 89 520 119 c 258
 520 315 l 258
 520 319 515 321 509 321 c 256
 464 322 416 325 365 325 c 256
 242 325 221 322 215 321 c 256
 210 320 206 318 206 313 c 258
 206 119 l 258
 206 89 206 61 211 45 c 256
 214 34 268 29 280 29 c 257
 284 24 285 2 280 -3 c 257
 239 -1 202 2 163 2 c 256
 124 2 86 -1 45 -3 c 257
 40 2 41 24 45 29 c 257
 57 29 111 34 114 45 c 256
 119 61 119 89 119 119 c 258
 119 470 l 257
 86 470 l 258
 82 470 81 478 81 483 c 256
520 470 m 257
 206 470 l 257
 206 370 l 258
 206 364 211 362 217 362 c 256
 266 361 309 359 365 359 c 256
 412 359 462 361 502 362 c 256
 513 362 520 363 520 370 c 258
 520 470 l 257
EndSplineSet
PickledDataWithLists: "(dp1
S'com.fontlab.hintData'
p2
(dp3
S'vhints'
p4
(lp5
(dp6
S'position'
p7
I119
sS'width'
p8
I87
sa(dp9
g7
I520
sg8
I87
sasS'hhints'
p10
(lp11
(dp12
g7
I-3
sg8
I32
sa(dp13
g7
I325
sg8
I37
sa(dp14
g7
I470
sg8
I38
sa(dp15
g7
I630
sg8
I32
sass."
Substitution2: "c2scCapitalstoSmallCapitalslookup11 subtable" hbar.sc
EndChar

StartChar: hbar
Encoding: 295 295 228
GlifName: hbar
Width: 516
VWidth: 0
GlyphClass: 2
Flags: HW
HStem: -3 29<20 20 233 233 290 290 503 503> 380 58<282 299> 525 35<26 87.9994 29 87.9994 29 88 165 294> 628 26<22 22> 674 20<165 167.5>
VStem: 88 77<116 325 364.5 365 365 525> 358 77<116 216 216 226>
LayerCount: 2
Fore
SplineSet
23 537 m 256
 23 542 25 553 29 560 c 257
 87.9994 560 l 257
 87.9881 573.6 87.756 598.586 83 610 c 256
 77 624 50 628 22 628 c 256
 21 628 19 653 23 654 c 256
 73 659 123 675 165 694 c 256
 170 694 176 685 176 678 c 258
 176 678 165 646 165 591 c 258
 165 560 l 257
 294 560 l 258
 298 560 300 556 300 552 c 256
 300 547 298 533 294 525 c 257
 165 525 l 257
 165 365 l 258
 165 364 166 363 168 363 c 256
 169 363 170 364 171 365 c 256
 191 387 258 438 306 438 c 256
 414 438 435 371 435 226 c 258
 435 116 l 258
 435 86 435 58 440 42 c 256
 443 31 491 26 503 26 c 257
 507 21 508 2 503 -3 c 257
 462 -1 435 2 396 2 c 256
 357 2 331 -1 290 -3 c 257
 285 2 286 21 290 26 c 257
 302 26 350 31 353 42 c 256
 358 58 358 86 358 116 c 258
 358 216 l 258
 358 340 338 380 260 380 c 256
 223 380 165 334 165 325 c 258
 165 116 l 258
 165 86 165 58 170 42 c 256
 173 31 221 26 233 26 c 257
 237 21 238 2 233 -3 c 257
 192 -1 165 2 126 2 c 256
 87 2 61 -1 20 -3 c 257
 15 2 16 21 20 26 c 257
 32 26 80 31 83 42 c 256
 88 58 88 86 88 116 c 258
 88 525 l 257
 28 525 l 258
 24 525 23 533 23 537 c 256
EndSplineSet
PickledDataWithLists: "(dp1
S'com.fontlab.hintData'
p2
(dp3
S'vhints'
p4
(lp5
(dp6
S'position'
p7
I88
sS'width'
p8
I77
sa(dp9
g7
I358
sg8
I77
sasS'hhints'
p10
(lp11
(dp12
g7
I-3
sg8
I29
sa(dp13
g7
I380
sg8
I58
sa(dp14
g7
I525
sg8
I35
sa(dp15
g7
I628
sg8
I26
sa(dp16
g7
I674
sg8
I20
sass."
Substitution2: "smcpLowercasetoSmallCapitalslookup12 subtable" hbar.sc
Substitution2: "smcpLowercasetoSmallCapitalslookup2 subtable" hbar.sc
EndChar

StartChar: Iogonek
Encoding: 302 302 235
GlifName: I_ogonek
Width: 328
VWidth: 0
GlyphClass: 2
Flags: HW
HStem: -224 59<146 161.5> -3 29<46 46> 633 29<46 46>
VStem: 68 54<-129.5 -120> 120 87<135 139 139 519>
LayerCount: 2
Fore
SplineSet
42 12 m 256
 42 18 44 26 46 26 c 256
 58 26 108 34 113 46 c 257
 119 69 120 117 120 135 c 258
 120 523 l 258
 120 541 119 589 113 612 c 257
 108 624 58 633 46 633 c 256
 44 633 42 640 42 646 c 256
 42 652 44 660 46 662 c 257
 92 660 120 657 166 657 c 256
 210 657 242 660 282 662 c 257
 283 659 284 652 284 647 c 256
 284 641 283 633 280 633 c 256
 272 633 219 623 216 612 c 256
 209 585 207 555 207 519 c 258
 207 139 l 258
 207 103 209 73 216 46 c 256
 219 35 272 26 280 26 c 256
 283 26 284 17 284 11 c 256
 284 6 283 0 282 -3 c 257
 264 -2 245 -1 229 0 c 257
 185 -26 122 -78 122 -122 c 256
 122 -137 129 -165 163 -165 c 256
 214 -165 238 -127 244 -127 c 256
 245 -127 248 -132 248 -140 c 256
 248 -145 247 -154 244 -158 c 256
 222 -187 184 -224 139 -224 c 256
 83 -224 68 -174 68 -147 c 256
 68 -93 131 -33 184 2 c 257
 166 2 l 258
 120 2 92 -1 46 -3 c 257
 44 -1 42 6 42 12 c 256
EndSplineSet
PickledDataWithLists: "(dp1
S'com.fontlab.hintData'
p2
(dp3
S'vhints'
p4
(lp5
(dp6
S'position'
p7
I68
sS'width'
p8
I54
sa(dp9
g7
I120
sg8
I87
sasS'hhints'
p10
(lp11
(dp12
g7
I-224
sg8
I59
sa(dp13
g7
I-3
sg8
I29
sa(dp14
g7
I633
sg8
I29
sass."
Substitution2: "c2scCapitalstoSmallCapitalslookup11 subtable" iogonek.sc
Substitution2: "c2scCapitalstoSmallCapitalsinLatinlookup0 subtable" iogonek.sc
EndChar

StartChar: iogonek
Encoding: 303 303 236
GlifName: iogonek
Width: 268
VWidth: 0
GlyphClass: 2
Flags: HW
HStem: -224 59<130 145.5> -3 29<32 32 245 245> 372 26<30 30> 420 20<173 175.5> 559 100
VStem: 52 54<-129.5 -120> 90 100 100 77<116 302 302 308.5>
LayerCount: 2
Fore
SplineSet
32 -3 m 257
 27 2 28 21 32 26 c 257
 44 26 92 31 95 42 c 256
 100 58 100 86 100 116 c 258
 100 302 l 258
 100 315 100 342 95 354 c 256
 88 371 37 372 30 372 c 257
 28 374 26 393 30 398 c 257
 81 405 133 419 173 440 c 257
 178 440 184 429 184 424 c 256
 183 417 177 368 177 358 c 258
 177 116 l 258
 177 86 177 58 182 42 c 256
 185 31 233 26 245 26 c 257
 249 21 250 2 245 -3 c 257
 236 -2 220 -2 211 -1 c 257
 167 -28 106 -79 106 -122 c 256
 106 -137 113 -165 147 -165 c 256
 198 -165 222 -127 228 -127 c 256
 229 -127 232 -132 232 -140 c 256
 232 -145 231 -154 228 -158 c 256
 206 -187 168 -224 123 -224 c 256
 67 -224 52 -174 52 -147 c 256
 52 -93 115 -34 168 1 c 257
 160 1 151 2 141 2 c 256
 100 2 73 -1 32 -3 c 257
EndSplineSet
Refer: 339 775 N 1 0 0 1 140 45 2
PickledDataWithLists: "(dp1
S'com.fontlab.hintData'
p2
(dp3
S'vhints'
p4
(lp5
(dp6
S'position'
p7
I52
sS'width'
p8
I54
sa(dp9
g7
I90
sg8
I100
sa(dp10
g7
I100
sg8
I77
sasS'hhints'
p11
(lp12
(dp13
g7
I-224
sg8
I59
sa(dp14
g7
I-3
sg8
I29
sa(dp15
g7
I372
sg8
I26
sa(dp16
g7
I420
sg8
I20
sa(dp17
g7
I559
sg8
I100
sass."
Substitution2: "smcpLowercasetoSmallCapitalslookup12 subtable" iogonek.sc
Substitution2: "smcpLowercasetoSmallCapitalslookup2 subtable" iogonek.sc
EndChar

StartChar: dotlessi
Encoding: 305 305 238
GlifName: dotlessi
Width: 270
VWidth: 0
GlyphClass: 2
Flags: HW
HStem: -3 29<36 36 249 249> 372 26<34 34> 420 20<177 179.5>
VStem: 34 154<372 426.5> 104 77<116 302 302 308.5>
LayerCount: 2
Fore
SplineSet
34 372 m 257
 32 374 30 393 34 398 c 257
 85 405 137 419 177 440 c 257
 182 440 188 429 188 424 c 256
 187 417 181 368 181 358 c 258
 181 116 l 258
 181 86 181 58 186 42 c 256
 189 31 237 26 249 26 c 257
 253 21 254 2 249 -3 c 257
 208 -1 181 2 142 2 c 256
 103 2 77 -1 36 -3 c 257
 31 2 32 21 36 26 c 257
 48 26 96 31 99 42 c 256
 104 58 104 86 104 116 c 258
 104 302 l 258
 104 315 104 342 99 354 c 256
 92 371 41 372 34 372 c 257
EndSplineSet
PickledDataWithLists: "(dp1
S'com.fontlab.hintData'
p2
(dp3
S'vhints'
p4
(lp5
(dp6
S'position'
p7
I34
sS'width'
p8
I154
sa(dp9
g7
I104
sg8
I77
sasS'hhints'
p10
(lp11
(dp12
g7
I-3
sg8
I29
sa(dp13
g7
I372
sg8
I26
sa(dp14
g7
I420
sg8
I20
sass."
Substitution2: "smcpLowercasetoSmallCapitalslookup12 subtable" dotlessi.sc
Substitution2: "smcpLowercasetoSmallCapitalslookup2 subtable" dotlessi.sc
EndChar

StartChar: kgreenlandic
Encoding: 312 312 245
GlifName: kgreenlandic
Width: 533
VWidth: 0
GlyphClass: 2
Flags: HW
HStem: -3 29<36 36 249 249> 372 26<34 34> 396 29<493 493> 420 20
VStem: 104 77<116 204 235 302 302 308.5>
LayerCount: 2
Fore
SplineSet
34 372 m 257
 32 374 30 393 34 398 c 257
 85 405 137 419 177 440 c 257
 182 440 188 429 188 424 c 256
 187 417 181 368 181 358 c 258
 181 235 l 257
 198 241 229 267 263 296 c 256
 315 340 355 369 355 379 c 256
 355 394 316 395 307 396 c 257
 302 403 304 423 309 425 c 257
 338 422 373 420 405 420 c 256
 439 420 471 422 493 425 c 257
 497 419 496 400 493 396 c 257
 479 396 437 388 416 373 c 256
 405 365 313 299 254 249 c 257
 329 168 410 73 434 53 c 256
 460 32 500 25 526 26 c 257
 528 23 530 7 527 2 c 257
 520 -1 489 -4 462 -4 c 256
 403 -4 354 24 339 40 c 258
 339 40 253 133 196 195 c 256
 192 200 181 204 181 204 c 257
 181 116 l 258
 181 86 181 58 186 42 c 256
 189 31 237 26 249 26 c 257
 253 21 254 2 249 -3 c 257
 208 -1 181 2 142 2 c 256
 103 2 77 -1 36 -3 c 257
 31 2 32 21 36 26 c 257
 48 26 96 31 99 42 c 256
 104 58 104 86 104 116 c 258
 104 302 l 258
 104 315 104 342 99 354 c 256
 92 371 41 372 34 372 c 257
EndSplineSet
PickledDataWithLists: "(dp1
S'com.fontlab.hintData'
p2
(dp3
S'vhints'
p4
(lp5
(dp6
S'position'
p7
I104
sS'width'
p8
I77
sasS'hhints'
p9
(lp10
(dp11
g7
I-3
sg8
I29
sa(dp12
g7
I372
sg8
I26
sa(dp13
g7
I396
sg8
I29
sa(dp14
g7
I420
sg8
I20
sass."
Substitution2: "smcpLowercasetoSmallCapitalslookup12 subtable" kgreenlandic.sc
Substitution2: "smcpLowercasetoSmallCapitalslookup2 subtable" kgreenlandic.sc
EndChar

StartChar: Lslash
Encoding: 321 321 254
GlifName: L_slash
Width: 564
VWidth: 0
GlyphClass: 2
Flags: HW
HStem: -3 29<45 51 45 64.5> 0 34 633 29<45 45 280 280>
VStem: 119 87<116 253.134 253.134 253.134 297.164 299.399 343.299 543>
LayerCount: 2
Fore
SplineSet
35 196 m 258
 30 192 30 237 35 242 c 257
 119 297.164 l 257
 119 543 l 258
 119 573 119 601 114 617 c 256
 111 628 57 633 45 633 c 257
 41 638 40 657 45 662 c 257
 86 660 124 657 163 657 c 256
 202 657 239 660 280 662 c 257
 285 657 284 638 280 633 c 257
 268 633 214 628 211 617 c 256
 206 601 206 573 206 543 c 258
 206 343.299 l 257
 370 451 l 258
 376 455 371 411 366 407 c 258
 206 299.399 l 257
 206 116 l 258
 206 101 206 49 212 44 c 256
 225 34 241 34 283 34 c 258
 340 34 l 258
 378 34 429 42 457 61 c 256
 482 78 504 109 520 162 c 256
 521 166 527 168 534 168 c 256
 544 168 556 165 559 162 c 256
 540 108 512 40 505 -4 c 257
 396 -4 297 0 164 0 c 256
 117 0 84 -3 45 -3 c 257
 40 2 41 21 45 26 c 257
 57 26 111 31 114 42 c 256
 119 58 119 86 119 116 c 258
 119 253.134 l 257
 35 196 l 258
EndSplineSet
PickledDataWithLists: "(dp1
S'com.fontlab.hintData'
p2
(dp3
S'vhints'
p4
(lp5
(dp6
S'position'
p7
I119
sS'width'
p8
I87
sasS'hhints'
p9
(lp10
(dp11
g7
I-3
sg8
I29
sa(dp12
g7
I0
sg8
I34
sa(dp13
g7
I633
sg8
I29
sass."
Substitution2: "c2scCapitalstoSmallCapitalslookup11 subtable" lslash.sc
Substitution2: "c2scCapitalstoSmallCapitalsinLatinlookup0 subtable" lslash.sc
EndChar

StartChar: lslash
Encoding: 322 322 255
GlifName: lslash
Width: 255
VWidth: 0
GlyphClass: 2
Flags: HW
HStem: -3 29<21 21 234 234> 628 26<23 23> 674 20<166 168.5>
VStem: 89 77<116 297.091 297.091 297.091 335.284 349.98 388.051 558 558 565>
LayerCount: 2
Fore
SplineSet
21 -3 m 257
 16 2 17 21 21 26 c 257
 33 26 81 31 84 42 c 256
 89 58 89 86 89 116 c 258
 89 297.091 l 257
 35 260 l 257
 29 266 16 284 20 288 c 257
 89 335.284 l 257
 89 558 l 258
 89 572 89 598 84 610 c 256
 78 624 51 628 23 628 c 256
 22 628 20 653 24 654 c 256
 74 659 124 675 166 694 c 256
 171 694 177 685 177 678 c 258
 177 678 166 646 166 591 c 258
 166 388.051 l 257
 217 423 l 257
 222 418 237 400 233 396 c 257
 166 349.98 l 257
 166 116 l 258
 166 86 166 58 171 42 c 256
 174 31 222 26 234 26 c 257
 238 21 239 2 234 -3 c 257
 193 -1 166 2 127 2 c 256
 88 2 62 -1 21 -3 c 257
EndSplineSet
PickledDataWithLists: "(dp1
S'com.fontlab.hintData'
p2
(dp3
S'vhints'
p4
(lp5
(dp6
S'position'
p7
I89
sS'width'
p8
I77
sasS'hhints'
p9
(lp10
(dp11
g7
I-3
sg8
I29
sa(dp12
g7
I628
sg8
I26
sa(dp13
g7
I674
sg8
I20
sass."
Substitution2: "smcpLowercasetoSmallCapitalslookup12 subtable" lslash.sc
Substitution2: "smcpLowercasetoSmallCapitalslookup2 subtable" lslash.sc
EndChar

StartChar: Eng
Encoding: 330 330 262
GlifName: E_ng
Width: 776
VWidth: 0
GlyphClass: 2
Flags: HW
HStem: -227 47<484.5 490.5> -3 29<41 41> 634 24
VStem: 129 46<114 115 115 548 548 567> 611 46<166 545 545 546>
LayerCount: 2
Fore
SplineSet
41 -3 m 257
 38 2 36 15 41 26 c 257
 53 26 112 34 119 46 c 256
 128 61 129 76 129 114 c 258
 129 548 l 258
 129 586 128 601 119 616 c 256
 112 628 53 636 41 636 c 257
 36 647 38 660 41 665 c 257
 87 663 110 660 143 660 c 256
 173 660 205 661 219 662 c 257
 270 582 500 321 611 166 c 257
 611 545 l 258
 611 581 611 598 601 614 c 256
 595 624 541 634 525 634 c 257
 520 641 521 657 523 663 c 257
 563 661 594 658 638 658 c 256
 684 658 699 661 745 663 c 257
 748 658 750 645 745 634 c 257
 733 634 674 626 667 614 c 256
 658 599 657 584 657 546 c 258
 657 121 l 258
 657 -129 558 -227 423 -227 c 256
 408 -227 372 -218 360 -209 c 257
 355 -204 352 -193 352 -186 c 256
 352 -155 368 -130 400 -130 c 256
 418 -130 434 -146 448 -159 c 256
 459 -169 476 -180 493 -180 c 256
 530 -180 583 -138 595 38 c 257
 175 569 l 257
 175 115 l 258
 175 79 175 62 185 46 c 256
 191 36 244 26 260 26 c 257
 265 19 264 3 262 -3 c 257
 222 -1 192 2 148 2 c 256
 102 2 87 -1 41 -3 c 257
EndSplineSet
PickledDataWithLists: "(dp1
S'com.fontlab.hintData'
p2
(dp3
S'vhints'
p4
(lp5
(dp6
S'position'
p7
I129
sS'width'
p8
I46
sa(dp9
g7
I611
sg8
I46
sasS'hhints'
p10
(lp11
(dp12
g7
I-227
sg8
I47
sa(dp13
g7
I-3
sg8
I29
sa(dp14
g7
I634
sg8
I24
sass."
Substitution2: "c2scCapitalstoSmallCapitalslookup11 subtable" eng.sc
Substitution2: "c2scCapitalstoSmallCapitalsinLatinlookup0 subtable" eng.sc
EndChar

StartChar: eng
Encoding: 331 331 263
GlifName: eng
Width: 521
VWidth: 0
GlyphClass: 2
Flags: HW
HStem: -3 29<36 36 249 249> 372 26<34 34> 380 58<298 315>
VStem: 34 154<372 426.5> 104 77<116 302 302 308.5> 374 77<46 68 68 216 216 226>
LayerCount: 2
Fore
SplineSet
34 372 m 257
 32 374 30 393 34 398 c 257
 85 405 137 419 177 440 c 257
 182 440 188 429 188 424 c 256
 187 417 182 375 182 367 c 256
 182 366 182 363 184 363 c 256
 185 363 186 364 187 365 c 256
 207 387 274 438 322 438 c 256
 430 438 451 371 451 226 c 258
 451 68 l 258
 451 -124 346 -203 278 -231 c 257
 273 -228 267 -221 265 -216 c 256
 264 -214 264 -210 265 -209 c 256
 322 -168 374 -120 374 46 c 258
 374 216 l 258
 374 340 354 380 276 380 c 256
 239 380 181 334 181 325 c 258
 181 116 l 258
 181 86 181 58 186 42 c 256
 189 31 237 26 249 26 c 257
 253 21 254 2 249 -3 c 257
 208 -1 181 2 142 2 c 256
 103 2 77 -1 36 -3 c 257
 31 2 32 21 36 26 c 257
 48 26 96 31 99 42 c 256
 104 58 104 86 104 116 c 258
 104 302 l 258
 104 315 104 342 99 354 c 256
 92 371 41 372 34 372 c 257
EndSplineSet
PickledDataWithLists: "(dp1
S'com.fontlab.hintData'
p2
(dp3
S'vhints'
p4
(lp5
(dp6
S'position'
p7
I34
sS'width'
p8
I154
sa(dp9
g7
I104
sg8
I77
sa(dp10
g7
I374
sg8
I77
sasS'hhints'
p11
(lp12
(dp13
g7
I-3
sg8
I29
sa(dp14
g7
I372
sg8
I26
sa(dp15
g7
I380
sg8
I58
sass."
Substitution2: "smcpLowercasetoSmallCapitalslookup12 subtable" eng.sc
Substitution2: "smcpLowercasetoSmallCapitalslookup2 subtable" eng.sc
EndChar

StartChar: OE
Encoding: 338 338 270
GlifName: O_E_
Width: 1017
VWidth: 0
GlyphClass: 2
Flags: HW
HStem: -7 31<310.5 375.5> 0 34 312 37<694 727> 408 20<853.5 860.5> 624 40 624 33 633 34<284.5 380.5 283.5 392>
VStem: 49 99<272.5 417 272.5 421.5> 549 87<187 303 352.5 355 355 495 495 512.5> 842 32 912 32
LayerCount: 2
Fore
SplineSet
49 328 m 256
 49 515 199 667 368 667 c 256
 393 667 528 656 593 657 c 256
 687 657 806 664 915 664 c 257
 922 614 935 573 944 528 c 257
 941 525 933 523 926 523 c 256
 919 523 913 525 912 530 c 256
 890 610 849 624 796 624 c 258
 710 624 l 258
 698 624 644 623 641 613 c 256
 636 597 636 569 636 542 c 258
 636 355 l 258
 636 350 657 349 679 349 c 258
 732 349 l 258
 828 349 825 355 842 421 c 256
 843 426 850 428 857 428 c 256
 864 428 871 426 874 423 c 257
 874 234 l 257
 872 232 865 230 858 230 c 256
 851 230 844 233 842 238 c 256
 827 295 823 298 814 304 c 256
 803 311 746 312 708 312 c 256
 680 312 636 312 636 303 c 258
 636 113 l 258
 636 98 636 49 642 44 c 256
 655 34 671 34 713 34 c 258
 761 34 l 258
 808 34 859 44 887 61 c 256
 919 80 934 119 950 162 c 256
 951 166 957 168 964 168 c 256
 974 168 986 165 989 162 c 257
 970 108 942 40 935 -4 c 257
 826 -4 727 0 594 0 c 256
 548 0 505 -1 476 -3 c 256
 461 -4 388 -7 363 -7 c 256
 187 -7 49 141 49 328 c 256
148 350 m 256
 148 195 233 24 388 24 c 256
 443 24 502 28 525 63 c 256
 549 99 549 133 549 187 c 258
 549 495 l 258
 549 530 543 563 514 593 c 256
 481 628 427 633 357 633 c 256
 212 633 148 484 148 350 c 256
EndSplineSet
PickledDataWithLists: "(dp1
S'com.fontlab.hintData'
p2
(dp3
S'vhints'
p4
(lp5
(dp6
S'position'
p7
I49
sS'width'
p8
I99
sa(dp9
g7
I549
sg8
I87
sa(dp10
g7
I842
sg8
I32
sa(dp11
g7
I912
sg8
I32
sasS'hhints'
p12
(lp13
(dp14
g7
I-7
sg8
I31
sa(dp15
g7
I0
sg8
I34
sa(dp16
g7
I312
sg8
I37
sa(dp17
g7
I408
sg8
I20
sa(dp18
g7
I624
sg8
I40
sa(dp19
g7
I624
sg8
I33
sa(dp20
g7
I633
sg8
I34
sass."
Substitution2: "c2scCapitalstoSmallCapitalslookup11 subtable" oe.sc
EndChar

StartChar: oe
Encoding: 339 339 271
GlifName: oe
Width: 778
VWidth: 0
GlyphClass: 2
Flags: HW
HStem: -8 64<586 627> -7 33<221 290.5> 248 37 255 30 406 33<200.5 287.5>
VStem: 41 86<184.5 276 184.5 277.5> 382 77<174.5 246.5> 650 85
LayerCount: 2
Fore
SplineSet
41 213 m 256
 41 342 133 439 254 439 c 256
 336 439 399 403 435 346 c 257
 475 403 533 438 585 438 c 256
 705 438 735 342 735 302 c 256
 735 273 730 256 711 255 c 256
 683 254 499 249 459 248 c 257
 459 101 550 56 622 56 c 256
 677 56 719 94 732 109 c 256
 733 109 740 103 740 95 c 256
 740 90 737 82 734 77 c 256
 716 48 666 -8 588 -8 c 256
 516 -8 458 25 423 78 c 257
 385 26 325 -7 256 -7 c 256
 124 -7 41 88 41 213 c 256
127 233 m 256
 127 136 176 26 266 26 c 256
 351 26 382 113 382 198 c 256
 382 295 332 406 243 406 c 256
 158 406 127 319 127 233 c 256
464 285 m 258
 627 285 l 258
 639 285 649 290 650 308 c 256
 651 332 629 402 568 402 c 256
 484 402 462 285 464 285 c 258
EndSplineSet
PickledDataWithLists: "(dp1
S'com.fontlab.hintData'
p2
(dp3
S'vhints'
p4
(lp5
(dp6
S'position'
p7
I41
sS'width'
p8
I86
sa(dp9
g7
I382
sg8
I77
sa(dp10
g7
I650
sg8
I85
sasS'hhints'
p11
(lp12
(dp13
g7
I-8
sg8
I64
sa(dp14
g7
I-7
sg8
I33
sa(dp15
g7
I248
sg8
I37
sa(dp16
g7
I255
sg8
I30
sa(dp17
g7
I406
sg8
I33
sass."
Substitution2: "smcpLowercasetoSmallCapitalslookup12 subtable" oe.sc
Substitution2: "smcpLowercasetoSmallCapitalslookup2 subtable" oe.sc
EndChar

StartChar: Scedilla
Encoding: 350 350 282
GlifName: S_cedilla
Width: 502
VWidth: 0
GlyphClass: 2
Flags: HW
HStem: -178 28<226.5 250.5> -71 40<249 258.5> -10 34 632 34<213 292 211 296.5>
VStem: 49 37 65 80<485 543> 287 44<-116.5 -97> 372 87<120.851 180.5>
LayerCount: 2
Fore
SplineSet
49 174 m 257
 55 180 66 186 75 186 c 256
 82 186 85 182 86 177 c 256
 94 139 132 24 252 24 c 256
 317 24 372 68 372 146 c 256
 372 215 336 237 239 290 c 256
 163 332 65 390 65 490 c 256
 65 596 161 666 261 666 c 256
 323 666 346 653 412 638 c 257
 420 586 424 523 426 496 c 256
 427 489 412 485 405 485 c 256
 402 485 397 486 394 489 c 256
 388 539 339 632 254 632 c 256
 172 632 145 569 145 521 c 256
 145 449 205 413 277 371 c 256
 361 322 459 265 459 173 c 256
 459 68.7023 367.301 -2.33205 266.587 -9.4165 c 257
 249 -31 l 257
 279 -31 l 258
 310 -31 331 -58 331 -89 c 256
 331 -144 281 -178 220 -178 c 256
 206 -178 187 -173 180 -168 c 257
 179 -162 176 -158 176 -151 c 256
 176 -143 186 -135 193 -135 c 256
 207 -135 217 -150 236 -150 c 256
 269 -150 287 -131 287 -111 c 256
 287 -83 266 -71 251 -71 c 256
 238 -71 232 -74 220 -79 c 256
 218 -79 206 -69 208 -64 c 256
 217.781 -47.9953 233.095 -26.4565 242.697 -9.92785 c 257
 177.495 -8.64757 117.241 9.35896 70 19 c 257
 58 78 49 162 49 174 c 257
EndSplineSet
PickledDataWithLists: "(dp1
S'com.fontlab.hintData'
p2
(dp3
S'vhints'
p4
(lp5
(dp6
S'position'
p7
I49
sS'width'
p8
I37
sa(dp9
g7
I65
sg8
I80
sa(dp10
g7
I287
sg8
I44
sa(dp11
g7
I372
sg8
I87
sasS'hhints'
p12
(lp13
(dp14
g7
I-178
sg8
I28
sa(dp15
g7
I-71
sg8
I40
sa(dp16
g7
I-10
sg8
I34
sa(dp17
g7
I632
sg8
I34
sass."
Substitution2: "c2scCapitalstoSmallCapitalslookup11 subtable" scedilla.sc
Substitution2: "c2scCapitalstoSmallCapitalsinLatinlookup0 subtable" scedilla.sc
EndChar

StartChar: scedilla
Encoding: 351 351 283
GlifName: scedilla
Width: 369
VWidth: 0
GlyphClass: 2
Flags: HW
HStem: -154 24<168 188> -63 34<187 194.5> -11 32<153 176.853> 406 31<175 215.5 159 220.5>
VStem: 42 27 51 77<320 352> 219 37<-101.5 -85> 249 81<91.0175 116.328> 283 27<314 314>
LayerCount: 2
Fore
SplineSet
125 -131 m 256
 125 -124 133 -117 139 -117 c 256
 151 -117 160 -130 176 -130 c 256
 204 -130 219 -114 219 -97 c 256
 219 -73 201 -63 188 -63 c 256
 177 -63 172 -66 162 -70 c 256
 160 -70 150 -61 152 -57 c 256
 160.003 -43.661 172.752 -24.7863 181.103 -10.9246 c 257
 179.406 -10.9748 177.705 -11 176 -11 c 256
 130 -11 103 0 59 8 c 257
 51 29 42 86 42 112 c 257
 46 115 55 118 60 118 c 256
 63 118 66 118 69 116 c 256
 81 74 124 21 177 21 c 256
 218 21 249 47 249 93 c 256
 249 139.656 211.957 163.085 168 185.623 c 256
 99 221 51 251.189 51 315 c 256
 51 389 122 437 196 437 c 256
 235 437 254 429 298 424 c 257
 305 393 309 350 310 314 c 256
 310 310 305 309 300 309 c 256
 295 309 288 310 283 314 c 256
 273 351 242 406 199 406 c 256
 151 406 128 379 128 343 c 256
 128 297 159.047 280.085 215 249 c 256
 278 214 330 182 330 127 c 256
 330 55.035 272.377 2.01452 202.716 -8.91824 c 257
 187 -29 l 257
 212 -29 l 258
 238 -29 256 -52 256 -78 c 256
 256 -125 214 -154 162 -154 c 256
 150 -154 134 -149 128 -145 c 256
 127 -140 125 -137 125 -131 c 256
EndSplineSet
PickledDataWithLists: "(dp1
S'com.fontlab.hintData'
p2
(dp3
S'vhints'
p4
(lp5
(dp6
S'position'
p7
I42
sS'width'
p8
I27
sa(dp9
g7
I51
sg8
I77
sa(dp10
g7
I219
sg8
I37
sa(dp11
g7
I249
sg8
I81
sa(dp12
g7
I283
sg8
I27
sasS'hhints'
p13
(lp14
(dp15
g7
I-154
sg8
I24
sa(dp16
g7
I-63
sg8
I34
sa(dp17
g7
I-11
sg8
I32
sa(dp18
g7
I406
sg8
I31
sass."
Substitution2: "smcpLowercasetoSmallCapitalslookup12 subtable" scedilla.sc
Substitution2: "smcpLowercasetoSmallCapitalslookup2 subtable" scedilla.sc
EndChar

StartChar: Tcommaaccent
Encoding: 354 354 286
GlifName: T_commaaccent
Width: 626
VWidth: 0
GlyphClass: 2
Flags: HW
HStem: -171 28<280.5 304.5> -64 40<303 312.5> -3 29<196 196 431 431> 626 35<117 141 141 270 357 484 357 357>
VStem: 12 33 270 87<116 626> 341 44<-109.5 -90> 580 33
LayerCount: 2
Fore
SplineSet
12 506 m 256
 23 559 31 617 38 678 c 257
 44 681 55 678 61 675 c 256
 73 669 101 661 117 661 c 258
 508 661 l 258
 524 661 556 670 568 676 c 256
 578 681 581 681 587 678 c 257
 594 617 602 559 613 506 c 256
 610 503 603 498 594 499 c 256
 589 499 582 501 580 504 c 256
 566 574 534 626 484 626 c 258
 357 626 l 257
 357 116 l 258
 357 86 357 58 362 42 c 256
 365 31 419 26 431 26 c 257
 435 21 436 2 431 -3 c 257
 393.565 -1.1739 359.465 1.48585 324.132 1.93458 c 257
 303 -24 l 257
 333 -24 l 258
 364 -24 385 -51 385 -82 c 256
 385 -137 335 -171 274 -171 c 256
 260 -171 241 -166 234 -161 c 257
 233 -155 230 -151 230 -144 c 256
 230 -136 240 -128 247 -128 c 256
 261 -128 271 -143 290 -143 c 256
 323 -143 341 -124 341 -104 c 256
 341 -76 320 -64 305 -64 c 256
 292 -64 286 -67 274 -72 c 256
 272 -72 260 -62 262 -57 c 256
 272.758 -39.3959 290.212 -15.0963 299.393 1.86682 c 257
 265.439 1.2646 231.868 -1.25036 196 -3 c 257
 191 2 192 21 196 26 c 257
 208 26 262 31 265 42 c 256
 270 58 270 86 270 116 c 258
 270 626 l 257
 141 626 l 258
 91 626 59 574 45 504 c 256
 43 501 36 499 31 499 c 256
 22 498 15 503 12 506 c 256
EndSplineSet
PickledDataWithLists: "(dp1
S'com.fontlab.hintData'
p2
(dp3
S'vhints'
p4
(lp5
(dp6
S'position'
p7
I12
sS'width'
p8
I33
sa(dp9
g7
I270
sg8
I87
sa(dp10
g7
I341
sg8
I44
sa(dp11
g7
I580
sg8
I33
sasS'hhints'
p12
(lp13
(dp14
g7
I-171
sg8
I28
sa(dp15
g7
I-64
sg8
I40
sa(dp16
g7
I-3
sg8
I29
sa(dp17
g7
I626
sg8
I35
sass."
Substitution2: "c2scCapitalstoSmallCapitalslookup11 subtable" tcommaaccent.sc
Substitution2: "c2scCapitalstoSmallCapitalsinLatinlookup0 subtable" tcommaaccent.sc
EndChar

StartChar: tcommaaccent
Encoding: 355 355 287
GlifName: tcommaaccent
Width: 311
VWidth: 0
GlyphClass: 2
Flags: HW
HStem: -148 24<159 179> -57 34<178 185.5> -7 54 391 41<23.5 83 46 83 46 83 160 280>
VStem: 83 77<102.5 129 129 391 432 495 495 495> 210 37<-95.5 -79>
LayerCount: 2
Fore
SplineSet
20 400 m 256
 20 404 45 431 46 432 c 257
 83 432 l 257
 83 495 l 257
 102 517 142 559 144 562 c 256
 149 567 160 567 160 563 c 258
 160 432 l 257
 289 432 l 258
 294 432 294 427 294 421 c 256
 294 412 289 400 280 391 c 257
 160 391 l 257
 160 129 l 258
 160 76 182 47 226 47 c 256
 256 47 284 65 291 70 c 256
 293 69 294 66 294 63 c 256
 294 57 291 49 290 48 c 256
 276.342 32.391 237.939 -5.10773 190.576 -6.93104 c 257
 178 -23 l 257
 203 -23 l 258
 229 -23 247 -46 247 -72 c 256
 247 -119 205 -148 153 -148 c 256
 141 -148 125 -143 119 -139 c 256
 118 -134 116 -131 116 -125 c 256
 116 -118 124 -111 130 -111 c 256
 142 -111 151 -124 167 -124 c 256
 195 -124 210 -108 210 -91 c 256
 210 -67 192 -57 179 -57 c 256
 168 -57 163 -60 153 -64 c 256
 151 -64 141 -55 143 -51 c 256
 150.749 -38.0844 162.947 -19.979 171.294 -6.25947 c 257
 125.68 -1.81036 83 23.8259 83 101 c 258
 83 391 l 257
 25 391 l 258
 22 391 20 397 20 400 c 256
EndSplineSet
PickledDataWithLists: "(dp1
S'com.fontlab.hintData'
p2
(dp3
S'vhints'
p4
(lp5
(dp6
S'position'
p7
I83
sS'width'
p8
I77
sa(dp9
g7
I210
sg8
I37
sasS'hhints'
p10
(lp11
(dp12
g7
I-148
sg8
I24
sa(dp13
g7
I-57
sg8
I34
sa(dp14
g7
I-7
sg8
I54
sa(dp15
g7
I391
sg8
I41
sass."
Substitution2: "smcpLowercasetoSmallCapitalslookup12 subtable" tcommaaccent.sc
Substitution2: "smcpLowercasetoSmallCapitalslookup2 subtable" tcommaaccent.sc
EndChar

